<svg width="28" height="28" viewBox="0 0 28 28" fill="none" xmlns="http://www.w3.org/2000/svg">
<g id="CaretRight">
<path id="Vector" d="M8.13094 14.6191L16.8809 23.3691C16.9622 23.4504 17.0587 23.5148 17.165 23.5588C17.2712 23.6028 17.385 23.6255 17.5 23.6255C17.615 23.6255 17.7288 23.6028 17.835 23.5588C17.9413 23.5148 18.0378 23.4504 18.1191 23.3691C18.2004 23.2878 18.2648 23.1913 18.3088 23.085C18.3528 22.9788 18.3755 22.865 18.3755 22.75C18.3755 22.635 18.3528 22.5212 18.3088 22.415C18.2648 22.3087 18.2004 22.2122 18.1191 22.1309L9.98703 14L18.1191 5.86906C18.2833 5.70488 18.3755 5.48219 18.3755 5.25C18.3755 5.0178 18.2833 4.79512 18.1191 4.63094C17.9549 4.46675 17.7322 4.37451 17.5 4.37451C17.2678 4.37451 17.0451 4.46675 16.8809 4.63094L8.13094 13.3809C8.04959 13.4622 7.98505 13.5587 7.94101 13.6649C7.89698 13.7711 7.87432 13.885 7.87432 14C7.87432 14.115 7.89698 14.2288 7.94101 14.3351C7.98505 14.4413 8.04959 14.5378 8.13094 14.6191Z" fill="#EFEFEF"/>
</g>
</svg>
