<svg xmlns="http://www.w3.org/2000/svg" width="266" height="124" viewBox="0 0 266 124" fill="none">
  <g filter="url(#filter0_d_1190_678)">
    <path d="M18.0137 2.32373L64.3767 10.9407C71.9732 12.3525 78.5426 16.3884 78.0475 22.5686C77.5301 29.0601 74.9639 31.0038 71.486 31.5401L71.4648 31.6545C75.1838 33.5284 76.3598 39.1913 74.8549 44.2378C72.8742 50.891 64.7344 52.4019 57.4044 51.0396L10.5771 42.3364L18.0137 2.32373ZM59.512 26.4801C62.0391 26.9498 67.6908 28.0002 68.6094 23.0577C69.5089 18.2181 64.3482 17.2589 61.9467 16.8126L27.4351 10.3983L25.6171 20.1805L59.512 26.4801ZM57.2374 44.5234C59.4828 44.9407 64.7425 45.9183 65.7051 40.7395C66.822 34.73 61.5014 33.7411 58.4681 33.1773L24.7444 26.9095L22.665 38.0978L57.2374 44.5234Z" fill="#EFEFEF"/>
  </g>
  <g filter="url(#filter1_d_1190_678)">
    <path d="M84.1083 14.5329L94.3004 16.4272L87.9261 50.7238L104.699 53.841L103.636 59.5571L76.6679 54.5448L84.1045 14.5322L84.1083 14.5329Z" fill="#EFEFEF"/>
  </g>
  <g filter="url(#filter2_d_1190_678)">
    <path d="M128.19 22.8008L146.054 26.1211L152.284 68.6739L139.097 66.2229L138.176 57.8319L138.155 57.9462L123.167 55.1607L119.314 62.5461L107.086 60.2734L128.19 22.8008ZM137.604 52.2259L135.407 31.3568L135.167 31.3122L125.737 50.0204L137.604 52.2259Z" fill="#EFEFEF"/>
  </g>
  <g filter="url(#filter3_d_1190_678)">
    <path d="M223.14 40.3733L234.752 42.5314L231.618 59.3939L249.526 45.2773L261.134 47.4347L244.577 59.5553L253.907 87.4863L241.77 85.2305L235.269 65.5721L229.68 69.7964L227.311 82.5433L215.7 80.3852L223.136 40.3726L223.14 40.3733Z" fill="#EFEFEF"/>
  </g>
  <g filter="url(#filter4_d_1190_678)">
    <path d="M9.88297 46.0708L19.3557 47.8314L23.7335 65.1635L23.8705 65.189L26.8381 49.222L33.563 50.4719L28.6052 77.147L20.8489 75.7054L15.4101 54.5491L15.2731 54.5237L11.6539 73.9965L4.92518 72.7459L9.88297 46.0708Z" fill="#EFEFEF"/>
  </g>
  <g filter="url(#filter5_d_1190_678)">
    <path d="M32.3035 71.2938L34.9099 57.2704C35.7031 53.0023 40.6664 51.4017 48.9213 52.9359C57.1762 54.4702 61.2329 57.7472 60.4396 62.0153L57.8332 76.0387C57.04 80.3067 52.0768 81.9074 43.8219 80.3732C35.5669 78.8389 31.5103 75.5618 32.3035 71.2938ZM49.3727 74.7422L52.0782 60.1853C52.4324 58.2799 50.8847 57.2432 48.2092 56.7459C45.5337 56.2487 43.7169 56.6601 43.3628 58.5654L40.6573 73.1224C40.3032 75.0278 41.8508 76.0645 44.5263 76.5617C47.2018 77.059 49.0186 76.6476 49.3727 74.7422Z" fill="#EFEFEF"/>
  </g>
  <g filter="url(#filter6_d_1190_678)">
    <path d="M60.8929 55.5513L68.9651 57.0516L70.3562 78.7171L70.5008 78.744L79.5835 59.0251L86.9288 60.3903L74.2642 85.633L63.6496 83.6602L60.9005 55.5527L60.8929 55.5513Z" fill="#EFEFEF"/>
  </g>
  <g filter="url(#filter7_d_1190_678)">
    <path d="M88.6757 60.7153L128.512 68.1192L127.803 71.9299L98.7685 66.5335L97.4582 73.5834L121.317 78.0177L120.609 81.8285L96.7499 77.3941L95.2272 85.5872L124.262 90.9835L123.554 94.7943L83.7179 87.3904L88.6757 60.7153Z" fill="#EFEFEF"/>
  </g>
  <g filter="url(#filter8_d_1190_678)">
    <path d="M131.191 68.6167L141.349 70.5046L142.329 90.4381L142.459 90.4622L150.536 72.2122L160.694 74.1001L155.736 100.775L149.007 99.5246L152.761 79.3277L152.632 79.3037L143.702 98.5385L137.75 97.4322L136.327 76.2734L136.198 76.2493L132.444 96.4462L126.233 95.2918L131.191 68.6167Z" fill="#EFEFEF"/>
  </g>
  <g filter="url(#filter9_d_1190_678)">
    <path d="M162.456 74.4277L173.778 76.5321C181.554 77.9772 184.52 80.618 183.755 84.7335L183.557 85.8005C183.047 88.5443 181.229 89.9804 177.745 90.1215L177.731 90.1977C181.612 91.7075 182.816 93.9812 182.292 96.8012L181.867 99.0876C181.102 103.203 176.805 104.691 169.3 103.296L157.502 101.104L162.46 74.4284L162.456 74.4277ZM170.873 87.2279C173.67 87.7478 175.503 87.3787 175.9 85.2447L176.176 83.7585C176.53 81.8532 175.525 80.7991 172.865 80.3046L169.249 79.6326L167.939 86.6825L170.873 87.2279ZM170.005 99.4849C172.528 99.9539 174.011 99.5593 174.379 97.5777L174.811 95.2531C175.272 92.7762 173.982 91.7481 170.572 91.1143L167.231 90.4932L165.708 98.6863L170.005 99.4849Z" fill="#EFEFEF"/>
  </g>
  <g filter="url(#filter10_d_1190_678)">
    <path d="M187.75 79.1289L208.309 82.95L207.601 86.7607L194.577 84.3402L193.267 91.39L203.615 93.3133L202.907 97.124L192.559 95.2008L191.036 103.394L204.06 105.814L203.351 109.625L182.792 105.804L187.75 79.1289Z" fill="#EFEFEF"/>
  </g>
  <g filter="url(#filter11_d_1190_678)">
    <path d="M210.688 83.3923L231.129 87.1914C245.428 89.8489 251.195 93.0103 250.43 97.1259L250.125 98.7645C249.615 101.508 246.405 102.725 240.117 102.345L240.103 102.421C246.878 104.351 248.767 106.752 248.207 109.762L247.336 114.449C247.095 115.745 247.044 116.721 248.238 117.968L238 116.065C237.374 115.239 236.949 114.726 237.353 112.554L238.26 107.677C238.72 105.2 236.486 103.957 230.214 102.791L217.83 100.489L215.705 111.921L205.719 110.065L210.676 83.3901L210.688 83.3923ZM231.185 99.0289C236.327 99.9846 239.59 99.8815 239.987 97.7475L240.369 95.6897C240.723 93.7843 238.748 92.5498 233.857 91.6409L219.97 89.0598L218.553 96.6812L231.189 99.0296L231.185 99.0289Z" fill="#EFEFEF"/>
  </g>
  <g filter="url(#filter12_d_1190_678)">
    <path d="M216.831 53.1566L217.617 48.9267C218.764 42.7533 209.142 37.1802 189.641 33.5557C170.139 29.9313 160.718 30.2658 158.013 37.8489C155.551 44.7437 153.997 54.5039 154.019 59.3414C154.052 66.8735 162.494 71.0878 181.991 74.7116C201.489 78.3353 212.475 76.5925 213.622 70.4192L214.674 64.7602L201.51 62.3135L201.275 63.5749C200.405 68.2582 195.868 71.3771 191.191 70.5078L174.148 67.3403C169.471 66.471 166.358 61.9303 167.228 57.2469L169.636 44.2904C170.507 39.6071 175.043 36.4882 179.721 37.3575L196.763 40.525C201.441 41.3943 204.554 45.935 203.683 50.6184L203.666 50.7098L216.831 53.1566Z" fill="#EFEFEF"/>
  </g>
  <defs>
    <filter id="filter0_d_1190_678" x="6.57706" y="0.32373" width="75.4968" height="57.1738" filterUnits="userSpaceOnUse" color-interpolation-filters="sRGB">
      <feFlood flood-opacity="0" result="BackgroundImageFix"/>
      <feColorMatrix in="SourceAlpha" type="matrix" values="0 0 0 0 0 0 0 0 0 0 0 0 0 0 0 0 0 0 127 0" result="hardAlpha"/>
      <feOffset dy="2"/>
      <feGaussianBlur stdDeviation="2"/>
      <feComposite in2="hardAlpha" operator="out"/>
      <feColorMatrix type="matrix" values="0 0 0 0 0 0 0 0 0 0 0 0 0 0 0 0 0 0 0.4 0"/>
      <feBlend mode="normal" in2="BackgroundImageFix" result="effect1_dropShadow_1190_678"/>
      <feBlend mode="normal" in="SourceGraphic" in2="effect1_dropShadow_1190_678" result="shape"/>
    </filter>
    <filter id="filter1_d_1190_678" x="72.6678" y="12.5322" width="36.0307" height="53.0249" filterUnits="userSpaceOnUse" color-interpolation-filters="sRGB">
      <feFlood flood-opacity="0" result="BackgroundImageFix"/>
      <feColorMatrix in="SourceAlpha" type="matrix" values="0 0 0 0 0 0 0 0 0 0 0 0 0 0 0 0 0 0 127 0" result="hardAlpha"/>
      <feOffset dy="2"/>
      <feGaussianBlur stdDeviation="2"/>
      <feComposite in2="hardAlpha" operator="out"/>
      <feColorMatrix type="matrix" values="0 0 0 0 0 0 0 0 0 0 0 0 0 0 0 0 0 0 0.4 0"/>
      <feBlend mode="normal" in2="BackgroundImageFix" result="effect1_dropShadow_1190_678"/>
      <feBlend mode="normal" in="SourceGraphic" in2="effect1_dropShadow_1190_678" result="shape"/>
    </filter>
    <filter id="filter2_d_1190_678" x="103.086" y="20.8008" width="53.1984" height="53.873" filterUnits="userSpaceOnUse" color-interpolation-filters="sRGB">
      <feFlood flood-opacity="0" result="BackgroundImageFix"/>
      <feColorMatrix in="SourceAlpha" type="matrix" values="0 0 0 0 0 0 0 0 0 0 0 0 0 0 0 0 0 0 127 0" result="hardAlpha"/>
      <feOffset dy="2"/>
      <feGaussianBlur stdDeviation="2"/>
      <feComposite in2="hardAlpha" operator="out"/>
      <feColorMatrix type="matrix" values="0 0 0 0 0 0 0 0 0 0 0 0 0 0 0 0 0 0 0.4 0"/>
      <feBlend mode="normal" in2="BackgroundImageFix" result="effect1_dropShadow_1190_678"/>
      <feBlend mode="normal" in="SourceGraphic" in2="effect1_dropShadow_1190_678" result="shape"/>
    </filter>
    <filter id="filter3_d_1190_678" x="211.7" y="38.3726" width="53.4344" height="55.1138" filterUnits="userSpaceOnUse" color-interpolation-filters="sRGB">
      <feFlood flood-opacity="0" result="BackgroundImageFix"/>
      <feColorMatrix in="SourceAlpha" type="matrix" values="0 0 0 0 0 0 0 0 0 0 0 0 0 0 0 0 0 0 127 0" result="hardAlpha"/>
      <feOffset dy="2"/>
      <feGaussianBlur stdDeviation="2"/>
      <feComposite in2="hardAlpha" operator="out"/>
      <feColorMatrix type="matrix" values="0 0 0 0 0 0 0 0 0 0 0 0 0 0 0 0 0 0 0.4 0"/>
      <feBlend mode="normal" in2="BackgroundImageFix" result="effect1_dropShadow_1190_678"/>
      <feBlend mode="normal" in="SourceGraphic" in2="effect1_dropShadow_1190_678" result="shape"/>
    </filter>
    <filter id="filter4_d_1190_678" x="0.925171" y="44.0708" width="36.6378" height="39.0762" filterUnits="userSpaceOnUse" color-interpolation-filters="sRGB">
      <feFlood flood-opacity="0" result="BackgroundImageFix"/>
      <feColorMatrix in="SourceAlpha" type="matrix" values="0 0 0 0 0 0 0 0 0 0 0 0 0 0 0 0 0 0 127 0" result="hardAlpha"/>
      <feOffset dy="2"/>
      <feGaussianBlur stdDeviation="2"/>
      <feComposite in2="hardAlpha" operator="out"/>
      <feColorMatrix type="matrix" values="0 0 0 0 0 0 0 0 0 0 0 0 0 0 0 0 0 0 0.4 0"/>
      <feBlend mode="normal" in2="BackgroundImageFix" result="effect1_dropShadow_1190_678"/>
      <feBlend mode="normal" in="SourceGraphic" in2="effect1_dropShadow_1190_678" result="shape"/>
    </filter>
    <filter id="filter5_d_1190_678" x="28.2059" y="50.3657" width="36.3314" height="36.5776" filterUnits="userSpaceOnUse" color-interpolation-filters="sRGB">
      <feFlood flood-opacity="0" result="BackgroundImageFix"/>
      <feColorMatrix in="SourceAlpha" type="matrix" values="0 0 0 0 0 0 0 0 0 0 0 0 0 0 0 0 0 0 127 0" result="hardAlpha"/>
      <feOffset dy="2"/>
      <feGaussianBlur stdDeviation="2"/>
      <feComposite in2="hardAlpha" operator="out"/>
      <feColorMatrix type="matrix" values="0 0 0 0 0 0 0 0 0 0 0 0 0 0 0 0 0 0 0.4 0"/>
      <feBlend mode="normal" in2="BackgroundImageFix" result="effect1_dropShadow_1190_678"/>
      <feBlend mode="normal" in="SourceGraphic" in2="effect1_dropShadow_1190_678" result="shape"/>
    </filter>
    <filter id="filter6_d_1190_678" x="56.8929" y="53.5513" width="34.0359" height="38.0815" filterUnits="userSpaceOnUse" color-interpolation-filters="sRGB">
      <feFlood flood-opacity="0" result="BackgroundImageFix"/>
      <feColorMatrix in="SourceAlpha" type="matrix" values="0 0 0 0 0 0 0 0 0 0 0 0 0 0 0 0 0 0 127 0" result="hardAlpha"/>
      <feOffset dy="2"/>
      <feGaussianBlur stdDeviation="2"/>
      <feComposite in2="hardAlpha" operator="out"/>
      <feColorMatrix type="matrix" values="0 0 0 0 0 0 0 0 0 0 0 0 0 0 0 0 0 0 0.4 0"/>
      <feBlend mode="normal" in2="BackgroundImageFix" result="effect1_dropShadow_1190_678"/>
      <feBlend mode="normal" in="SourceGraphic" in2="effect1_dropShadow_1190_678" result="shape"/>
    </filter>
    <filter id="filter7_d_1190_678" x="79.7179" y="58.7153" width="52.7937" height="42.0791" filterUnits="userSpaceOnUse" color-interpolation-filters="sRGB">
      <feFlood flood-opacity="0" result="BackgroundImageFix"/>
      <feColorMatrix in="SourceAlpha" type="matrix" values="0 0 0 0 0 0 0 0 0 0 0 0 0 0 0 0 0 0 127 0" result="hardAlpha"/>
      <feOffset dy="2"/>
      <feGaussianBlur stdDeviation="2"/>
      <feComposite in2="hardAlpha" operator="out"/>
      <feColorMatrix type="matrix" values="0 0 0 0 0 0 0 0 0 0 0 0 0 0 0 0 0 0 0.4 0"/>
      <feBlend mode="normal" in2="BackgroundImageFix" result="effect1_dropShadow_1190_678"/>
      <feBlend mode="normal" in="SourceGraphic" in2="effect1_dropShadow_1190_678" result="shape"/>
    </filter>
    <filter id="filter8_d_1190_678" x="122.233" y="66.6167" width="42.4608" height="40.1587" filterUnits="userSpaceOnUse" color-interpolation-filters="sRGB">
      <feFlood flood-opacity="0" result="BackgroundImageFix"/>
      <feColorMatrix in="SourceAlpha" type="matrix" values="0 0 0 0 0 0 0 0 0 0 0 0 0 0 0 0 0 0 127 0" result="hardAlpha"/>
      <feOffset dy="2"/>
      <feGaussianBlur stdDeviation="2"/>
      <feComposite in2="hardAlpha" operator="out"/>
      <feColorMatrix type="matrix" values="0 0 0 0 0 0 0 0 0 0 0 0 0 0 0 0 0 0 0.4 0"/>
      <feBlend mode="normal" in2="BackgroundImageFix" result="effect1_dropShadow_1190_678"/>
      <feBlend mode="normal" in="SourceGraphic" in2="effect1_dropShadow_1190_678" result="shape"/>
    </filter>
    <filter id="filter9_d_1190_678" x="153.502" y="72.4277" width="34.3695" height="37.3784" filterUnits="userSpaceOnUse" color-interpolation-filters="sRGB">
      <feFlood flood-opacity="0" result="BackgroundImageFix"/>
      <feColorMatrix in="SourceAlpha" type="matrix" values="0 0 0 0 0 0 0 0 0 0 0 0 0 0 0 0 0 0 127 0" result="hardAlpha"/>
      <feOffset dy="2"/>
      <feGaussianBlur stdDeviation="2"/>
      <feComposite in2="hardAlpha" operator="out"/>
      <feColorMatrix type="matrix" values="0 0 0 0 0 0 0 0 0 0 0 0 0 0 0 0 0 0 0.4 0"/>
      <feBlend mode="normal" in2="BackgroundImageFix" result="effect1_dropShadow_1190_678"/>
      <feBlend mode="normal" in="SourceGraphic" in2="effect1_dropShadow_1190_678" result="shape"/>
    </filter>
    <filter id="filter10_d_1190_678" x="178.792" y="77.1289" width="33.517" height="38.4961" filterUnits="userSpaceOnUse" color-interpolation-filters="sRGB">
      <feFlood flood-opacity="0" result="BackgroundImageFix"/>
      <feColorMatrix in="SourceAlpha" type="matrix" values="0 0 0 0 0 0 0 0 0 0 0 0 0 0 0 0 0 0 127 0" result="hardAlpha"/>
      <feOffset dy="2"/>
      <feGaussianBlur stdDeviation="2"/>
      <feComposite in2="hardAlpha" operator="out"/>
      <feColorMatrix type="matrix" values="0 0 0 0 0 0 0 0 0 0 0 0 0 0 0 0 0 0 0.4 0"/>
      <feBlend mode="normal" in2="BackgroundImageFix" result="effect1_dropShadow_1190_678"/>
      <feBlend mode="normal" in="SourceGraphic" in2="effect1_dropShadow_1190_678" result="shape"/>
    </filter>
    <filter id="filter11_d_1190_678" x="201.719" y="81.3901" width="52.7782" height="42.5776" filterUnits="userSpaceOnUse" color-interpolation-filters="sRGB">
      <feFlood flood-opacity="0" result="BackgroundImageFix"/>
      <feColorMatrix in="SourceAlpha" type="matrix" values="0 0 0 0 0 0 0 0 0 0 0 0 0 0 0 0 0 0 127 0" result="hardAlpha"/>
      <feOffset dy="2"/>
      <feGaussianBlur stdDeviation="2"/>
      <feComposite in2="hardAlpha" operator="out"/>
      <feColorMatrix type="matrix" values="0 0 0 0 0 0 0 0 0 0 0 0 0 0 0 0 0 0 0.4 0"/>
      <feBlend mode="normal" in2="BackgroundImageFix" result="effect1_dropShadow_1190_678"/>
      <feBlend mode="normal" in="SourceGraphic" in2="effect1_dropShadow_1190_678" result="shape"/>
    </filter>
    <filter id="filter12_d_1190_678" x="150.019" y="29.3164" width="71.6902" height="53.2681" filterUnits="userSpaceOnUse" color-interpolation-filters="sRGB">
      <feFlood flood-opacity="0" result="BackgroundImageFix"/>
      <feColorMatrix in="SourceAlpha" type="matrix" values="0 0 0 0 0 0 0 0 0 0 0 0 0 0 0 0 0 0 127 0" result="hardAlpha"/>
      <feOffset dy="2"/>
      <feGaussianBlur stdDeviation="2"/>
      <feComposite in2="hardAlpha" operator="out"/>
      <feColorMatrix type="matrix" values="0 0 0 0 0 0 0 0 0 0 0 0 0 0 0 0 0 0 0.4 0"/>
      <feBlend mode="normal" in2="BackgroundImageFix" result="effect1_dropShadow_1190_678"/>
      <feBlend mode="normal" in="SourceGraphic" in2="effect1_dropShadow_1190_678" result="shape"/>
    </filter>
  </defs>
</svg>