<svg xmlns="http://www.w3.org/2000/svg" width="225" height="66" viewBox="0 0 225 66" fill="none">
  <g clip-path="url(#clip0_1111_127)">
    <path d="M0 0.594849H42.8722C49.8968 0.594849 56.4392 3.10813 57.0234 8.70845C57.6392 14.5904 55.6684 16.7516 52.6489 17.8076V17.9132C56.2843 18.9692 58.2762 23.8304 57.7695 28.5859C57.1043 34.855 50.0798 37.5548 43.3016 37.5548H0V0.594849ZM41.1055 15.2768C43.4424 15.2768 48.6685 15.2768 48.6685 10.7113C48.6685 6.24093 43.8963 6.24093 41.6757 6.24093H9.76256V15.2768H41.1055ZM42.0698 31.7644C44.1462 31.7644 49.0099 31.7644 49.0099 26.9808C49.0099 21.4297 44.0899 21.4297 41.285 21.4297H10.1004V31.7644H42.0698Z" fill="#EFEFEF"/>
    <path d="M61.1058 0.527954H70.5305V32.208H86.0401V37.488H61.1022V0.527954H61.1058Z" fill="#EFEFEF"/>
    <path d="M101.88 0.594849H118.4L131.038 37.5548H118.844L116.626 30.2156V30.3212H102.767L100.55 37.5548H89.2426L101.88 0.594849ZM115.183 25.3052L109.753 7.03645H109.531L104.21 25.3052H115.183Z" fill="#EFEFEF"/>
    <path d="M189.67 0.527954H200.407V16.104L214.069 0.527954H224.803L212.017 14.0976L224.996 37.488H213.773L204.697 21.0144L200.404 25.7136V37.488H189.666V0.527954H189.67Z" fill="#EFEFEF"/>
    <path d="M0 41.0045H8.75956L15.5518 55.7533H15.6785V41.0045H21.8971V65.6445H14.7248L6.34883 47.6573H6.22214V65.6445H0V41.0045Z" fill="#EFEFEF"/>
    <path d="M24.2304 59.8048V46.8512C24.2304 42.9088 28.4008 40.656 36.0342 40.656C43.6676 40.656 47.838 42.9088 47.838 46.8512V59.8048C47.838 63.7472 43.6676 66 36.0342 66C28.4008 66 24.2304 63.7472 24.2304 59.8048ZM40.0603 60.0512V46.6048C40.0603 44.8448 38.5048 44.176 36.0307 44.176C33.5566 44.176 32.0011 44.8448 32.0011 46.6048V60.0512C32.0011 61.8112 33.5566 62.48 36.0307 62.48C38.5048 62.48 40.0603 61.8112 40.0603 60.0512Z" fill="#EFEFEF"/>
    <path d="M47.1693 41.0045H54.6338L59.4763 60.1181H59.6101L64.4526 41.0045H71.2449L64.1183 65.6445H54.303L47.1764 41.0045H47.1693Z" fill="#EFEFEF"/>
    <path d="M72.8603 41.0045H109.697V44.5245H82.8481V51.0365H104.911V54.5565H82.8481V62.1245H109.697V65.6445H72.8603V41.0045Z" fill="#EFEFEF"/>
    <path d="M112.174 41.0045H121.567L125.755 58.6397H125.875L130.063 41.0045H139.456V65.6445H133.234V46.9885H133.114L128.328 65.6445H122.824L118.038 46.9885H117.918V65.6445H112.174V41.0045Z" fill="#EFEFEF"/>
    <path d="M141.086 41.0045H151.556C158.745 41.0045 161.835 42.8701 161.835 46.6717V47.6573C161.835 50.1917 160.449 51.7757 157.359 52.4797V52.5501C161.079 53.2541 162.532 55.0845 162.532 57.6893V59.8013C162.532 63.6029 158.939 65.6445 151.999 65.6445H141.089V41.0045H141.086ZM150.736 51.0365C153.322 51.0365 154.899 50.4029 154.899 48.4317V47.0589C154.899 45.2989 153.825 44.5245 151.365 44.5245H148.022V51.0365H150.736ZM151.995 62.1245C154.329 62.1245 155.589 61.5261 155.589 59.6957V57.5485C155.589 55.2605 154.265 54.5565 151.112 54.5565H148.022V62.1245H151.995Z" fill="#EFEFEF"/>
    <path d="M164.475 41.0045H183.486V44.5245H171.443V51.0365H181.012V54.5565H171.443V62.1245H183.486V65.6445H164.475V41.0045Z" fill="#EFEFEF"/>
    <path d="M185.686 41.0045H204.588C217.81 41.0045 223.49 42.8701 223.49 46.6717V48.1853C223.49 50.7197 220.823 52.3389 215.139 53.0429V53.1133C221.516 53.7117 223.603 55.5421 223.603 58.3229V62.6525C223.603 63.8493 223.719 64.7293 224.993 65.6445H215.526C214.829 65.0109 214.365 64.6237 214.365 62.6173V58.1117C214.365 55.8237 212.162 55.0845 206.362 55.0845H194.91V65.6445H185.675V41.0045H185.686ZM206.605 51.5645C211.359 51.5645 214.259 50.9309 214.259 48.9597V47.0589C214.259 45.2989 212.288 44.5245 207.766 44.5245H194.924V51.5645H206.608H206.605Z" fill="#EFEFEF"/>
    <path d="M186.154 12.9888V9.0816C186.154 3.3792 176.627 0 158.594 0C140.561 0 132.196 1.86208 131.038 9.0816C129.982 15.6464 130.214 24.6189 131.038 28.9344C132.319 35.6541 140.565 38.016 158.594 38.016C176.624 38.016 186.154 34.6368 186.154 28.9344V23.7072H173.981V24.8723C173.981 29.1984 170.444 32.736 166.118 32.736H150.359C146.034 32.736 142.497 29.1984 142.497 24.8723V12.9043C142.497 8.57824 146.034 5.04064 150.359 5.04064H166.118C170.444 5.04064 173.981 8.57824 173.981 12.9043V12.9888H186.154Z" fill="#EFEFEF"/>
  </g>
  <defs>
    <clipPath id="clip0_1111_127">
      <rect width="225" height="66" fill="white"/>
    </clipPath>
  </defs>
</svg>