<?xml version="1.0" encoding="UTF-8"?>
<svg id="Camada_1" data-name="Camada 1" xmlns="http://www.w3.org/2000/svg" version="1.1" viewBox="0 0 1920 1080">
  <defs>
    <style>
      .cls-1 {
        fill: #efefef;
        stroke-width: 0px;
      }
    </style>
  </defs>
  <path class="cls-1" d="M1698.2,515.9h-67.8v-11.1c3.4-.9,74.1-1.1,81.3-.2v86.6c-3.3.9-6.7.4-10.6.3-.2-13.6-.4-26.9-.6-40.3-.2,0-.4-.2-.6-.3-.8,1.5-1.6,3-2.4,4.4-7.4,14.3-18.2,25.3-32.8,32.2-14.2,6.6-29.1,8.4-44.6,6.4-16.2-2.1-30.7-7.8-43.6-17.9-15-11.8-24.8-27-29.9-45.4-2.8-10.1-3.7-20.5-2.8-30.9,1.4-16.5,6.7-31.7,16.6-45.1,13.2-17.9,30.8-29.4,52.4-33.8,26.4-5.4,51-.8,72.7,15.8,13.2,10.1,22,23.3,26.2,39.7-4.4.8-8.7.3-13.2.4-.5-1.2-1.1-2.4-1.5-3.6-6.1-17.3-18.1-29.1-34.6-36.5-11.7-5.2-24.1-7.1-36.8-6-33.6,3.1-59.4,26-66.8,57-4.3,18.2-3,35.9,5.1,52.9,10,20.8,26.3,34,48.5,39.7,16.7,4.2,33.2,3.2,48.9-4.5,11.1-5.4,19.5-13.5,25.9-23.9,6.5-10.6,10-22.2,11.4-34.5,0-.3-.2-.6-.5-1.6Z"/>
  <path class="cls-1" d="M1508.7,507c.1,48.5-39.4,87.8-88.7,87.6-49.7-.2-88.2-40.1-88-88.3.2-47.4,37.9-87.8,88.7-87.5,51.4.2,88.5,41.4,87.9,88.3ZM1420.3,430.5c-40.2,0-75.7,31.6-75.6,76.3,0,44.6,35.5,75.8,75.5,75.9,40.9,0,76-31.8,75.9-75.9-.1-45.6-36.2-76.3-75.7-76.2Z"/>
  <path class="cls-1" d="M162.5,534.5h12.6c0,2.7-.9,5-1.7,7.3-9.4,27-28.4,43.8-55.9,50.6-21.3,5.2-42.3,3.2-62.1-7-20.1-10.3-34.2-26.1-42.2-47.2-3.3-8.5-4.9-17.3-5.4-26.4-1.4-23.3,5.2-44,20-61.9,11.4-13.8,26-23.1,43.3-27.8,23.8-6.4,46.9-4.4,68.5,7.8,18.6,10.5,30.2,26.6,35.5,47.2,0,.3,0,.7,0,1.3h-12.5c-1.1-2.8-2.1-5.6-3.2-8.4-7.9-18.9-22-30.7-41.4-36.6-9.3-2.8-18.8-3.8-28.3-2.8-24.9,2.4-44.5,13.7-57.9,35.1-8.9,14.2-12.6,29.9-11.3,46.5,2.6,33.8,25.1,61.8,59,69,20.5,4.4,40.3,1.7,58.1-10.5,11.6-8,19.3-18.9,23.7-32.2.4-1.3.9-2.5,1.4-4Z"/>
  <path class="cls-1" d="M1912.4,591.4h-13.4c-8.2-17.8-16.4-35.9-24.7-53.9h-92.1c-8.2,18-16.4,36-24.6,53.9h-13.4c26.1-56.7,52.1-113.1,78.1-169.6h12.3c25.8,56.2,51.7,112.7,77.8,169.6ZM1869.3,526c-13.8-30.1-27.2-59.6-40.8-89.3-6.7,12.6-39.4,85.2-40.2,89.3h81.1Z"/>
  <path class="cls-1" d="M892.9,492.6v-14.3c4.1-1.3,7.9-.3,11.9-.7v113.8h-11.6v-14.6c-1.2.9-2,1.4-2.7,2-22.1,20.9-58.6,21.2-81.2,1.3-11.1-9.8-17.6-22-19.9-36.7-4.3-26.6,11.1-56.6,40.3-65.7,21.9-6.8,42.3-3.3,60,12.2.8.7,1.7,1.4,3.2,2.7ZM893,508.9c-13.5-20.7-37.6-27.4-58.4-20.8-21.3,6.8-33.7,26.7-33.3,47.6.3,19.9,13,39.1,34.1,45.5,22.1,6.7,46.3-2.3,57.7-20.9v-51.4Z"/>
  <path class="cls-1" d="M623.2,538.3h-101c-1.1,3.1,0,5.9.7,8.5,4.4,17.7,14.6,30.3,32.8,35.2,10.8,2.9,21.6,2.2,32-1.8,7.1-2.7,12.9-7.1,16.6-13.9.3-.6.8-1.1,1.2-1.7h12.9c-1.3,5.1-4,8.9-7.2,12.5-7.7,8.8-17.6,13.8-28.9,16.1-11.7,2.4-23.3,2-34.6-2.1-20.3-7.4-32.4-22.1-37-42.8-3.1-13.7-1.9-27.4,4.1-40.3,8.2-17.5,21.7-28.6,40.9-32.3,10.2-2,20.4-1.7,30.3,1.5,17.3,5.6,28.6,17.5,34.3,34.7,2.8,8.3,3.6,17,2.9,26.4ZM521.9,528.8c.8.2,1.3.4,1.7.4,28.8,0,57.7,0,86.5,0,.1,0,.3-.1.4-.2.1,0,.3-.2.5-.4,0-.7,0-1.6,0-2.4-.2-2-.5-4-.9-5.9-2.5-12.6-8.5-22.9-20-29.2-8.9-4.9-18.3-6.6-28.6-5.2-15.1,2.1-26,9.9-33.5,22.8-3.6,6.2-5.3,13-6.2,20.4Z"/>
  <path class="cls-1" d="M263.8,474.5c24.9.1,40.3,6.4,52.4,19.9,8.1,9,12.4,19.6,14.2,31.5,1.6,10.9.3,21.4-3.7,31.5-6.6,16.5-18.4,27.8-35.2,33.5-18.8,6.4-37.1,4.6-54-5.7-15.6-9.5-24.6-23.8-27.1-42-2.9-21.3,3.3-39.5,19.3-53.8,11.6-10.4,25.5-15,34.1-15ZM222.2,534.7c-.2,10.6,2.8,20.2,8.9,28.8,8,11.2,19,17.5,32.7,19.4,14.8,2,28.1-1.7,39-11.8,14.3-13.2,18.6-29.8,14.3-48.5-7.4-32.7-44.1-46.2-71.5-30.1-15.9,9.3-23.3,23.9-23.5,42.3Z"/>
  <path class="cls-1" d="M1002.8,474.5c22.9.2,40.1,8.2,52.1,25.6,9,13,12.1,27.7,9.7,43.5-3.2,21.4-14.7,36.7-34.2,45.7-11,5.1-22.7,6.3-34.8,4.6-12.7-1.9-23.7-6.9-33-15.6-10.8-10.2-16.8-22.7-18.2-37.5-1-10.7.3-21.1,4.8-30.9,8.4-18.6,22.8-29.7,42.6-34,4.2-.9,8.6-1.1,11-1.4ZM1004.9,485.8c-27.3-.3-48.5,21.4-48.4,49,.1,26.9,20.2,48.5,48.3,48.6,27.6,0,48.3-20.8,48.4-48.5,0-29.3-22.2-49.4-48.2-49.1Z"/>
  <path class="cls-1" d="M1239.4,591.5h-12.1c-.2-.2-.3-.3-.4-.4,0-.1-.2-.3-.3-.4,0-.3,0-.7,0-1,0-20,0-39.9,0-60.3-23.5-35.5-47.1-71.2-71-107.4,4.9-.9,9.2-.3,13.8-.5,21,31.8,42,63.7,63.4,96.1,21.3-32.2,42.4-64,63.4-95.8h13.9c-2.8,4.3-5.4,8.2-7.9,12.1-20.2,30.6-40.4,61.3-60.6,91.9-1.6,2.4-2.2,4.7-2.2,7.5,0,17.6,0,35.2,0,52.8v5.4Z"/>
  <path class="cls-1" d="M475.8,591.5h-11.7v-4.5c0-19.8.1-39.6,0-59.4,0-5.1-.6-10.4-1.8-15.4-3.6-15.5-14.5-24.4-29.6-26-20.6-2.2-37.3,5.5-50.1,22.1v83.2h-11.7v-113.4h11.8v14c4.5-3.2,8.4-6.4,12.6-9,8.1-5.1,17.1-7.5,26.6-8.1,8.9-.6,17.7-.2,26.2,3.3,11.8,4.9,19.7,13.4,24.3,25.3,2.8,7.3,3.5,15,3.6,22.7.2,21.1,0,42.3,0,63.4,0,.5-.1,1-.2,2Z"/>
  <path class="cls-1" d="M762.7,591.5h-14.9c-13.6-15.8-27.4-31.8-41.5-48.2-5,5-9.2,10.6-13.7,15.8-4.8,5.4-9.5,10.9-14.2,16.4-4.6,5.3-9.2,10.7-13.8,16h-14.7c16.3-19.2,32.2-37.9,48.2-56.8-15.7-18.9-31.1-37.5-46.8-56.4,2.5-1.1,4.8-.5,7-.6,2.3-.1,4.7,0,7.4,0,13.3,15.8,26.6,31.6,40.3,47.9,13.7-15.9,26.8-32,40.3-47.7h14.9c-15.9,19.3-31.4,38-47.1,57.1,16,18.7,32,37.3,48.5,56.6Z"/>
  <path class="cls-1" d="M882.1,425.6h9.6c-.2,6.7-1.5,12.8-6.8,17.2-6.3,5.2-13.5,5.7-20.7,2.8-4-1.6-7.5-4.3-11.2-6.5-3.3-2-6.4-4.4-9.9-5.8-6.6-2.5-13.1,0-14.8,7.4-.2.8-.4,1.6-.7,3h-9.1c-1.2-11,6.4-20.1,17-21.1,5.1-.5,10,.5,14.5,3.2,4.3,2.6,8.5,5.4,12.6,8.2,2.9,1.9,6,2.9,9.5,2.9,4.8,0,7.8-2.3,9.2-7,.4-1.3.6-2.6,1-4.3Z"/>
  <path class="cls-1" d="M1627.1,670.2h2.9c.1.6.4,1.1.3,1.4-1.5,6-5.2,10.5-10.3,13.6-9.2,5.5-18.8,5.8-28.2.7-9.5-5.2-14.5-13.5-14.9-24.5-.4-12.3,7.7-24.6,21-27.8,13.6-3.3,26.5,1.8,31.6,13.8.5,1.2.8,2.5,1.3,4.1-1.5.1-2.5.2-3.8.3-2.2-6.2-5.9-11-12-13.6-5.3-2.2-10.7-2.5-16.2-1-12.5,3.4-18.2,15-17.8,24.4.4,10.7,7.1,20.6,19.2,23.4,11.6,2.7,21.2-2.7,27-14.8Z"/>
  <path class="cls-1" d="M1367.9,656.2c5.5-4.8,11.7-6.4,18.5-5.1,4.1.8,7.5,2.8,10.2,6,6.5,7.6,6.5,18.3,0,25.7-7,8-16.6,8.5-28.4,1.5-.3,1.3-.5,2.5-.8,3.8h-3c-.2-18.9,0-37.8,0-56.9,1.2,0,2-.1,2.6-.2.3.3.6.4.6.5.2,8,.4,16,.6,24.6ZM1367.8,677.8c5.1,6.9,12.1,9.4,19,7,6.3-2.2,10.8-8.5,10.7-14.9,0-7-4.5-12.9-11.3-14.9-7.3-2.3-13.8.3-18.5,7.2v15.7Z"/>
  <path class="cls-1" d="M1094.8,684v22.5c-1.1,0-1.9,0-2.6.1-1-3.5-1.3-46.3-.5-54.9.7-.1,1.5-.3,2.6-.5.3,1.6.6,3,.9,4.4,8.4-4.5,13-5.6,18.4-4.5,4.6,1,8.3,3.6,11.1,7.2,5.5,7,5.2,17.4-.7,24.1-7.2,8.3-16.6,8.9-29.2,1.6ZM1095,677.9c5,6.9,11.9,9.3,19.1,6.8,6.2-2.1,10.9-8.5,10.6-15-.3-7.9-5.5-13.5-11.7-15.2-6.9-1.8-13.5.8-18.1,7.6,0,4.6,0,9.3,0,14,0,.5,0,1,.1,1.7Z"/>
  <path class="cls-1" d="M1535.3,656c.2-1.7.4-3,.6-4.7,1.1,0,2,.2,2.7.2,1.1,1.3,1.3,28.5.5,36.5-.9,0-1.8.1-3,.2-.3-1.4-.6-2.6-.9-4.1-.7.4-1.3.6-1.8,1-8.1,5.5-16.5,5.5-23.8.2-5.8-4.2-9.9-13.3-6.4-22.4,3.1-8,10.8-12.7,19.3-12.2,4.7.3,8.7,2.2,12.8,5.3ZM1535.5,662.1c-3.7-6.8-12.6-9.6-19.4-7.1-6,2.2-10.4,7.5-10.3,15.1,0,7.9,4.9,12.8,11.4,14.8,7,2.1,14.1-.8,18.3-7.5v-15.4Z"/>
  <path class="cls-1" d="M1344.1,656.1c.2-1.8.4-3.1.5-4.7,1.1,0,2.1.1,2.7.2,1.2,1.1,1.5,26.8.6,36.5-.9,0-1.8.2-3.1.3-.3-1.3-.6-2.5-.9-3.9-.4.1-.9,0-1.2.3-3.8,3-8.1,4.6-13,4.5-10.5-.2-19.6-9.1-18.9-20.9.5-8.6,8.6-18.8,21-17.6,4.6.4,8.3,2.1,12.3,5.3ZM1344.3,661.7c-5.1-7.9-16.6-10.8-24.8-3.2-6.6,6.2-6.1,17.2.6,23.3,6.3,5.8,19.2,4.9,24.2-3.6v-16.5Z"/>
  <path class="cls-1" d="M1676.5,656c.4-1.8.6-2.9.8-4.3,1-.1,1.9-.2,2.6-.3,1.1,1,1.4,22.1.8,36.5-1,.1-2.1.2-3.3.4-.3-1.3-.5-2.4-.7-3.5-.4,0-.8-.1-1,0-5.9,4.5-12.4,5.8-19.4,3.4-9-3.1-14.5-13-12.4-22,2.3-10,10.6-16.1,20.5-15.4,4.5.3,8.4,1.9,12.1,5.3ZM1676.8,661.3c-5.8-8.3-17.5-9.6-24.5-2.8-7.2,7.1-5.7,17.4.1,22.9,6.6,6.3,19.4,5.3,24.3-3.2v-17Z"/>
  <path class="cls-1" d="M1894,655.9c.3-1.5.5-2.8.7-4.3,1.1-.1,2-.2,2.7-.3,1,1,1.3,24.3.6,36.6-1,0-2.1.2-3.4.3-.2-1.3-.4-2.4-.7-3.6-.3,0-.7-.2-.8,0-2.7,2-5.6,3.5-9,4.2-10.3,2.2-21.4-4.9-23-15.2-2.2-13.6,7.5-21.8,16-22.9,6.3-.8,11.8.8,16.8,5ZM1894.2,661.9c-3.8-6-10.6-9-17-7.4-6.9,1.7-11.8,7.4-12.2,14.1-.4,7.4,3.1,13.3,9.7,15.9,7.1,2.9,14,.7,19.6-6.2v-16.4Z"/>
  <path class="cls-1" d="M1450,671.1h-31.7c-.9,3.1.5,5.2,1.6,7.3,1.5,2.7,3.7,4.7,6.6,6,6.1,2.7,13.1,1,18.7-4.9h3.6c-2.2,5.8-6.7,8.3-12.2,9.4-9.5,2-18.8-3.4-21.8-12.6-3.2-9.7,1.1-20.4,9.9-24.1,6.4-2.7,12.9-2.5,18.6,1.8,5.6,4.1,7.6,9.9,6.7,17.1ZM1418.1,667.9h27.8c.4-7.7-4.6-13.4-12-13.8-8.7-.6-14.8,4.7-15.8,13.8Z"/>
  <path class="cls-1" d="M1828.4,671.2h-31.4c-.8,5.7,2.2,10.7,7.8,13.2,6.5,2.9,13.4,1.2,18.6-4.8.5,0,1.2-.1,1.8,0,.5,0,.9.3,1.5.5-.5,3.2-2.7,5-5.2,6.4-6.6,3.9-13.4,4.1-20.1.4-6.3-3.5-9.1-9.1-9.3-16.2-.2-7,2.1-12.9,8.1-16.8,6.4-4.2,13.3-4.2,20-.7,5.9,3.1,8.8,9.9,8,18.1ZM1824.6,668c.3-9-7.2-14.7-15.1-13.9-7.3.7-13.1,7-12.5,13.9h27.6Z"/>
  <path class="cls-1" d="M1140.7,669.9c-.4-9.4,6.4-19.3,19.4-19.3,13.1,0,19.4,10,19.4,19.4,0,10.8-8.3,19.3-19.5,19.3-11.5,0-19.8-9.1-19.3-19.4ZM1160.3,685.5c8.8,0,15.4-6.8,15.5-15.6,0-8.7-6.8-15.6-15.5-15.8-6.8-.1-15.7,5.2-15.6,16,0,8.5,7.2,15.9,15.6,15.4Z"/>
  <path class="cls-1" d="M1298,661.8h-3.2c-1.3-3.1-2.9-6-6.5-7-3.8-1.1-7.6-1.2-11.4-.1-4.4,1.3-5.4,3.3-4.7,8.4,1.8,2.9,4.7,3.6,7.7,4.2,3.8.7,7.6,1.2,11.3,2.2,4.8,1.4,7.2,5.1,7,9.8-.2,3.3-1.6,5.8-4.5,7.4-7,3.9-14.1,3.7-21.2.4-3.5-1.6-5-4.3-6.3-9.4,1,0,2-.1,2.9-.2.3.5.7.9.9,1.3,2.4,6,7.6,7.1,13.1,7.3,1.8,0,3.7-.4,5.4-.8,3.6-.8,5.7-3.4,5.7-6.7,0-3.1-1.7-5.3-5.5-6.2-3.4-.8-6.9-1.3-10.3-2-1.6-.3-3.3-.6-4.8-1.3-3.3-1.3-5.6-3.6-5.8-7.4-.2-3.9,1.4-6.7,4.7-8.8,2.5-1.6,5.3-2.2,8.2-2.1,3.4.1,7,.5,10.3,1.6,4,1.4,6.5,4.5,7.1,9.5Z"/>
  <path class="cls-1" d="M1708.7,706.7c-1.4,0-2.5-.2-4.1-.3,2.6-5.6,4.9-10.7,7.4-16.1-6.2-12.6-12.4-25.3-18.9-38.5,1.6-.2,2.6-.3,3.9-.4,5.6,11.4,11.1,22.5,17,34.5,5.6-12,10.9-23.2,16.1-34.5h3.5c0,.6,0,1.1,0,1.5-6.7,14.6-13.5,29.2-20.2,43.7-1.5,3.2-2.9,6.4-4.6,10Z"/>
  <path class="cls-1" d="M1774.5,651.5h3.1c.9.9,1.2,24.3.5,36.4-1,.1-2.1.2-3.4.4-.2-1.7-.4-3.1-.6-4.8-3.8,3.5-8,5.4-12.8,5.7-9.7.6-16.5-5.3-16.9-15-.3-7.4,0-14.7,0-22.4,1.1-.1,2.2-.3,3.3-.4.2.7.5,1.2.5,1.6,0,6.2,0,12.4,0,18.6,0,1.7,0,3.4.4,5,2.3,8,8.1,10.3,16.6,8.3,3.7-.9,6.6-3.1,9.3-6.7v-26.6Z"/>
  <path class="cls-1" d="M1843.2,631.2h3.4v56.7c-.9.1-2,.3-3,.4-.8-3.9-1.1-49-.3-57.1Z"/>
  <path class="cls-1" d="M1487.8,688.1h-3.3v-56.9c1.2,0,2.1,0,3,0,.8,3.6,1.1,47.8.3,56.9Z"/>
  <path class="cls-1" d="M1467.9,688.1h-3.4v-56.9h3c.9,3.6,1.2,45.3.4,56.9Z"/>
  <path class="cls-1" d="M1248.2,633.9h2.8c.9,3.9,1.2,39.6.5,54-1,.1-2.1.3-3,.4-1.2-1.1-1.3-48.6-.3-54.4Z"/>
  <path class="cls-1" d="M1197.4,688.1h-3.7v-36.3c1.1-.2,2-.3,3.3-.6.2,2.3.4,4.4.6,6.6q7-6.1,14.3-7.4c.2,1,.4,2,.6,3.4-6.7,1-11.8,4-15.1,10.6v23.7Z"/>
</svg>