<svg width="40" height="40" viewBox="0 0 40 40" fill="none" xmlns="http://www.w3.org/2000/svg">
<path d="M20 11.355C22.821 11.355 23.1547 11.3651 24.2669 11.4157C25.2983 11.4662 25.8544 11.6381 26.2285 11.7797C26.724 11.9718 27.0677 12.2044 27.4419 12.5684C27.816 12.9425 28.0384 13.2863 28.2305 13.7817C28.3721 14.1558 28.544 14.7119 28.5945 15.7433C28.6451 16.8555 28.6552 17.1892 28.6552 20.0102C28.6552 22.8313 28.6451 23.1649 28.5945 24.2772C28.544 25.3085 28.3721 25.8646 28.2305 26.2387C28.0384 26.7342 27.8059 27.078 27.4419 27.4521C27.0779 27.8161 26.724 28.0486 26.2285 28.2408C25.8544 28.3823 25.2983 28.5542 24.2669 28.6048C23.1547 28.6553 22.821 28.6654 20 28.6654C17.179 28.6654 16.8453 28.6553 15.7331 28.6048C14.7017 28.5542 14.1456 28.3823 13.7715 28.2408C13.276 28.0486 12.9323 27.8161 12.5581 27.4521C12.184 27.078 11.9616 26.7342 11.7695 26.2387C11.6279 25.8646 11.456 25.3085 11.4055 24.2772C11.3549 23.1649 11.3448 22.8313 11.3448 20.0102C11.3448 17.1892 11.3549 16.8555 11.4055 15.7433C11.456 14.7119 11.6279 14.1558 11.7695 13.7817C11.9616 13.2863 12.1941 12.9425 12.5581 12.5684C12.9323 12.1942 13.276 11.9718 13.7715 11.7797C14.1456 11.6381 14.7017 11.4662 15.7331 11.4157C16.8453 11.3651 17.179 11.355 20 11.355ZM20 9.4541C17.1385 9.4541 16.7745 9.46421 15.6522 9.51477C14.5298 9.56532 13.7614 9.74733 13.094 10.0102C12.3964 10.2832 11.8099 10.6371 11.2235 11.2236C10.637 11.81 10.273 12.3965 10.0101 13.0941C9.74723 13.7615 9.57534 14.5299 9.52478 15.6523C9.47422 16.7746 9.46411 17.1386 9.46411 20.0001C9.46411 22.8616 9.47422 23.2256 9.52478 24.3479C9.57534 25.4703 9.75734 26.2387 10.0101 26.9061C10.2831 27.6037 10.637 28.1902 11.2235 28.7766C11.8099 29.3631 12.3964 29.7271 13.094 29.99C13.7614 30.2529 14.5298 30.4248 15.6522 30.4854C16.7745 30.536 17.1385 30.5461 20 30.5461C22.8615 30.5461 23.2255 30.536 24.3478 30.4854C25.4702 30.4349 26.2386 30.2529 26.906 29.99C27.6036 29.717 28.1901 29.3631 28.7765 28.7766C29.363 28.1902 29.727 27.6037 29.9899 26.9061C30.2528 26.2387 30.4247 25.4703 30.4853 24.3479C30.5359 23.2256 30.546 22.8616 30.546 20.0001C30.546 17.1386 30.5359 16.7746 30.4853 15.6523C30.4348 14.5299 30.2528 13.7615 29.9899 13.0941C29.7169 12.3965 29.363 11.81 28.7765 11.2236C28.1901 10.6371 27.6036 10.2731 26.906 10.0102C26.2386 9.74733 25.4702 9.57544 24.3478 9.51477C23.2255 9.46421 22.8615 9.4541 20 9.4541Z" fill="#EFEFEF"/>
<path d="M19.9999 14.5806C17.007 14.5806 14.5803 17.0073 14.5803 20.0002C14.5803 22.9931 17.007 25.4198 19.9999 25.4198C22.9929 25.4198 25.4196 22.9931 25.4196 20.0002C25.4196 17.0073 22.9929 14.5806 19.9999 14.5806ZM19.9999 23.5189C18.0586 23.5189 16.4812 21.9415 16.4812 20.0002C16.4812 18.0588 18.0586 16.4815 19.9999 16.4815C21.9413 16.4815 23.5186 18.0588 23.5186 20.0002C23.5186 21.9415 21.9413 23.5189 19.9999 23.5189Z" fill="#EFEFEF"/>
<path d="M26.896 14.3679C26.896 15.0656 26.3297 15.6318 25.6321 15.6318C24.9344 15.6318 24.3682 15.0656 24.3682 14.3679C24.3682 13.6702 24.9344 13.104 25.6321 13.104C26.3297 13.104 26.896 13.6702 26.896 14.3679Z" fill="#EFEFEF"/>
</svg>
