<svg width="28" height="28" viewBox="0 0 28 28" fill="none" xmlns="http://www.w3.org/2000/svg">
<g id="Plus">
<path id="Vector" d="M24.5 14C24.5 14.2321 24.4078 14.4546 24.2437 14.6187C24.0796 14.7828 23.8571 14.875 23.625 14.875H14.875V23.625C14.875 23.8571 14.7828 24.0796 14.6187 24.2437C14.4546 24.4078 14.2321 24.5 14 24.5C13.7679 24.5 13.5454 24.4078 13.3813 24.2437C13.2172 24.0796 13.125 23.8571 13.125 23.625V14.875H4.375C4.14294 14.875 3.92038 14.7828 3.75628 14.6187C3.59219 14.4546 3.5 14.2321 3.5 14C3.5 13.7679 3.59219 13.5454 3.75628 13.3813C3.92038 13.2172 4.14294 13.125 4.375 13.125H13.125V4.375C13.125 4.14294 13.2172 3.92038 13.3813 3.75628C13.5454 3.59219 13.7679 3.5 14 3.5C14.2321 3.5 14.4546 3.59219 14.6187 3.75628C14.7828 3.92038 14.875 4.14294 14.875 4.375V13.125H23.625C23.8571 13.125 24.0796 13.2172 24.2437 13.3813C24.4078 13.5454 24.5 13.7679 24.5 14Z" fill="#EFEFEF"/>
</g>
</svg>
