<?xml version="1.0" encoding="UTF-8"?>
<svg id="Camada_1" data-name="Camada 1" xmlns="http://www.w3.org/2000/svg" version="1.1" viewBox="0 0 1920 1080">
  <defs>
    <style>
      .cls-1 {
        fill: #efefef;
        stroke-width: 0px;
      }
    </style>
  </defs>
  <path class="cls-1" d="M338.1,584.1h12.3c.3.6.7,1.2.8,1.8,3.2,10.7,10.2,18.2,20.2,22.6,15.5,6.7,31.5,7.1,47.1.4,12.6-5.4,20-15.5,21.5-29,1.2-10.8.9-21.8,1.4-34-2.1,1.7-3.3,2.8-4.6,3.7-19.5,14.9-41,19.4-64.2,10.8-21.2-7.9-33.2-24-36.8-46.2-2.7-16.9.9-32.5,11.1-46.3,9.8-13.3,23.1-20.9,39.5-22.8,19.6-2.2,37,2.9,52,16,.5.4,1.1.7,1.7,1.1.1,0,.3,0,.9,0v-14.3h12c0,1.6.2,3.1.2,4.5,0,39.4,0,78.9,0,118.3,0,10.1-1.7,19.8-6.6,28.7-7,12.5-17.9,19.9-31.6,23.3-16.5,4.1-32.8,3.3-48.4-3.6-14.4-6.3-24.1-16.9-28-32.4-.2-.6-.2-1.3-.4-2.5ZM441.1,479c-1.9-2.3-3.7-4.6-5.6-6.7-9.2-9.7-20.6-15.2-33.7-16.6-19.5-2-35.4,4.7-46.3,21.5-6.2,9.6-8.3,20.5-7.4,31.9,1,12.8,6.1,23.7,15.5,32.4,10,9.1,21.9,12.8,35.3,11.9,16.5-1,30-7.9,40.3-20.9,1.2-1.5,1.9-3.1,1.8-5.1,0-16,0-32,0-48.4Z"/>
  <path class="cls-1" d="M1101.2,447.6h11.7c0,4.9,0,9.7.1,14.9,31.2-28.7,72.6-18.3,90.4,2.2,19.6,22.5,20.8,56.5,1.9,79.4-11.7,14.1-26.9,21.6-45.2,22.3-18,.7-33.7-5.2-47.2-18.4,0,13.1,0,25.2,0,37.3s0,24.2,0,36.5h-11.4c-.9-3.5-1.3-163.9-.4-174.2ZM1113,505.5c0,7.6.1,15.2,0,22.7,0,2.9.8,5.1,2.6,7.3,13,15.8,29.7,22,49.8,19,23.7-3.5,45.8-26.9,39.9-58.7-5-27-29.8-42.8-54.3-39.8-15.1,1.8-27,8.7-36.1,20.7-1.3,1.7-1.9,3.4-1.9,5.6,0,7.7,0,15.5,0,23.2Z"/>
  <path class="cls-1" d="M1605.1,462.9v-15.2h11.4s.2.1.3.3c.1.1.3.3.3.4,0,56.8.1,113.5.2,170.3,0,1,0,2,0,3.2h-12v-73.5c-1.5,1.2-2.6,2-3.5,2.8-32.9,29.2-90.3,16.2-101.1-32.7-7.5-33.6,14.2-67.9,50.7-73,19.2-2.7,36.8,1.9,51.3,15.6.5.4,1,.8,2.5,1.9ZM1605,479.5c-12.3-19-33.8-27.2-54.1-22.7-36.2,7.9-49.6,49.1-30.3,77.3,19.9,29.2,62.9,27.8,82.9.2,1.2-1.6,1.6-3.2,1.6-5.2,0-16.5,0-33,0-49.6Z"/>
  <path class="cls-1" d="M599.1,463v-15.4h11.3c0,0,.2.2.3.3.1.1.2.3.2.4,0,36.7.1,73.4.2,110.1,0,1.5,0,3,0,4.7h-12v-14.9c-1.5,1.2-2.5,2-3.4,2.7-14.4,12.6-31.3,17.3-50.1,14.7-19.6-2.7-34.6-12.7-44.4-29.8-20.4-35.7-.9-82.4,41.8-90.4,19.9-3.7,38.1,1.1,53.4,15.1.6.6,1.2,1.1,2.7,2.4ZM598.9,479.3c-12.9-20.2-36.5-27.2-57.5-21.4-21,5.8-35.3,25-35.5,46.8-.3,22.4,13.4,41.7,34.4,48.1,21.1,6.5,46-1,58.6-20.8v-52.8Z"/>
  <path class="cls-1" d="M1358.4,447.6h11.9v115.5c-3.7.8-7.5.3-11.7.3v-15.1c-28.4,27.1-69.2,21.1-89.5-.9-20.7-22.4-22.1-57.5-2.5-80.9,11.6-14,26.7-21.4,44.8-22.1,17.9-.7,33.7,5.2,47.1,18.5v-15.4ZM1358.4,479c-14.3-21.3-38.7-27-58.8-20.8-20.6,6.4-34.2,25.5-34.2,47.3,0,21.9,13.7,40.8,34.4,47.2,20.8,6.5,45.8-.7,58.7-20.7v-53.1Z"/>
  <path class="cls-1" d="M1915.1,536.2c-3,8.3-7.9,14.2-14.2,18.8-13.6,9.9-28.9,12.9-45.5,10.8-10.1-1.3-19.3-4.7-27.4-10.8-15.2-11.5-22.9-27-23.8-45.9-.9-19.6,5-36.6,19.7-49.9,12.7-11.5,27.9-15.8,44.8-14.5,11,.9,21.1,4.3,29.8,11.2,11.1,8.7,17.4,20.3,20.2,34,1.3,6.3,1.5,12.6,1,19.6h-103c.9,11.8,4.6,21.9,12,30.4,11.3,12.8,25.9,16.9,42.4,15,8.3-.9,16.2-3.4,22.6-9.1,3.1-2.8,5.6-6.2,8.5-9.6h12.8ZM1817,499.6h90.5c0-1.1,0-1.9,0-2.7-.3-2.2-.5-4.3-.9-6.5-2.6-13-9.1-23.7-21.1-29.8-15.1-7.7-30.6-7.5-45.4,1-14.4,8.2-21.1,21.6-23.1,38Z"/>
  <path class="cls-1" d="M178.2,505c0-32.4,24.9-60.8,62.3-60.5,36.1.3,61.3,27.2,60.9,61.8-.3,35.6-27.8,60.5-61.9,60.2-35.9-.3-61.8-27.9-61.3-61.5ZM289,505.7c-.3-3.4-.2-6.8-.9-10-7.4-35.8-43.8-48-70.7-34.5-20.2,10.1-30.2,32.1-25.5,54.8,6.3,30.7,35.5,43.5,59.9,37.7,20.4-4.9,37.3-23.4,37.2-48Z"/>
  <path class="cls-1" d="M929.8,566.7c-26.6-1.5-46.7-12.5-57.1-37.1-14.6-34.6,3.5-76.2,44.9-84,22.4-4.2,42.6,1.6,58.2,18.9,12.3,13.6,16.7,30,14.9,48.1-1.4,13.1-6.4,24.6-15.4,34.4-9.2,10-20.7,16-34,18.4-4,.7-8,.9-11.5,1.3ZM978.7,505.5c-.3-3.2-.2-6.4-.8-9.5-7.1-35.3-42.6-48.2-70-35.2-20.3,9.7-30.9,31.5-26.3,54.9,5.9,29.9,33.9,43.8,59.2,38.2,22.4-4.9,38.2-24.6,38-48.4Z"/>
  <path class="cls-1" d="M85,563.3h-12.7c0-1.7-.2-3.3-.2-4.9,0-17.2-.2-34.4,0-51.5,0-4.6-1.2-8.3-3.7-12.1-21.9-32.9-43.7-65.9-65.5-98.9-.9-1.4-1.7-2.8-2.9-4.7,4.8-.7,9.1-.2,13.9-.4,21.3,32.2,42.6,64.6,64.4,97.6,21.7-32.8,43.1-65.1,64.4-97.3h13.9c-1.1,1.9-1.9,3.3-2.8,4.6-21.9,33.3-43.8,66.6-65.9,99.9-2,3.1-3.1,6.1-3,9.8.2,17.5,0,35,0,52.5,0,1.7,0,3.3,0,5.4Z"/>
  <path class="cls-1" d="M1751.6,548.1c-2.7,2.3-4.9,4.4-7.4,6.1-17.7,12.4-37,15.8-57.5,8.9-15.2-5.1-24.1-16.7-27.8-32.2-1.2-5-1.8-10.3-1.9-15.5-.2-21.6,0-43.1,0-64.7,0-.8.1-1.7.2-2.7,3.8-1.3,7.5-.5,11.8-.6,0,2.1.2,3.9.2,5.7,0,19.9-.1,39.8,0,59.6,0,5.2.6,10.5,1.8,15.5,3.4,14.5,14.4,24.3,29.3,26.2,21.3,2.6,38.1-5.3,51.5-22v-84.8h11.4c1,4.4,1.5,94.2.6,115.4-3.7,1.1-7.5.3-11.5.5-1-4.9,0-9.8-.7-15.3Z"/>
  <path class="cls-1" d="M739.3,563.2h-11.4c-1-3.8-1.1-110.6-.1-115.6h11.4v15c1.5-1.1,2.2-1.6,2.9-2.2,9.5-9,21-13.6,33.9-15.3,8.5-1.1,16.8-.9,25,1.5,17.7,5.3,27.9,17.5,31.6,35.3.9,4.4,1.2,9,1.2,13.5.1,21.4,0,42.8,0,64.2,0,1.1,0,2.3,0,3.6h-12c0-1.8-.1-3.5-.1-5.3,0-20.2,0-40.4,0-60.6,0-5.6-.3-11.1-2-16.5-4.5-14.1-14.3-22.4-28.7-24.3-17.9-2.4-33.6,3-46.5,15.9-.4.4-.7.7-1.1,1.1-3,3-4.2,6.4-4.2,10.8.2,24.4.1,48.9.1,73.3v5.7Z"/>
  <path class="cls-1" d="M1429,563.5c-3.7,0-6.7,0-9.7,0-.6,0-1.3-.2-2.2-.3v-115.5h11.6c.8,6.7,0,13.5.5,21.3,2.8-3.1,4.9-5.8,7.4-8.1,2.7-2.5,5.5-5,8.6-7,2.9-2,6-3.7,9.2-5.1,3.4-1.4,7-2.5,10.6-3.3,3.4-.8,6.9-.9,10.6-1.4v11.6c-3.1.5-6.1.8-9,1.4-16.4,3.4-28,13.2-36.2,27.5-1,1.8-1.2,4.1-1.3,6.3,0,22.2,0,44.5,0,66.7v6.1Z"/>
  <path class="cls-1" d="M1639.3,674.9h3.6c-1.3,6.3-4.6,10.9-9.4,14.2-8.7,6-18.3,6.8-27.8,2.5-9.8-4.4-15.6-12.3-16.7-23-1.5-14.5,7.1-27.1,20.9-30.5,13-3.2,25.6,1.6,31.1,12.6.5,1,1,2.1,1.3,3.3.2.6.1,1.3.2,2.2h-3.3c-6.2-12.7-15.2-17.4-27.7-14.7-10.9,2.4-18.7,12.4-18.7,24,0,11.7,7.9,21.7,19.1,24.2,11.7,2.7,21.3-2.5,27.2-14.8Z"/>
  <path class="cls-1" d="M1375.8,635.6c.7,0,1.5-.1,2.1-.2.3.3.5.4.5.5.2,8,.5,16,.7,24,12.6-7,22.5-6.2,29.2,2.1,6,7.5,5.8,17.9-.4,25.1-7,8.1-17,8.8-28.6,1.7-.3,1.3-.6,2.5-.9,3.8h-2.4c-1.1-.9-1.3-50.2-.3-57.1ZM1378.9,666.3c0,4.7-.1,9.4,0,14.1,0,1.5.8,3.3,1.8,4.5,4,4.9,11.8,6.7,17.9,4.2,6.1-2.4,10.2-8.5,10.1-14.9-.2-6.8-4.5-12.6-11-14.7-7-2.2-13.4,0-18.9,6.9Z"/>
  <path class="cls-1" d="M1104.7,711.2h-2.8c-.9-3.9-1-50.1-.1-55.1.7,0,1.5,0,2.6-.2.3,1.5.5,2.8.7,4.1.5-.1,1-.1,1.3-.4,3.5-2.8,7.5-4.3,12.1-4.4,8.6-.2,15.6,4.3,18.7,12,3.1,7.6,1.1,16.2-4.9,21.7-6,5.4-14.8,6.6-22.1,2.8-1.6-.8-3.1-1.8-5.3-3.2,0,4.3,0,7.9,0,11.5,0,3.7,0,7.3-.1,11.1ZM1104.9,666.4c0,4.6,0,9.2,0,13.7,0,2,.7,3.5,2,5,4.1,4.6,11.6,6.3,17.6,4.1,6.1-2.2,10.3-8.3,10.3-14.8,0-6.5-4.2-12.6-10.2-14.9-7.2-2.7-14.1-.4-19.7,6.8Z"/>
  <path class="cls-1" d="M1547.1,660.4c.2-1.8.4-2.9.6-4.3h3.4c.5,12.1.1,24.1.2,36.5-1.2.1-2.1.2-3.3.3-.3-1.4-.6-2.6-1-4.1-.7.4-1.3.6-1.8,1-7.4,5.1-15,5.6-22.7.9-7.5-4.6-10.7-13.9-7.9-22.5,2.7-8.3,11-13.7,19.9-13.1,4.7.3,8.7,2.3,12.7,5.3ZM1547.2,682.5v-16.2c-3.5-6.4-12.4-9.3-19.1-6.9-5.6,2-10.7,7.2-10.6,15.5,0,6.7,4.9,12.7,11.2,14.6,7,2.1,13.8-.5,18.5-7Z"/>
  <path class="cls-1" d="M1355.1,660.2c.2-1.4.4-2.6.6-4.2,1.1,0,2.2,0,3.4.2v36.4c-1.1.1-2.1.2-3.4.3-.2-1.4-.4-2.5-.6-3.8-.5.1-1,.1-1.3.3-5.6,4.3-11.7,5.6-18.5,3.6-9.5-2.8-15.1-12.4-13.2-22.6,1.7-9,10.5-15.7,19.8-15.2,5.1.3,7,1,13.2,5.1ZM1355.3,666c-7.4-8.7-17.8-9.9-24.9-3-6.5,6.3-6.1,17.3.6,23.4,6.6,6,19.5,4.7,24.3-3.7v-16.6Z"/>
  <path class="cls-1" d="M1689.1,660.2c.3-1.6.6-2.7.9-4.1,1,0,1.9-.2,3.1-.3v36.7c-.9,0-1.8.2-3,.3-.4-1.4-.7-2.6-1.1-3.8-11.8,7-22.1,6-29-2.7-5.9-7.5-5.4-18.4,1.2-25.4,6.1-6.4,17.8-8.9,27.9-.8ZM1689.5,682.8c0-4.5-.2-8.9,0-13.3.2-3.5-1.2-5.9-4-7.6-1.8-1.1-3.8-2.2-5.9-2.8-6.3-1.6-11.7,0-15.9,5-4.3,5.1-5.1,10.9-2.4,17,2.7,5.9,7.5,8.9,14,9,5.8.1,10.4-2.2,14-7.3Z"/>
  <path class="cls-1" d="M1907.4,660.3c.3-1.7.5-2.8.7-4.2,1,0,2-.2,2.7-.3,1.1,1.1,1.3,25.7.6,36.7-1,0-2.1.1-3.3.2-.3-1.4-.5-2.5-.7-3.8-.5.2-1,.3-1.4.5-5.2,3.8-10.8,5.3-17.1,3.7-7.9-2.1-13-7.2-14.4-15.2-1.4-7.9,1.1-14.8,7.8-19.5,6.9-4.8,14.2-4.7,21.5-.8,1.2.6,2.2,1.5,3.6,2.6ZM1907.6,666.1c-6.4-8.5-17.1-10-24.3-3.4-6.8,6.2-6.8,17.1-.1,23.4,6.5,6.2,19.6,5.2,24.5-3.3v-16.7Z"/>
  <path class="cls-1" d="M1461.4,675.8h-32.3c.8,6.7,3.7,11.5,9.7,13.4,6.7,2.1,13.1,1.4,17.6-5.1h3.6c-.1.6-.1,1.1-.3,1.5-4,8-16.5,10.5-24.9,5.8-8.5-4.8-12.1-15.7-8.1-25,3.8-8.8,12.4-13.4,23-10.6,8.1,2.1,12.7,9.8,11.8,20ZM1429.5,672.4h27.9c.4-7.7-4.6-13.4-12-13.9-8.7-.6-14.9,4.7-15.9,13.9Z"/>
  <path class="cls-1" d="M1841.5,675.8h-31.9c0,6.6,3.4,11.4,9,13.5,6.4,2.4,12.7.6,17.8-5.1h3.3c0,.7.1,1.3-.1,1.7-6.8,11-24.6,10.6-31.5-.7-4.1-6.7-4.1-13.8-.5-20.7,4-7.8,13.4-11.3,22.1-8.7,8.1,2.4,12.7,9.8,11.9,20ZM1809.7,672.4h27.9c-.1-8.4-5.2-13.5-13-13.9-8-.5-15.6,6.9-14.9,13.9Z"/>
  <path class="cls-1" d="M1189.9,674.3c0,11.2-8.1,19.5-19.3,19.6-11.1,0-19.5-8.2-19.7-19.3-.2-9.5,6.5-19.4,19.4-19.6,12.8-.1,19.8,9.5,19.7,19.2ZM1170.3,690.1c8.9,0,15.6-6.6,15.7-15.6,0-8.9-6.8-15.8-15.5-15.9-8.9,0-15.6,6.7-15.6,15.7,0,9.1,6.4,15.7,15.4,15.8Z"/>
  <path class="cls-1" d="M1308.8,666.1h-2.9c-1.2-1.7-2.2-3.8-3.8-5.2-3.7-3.4-13.1-3.6-17.2-.7-3.6,2.6-3.5,7.4.3,9.6,1.7,1,3.8,1.4,5.7,1.8,3.4.8,7,1.1,10.4,2.1,4.9,1.4,7.4,4.5,7.5,8.9.1,4.5-2,7.8-6.7,9.6-6.1,2.4-12.2,2.3-18.1-.3-4.1-1.8-6.5-5.1-7.4-9.8,1.2,0,2.1-.1,3-.2,4.6,7.7,11.2,10.3,19.7,7.8,3.6-1,5.7-3.6,5.6-6.8,0-3.1-1.9-5.1-5.7-6.1-3.4-.8-6.9-1.3-10.4-2-1.5-.3-3-.6-4.4-1.1-3.4-1.3-5.7-3.4-6.1-7.3-.4-4.1,1.3-7.3,4.9-9.1,2.2-1.1,4.8-1.9,7.2-1.9,3.3-.1,6.7.2,9.9,1.1,4.6,1.2,7.4,4.3,8.3,9.8Z"/>
  <path class="cls-1" d="M1705.5,656.1h4.1c5.5,11.2,11,22.3,16.7,34,2.9-3.6,3.9-7.6,5.7-11.2,1.9-3.7,3.6-7.6,5.3-11.4,1.8-3.8,3.5-7.6,5.3-11.3h4.1c-8.6,18.5-16.9,36.7-25.4,55h-4.2c2.6-5.6,4.9-10.7,7.4-16.3-6.2-12.6-12.5-25.3-19.2-38.8Z"/>
  <path class="cls-1" d="M1787.3,682.6v-26.4c1.1-.1,2.1-.2,3-.3,1.1,3.8,1.4,22.6.6,36.6-1,.1-2,.3-3.3.5-.2-1.5-.4-2.8-.6-4.1-.3,0-.6-.2-.8,0-3.7,3.2-8,4.9-12.9,5.1-8.8.3-15.3-4.7-16-13.4-.7-8-.1-16.1-.1-24.4h3.2c.2.4.5.9.5,1.3,0,5.1,0,10.1,0,15.2,0,1.5,0,3,0,4.5.2,10.1,7.4,15.3,17.1,12.3,3.6-1.1,6.7-3.1,9.3-6.9Z"/>
  <path class="cls-1" d="M1476.1,635.5h2.9c1,3.8,1.4,44.6.5,57.1-1,0-2,.2-3.4.3v-57.4Z"/>
  <path class="cls-1" d="M1499.3,692.8h-2.7c-1-1.1-1.4-47.9-.4-57.1.9,0,1.8-.2,2.7-.2,1,3.6,1.3,48.9.4,57.4Z"/>
  <path class="cls-1" d="M1859.7,692.7h-3.4v-57.1h3c.9,3.6,1.3,44.9.4,57.1Z"/>
  <path class="cls-1" d="M1258.8,638.3h2.8c.9,3.9,1.3,40.9.5,54.2-1,.1-2.1.3-3,.4-1.2-1.2-1.3-48.7-.3-54.6Z"/>
  <path class="cls-1" d="M1207.8,668.3v24.3c-1.2,0-2.3.1-3.6.2v-36.4c1-.2,2-.4,3.4-.6.2,2.3.3,4.3.5,6.7,4-4.2,8.2-7.5,14.4-7.5.2.8.3,1.8.5,2.4-3.6,1.8-7.2,3.1-10.3,5.2-2,1.3-3.3,3.8-4.8,5.6Z"/>
</svg>