<?xml version="1.0" encoding="UTF-8"?>
<svg id="Camada_1" data-name="Camada 1" xmlns="http://www.w3.org/2000/svg" version="1.1" viewBox="0 0 1920 1080">
  <defs>
    <style>
      .cls-1 {
        fill: #efefef;
        stroke-width: 0px;
      }
    </style>
  </defs>
  <path class="cls-1" d="M1667.8,452.8h-15.3c-.4-1.1-1-2.4-1.5-3.8-3.6-10.2-9-19.4-16.6-27-11.9-12-26.2-19.7-43-23.2-10.3-2.1-20.6-2.5-30.8-1.5-13.4,1.3-25.8,6-37.5,12.9-15,8.9-25.9,21.5-34,36.7-4.1,7.8-6.8,16.2-8.3,24.8-.9,5-1.7,10-1.8,15-.2,5.2.2,10.5.9,15.7,1.6,11.1,4.5,21.8,9.8,31.7,8.7,16.2,20.8,29,37.3,37.6,8.9,4.6,18.2,8,28.1,9.7,17.4,2.9,34.4,1.1,50.5-6.2,16.3-7.4,28.1-19.7,36.4-35.5,5.5-10.4,8.9-21.4,10.3-33.1.2-1.6.6-3.2.9-4.7-.4-.4-.5-.5-.7-.6-.1-.1-.3-.2-.4-.3-.2,0-.3-.1-.5-.1-.5,0-1,0-1.5,0-26.5,0-52.9,0-79.4,0-.2,0-.3-.1-1-.4-.1-4.1-.1-8.4,0-12.7,4.7-.9,76.5-1.3,97.7-.5,1.1,4.1,1.5,77.2.6,104.8-1.8,1-3.9.4-5.8.5-1.8,0-3.7,0-6,0,0-1.7,0-3,0-4.3-.3-14.6-.7-29.1-1-43.7,0-.8-.2-1.6-.5-3.6-1.4,2.5-2.2,3.9-2.9,5.3-4.8,9.4-10.6,18.1-18.2,25.4-12.9,12.4-28.5,19.7-46,22.8-9.6,1.7-19.3,1.8-28.9.9-8.3-.8-16.5-2.8-24.5-5.6-11-3.9-20.9-9.4-30.1-16.5-11.9-9.3-21-21.1-27.9-34.4-5.8-11.3-9.4-23.4-10.4-36.2-.4-5-.9-10.1-.9-15.2,0-14.9,3.5-29,9.6-42.6,6.2-13.8,15.2-25.6,26.6-35.5,5.5-4.7,11.4-8.9,17.9-12.4,9.7-5.2,19.8-9.3,30.7-11.2,4.3-.8,8.7-1.2,13-1.7,2.7-.3,5.4-.7,8-.7,2.7,0,5.4.5,8,.6,16.4.5,31.6,5.2,45.8,13,8.9,4.9,16.7,11.3,23.5,19,7.5,8.5,13.3,17.9,17.2,28.5,1,2.7,1.7,5.4,2.6,8.3Z"/>
  <path class="cls-1" d="M8.9,387.5h12.6c47.3,59.7,94.7,119.6,142,179.4.4,0,.5,0,.6-.2.1,0,.3-.3.3-.4,0-59.5,0-119,0-178.8h13.5c1,4.1,1.4,187.7.5,204.6h-12.9c-47.1-59.7-94.5-119.6-141.8-179.5-.5.4-.6.5-.7.6,0,.1-.2.3-.2.4,0,.2,0,.3,0,.5,0,59.2,0,118.4,0,177.9-4.6.9-9.1.2-13.8.5v-205Z"/>
  <path class="cls-1" d="M1314.3,595.8c-16.9-.2-33.1-3.6-48.2-11.4-11-5.7-21.2-12.8-29.5-22.1-13.5-14.9-22.7-32.1-26.4-52.1-1.9-10.2-2.5-20.5-1.7-30.8.9-10.9,3.5-21.6,8-31.7,5.9-13.3,14-25.1,24.6-35.1,9.8-9.3,20.9-16.5,33.6-21.3,5.5-2.1,11.2-3.8,16.9-5.2,4.4-1.1,8.9-1.4,13.4-2,3-.4,6-.7,9.1-.8,2.2,0,4.3.5,6.5.7,3.9.4,7.7.8,11.6,1,8.5.6,16.5,3.5,24.2,6.7,13.3,5.4,25.1,13.3,35.1,23.7,14.4,14.9,24,32.6,28,53,1.9,9.4,3,19.1,2.2,28.7-1.7,19.1-7.5,37-18.6,52.8-10.1,14.3-22.8,25.8-38.5,33.8-7.5,3.9-15.3,7-23.6,8.9-8.7,2-17.6,3.3-26.6,3.2ZM1315.2,396.9c-50.9-.8-91.9,40.4-92.8,89.4-1,56,40,95.5,92.2,96.2,24.5.3,46.4-8.4,64.2-25.7,18.5-18,28.4-40.4,28.5-66.1,0-24.8-8.2-47-25.7-65.2-18.1-18.9-40.2-28.5-66.4-28.6Z"/>
  <path class="cls-1" d="M1865.6,526.6h-112.1c-10.3,21.7-19.9,43.8-30.2,65.7h-15.1c.7-1.8,1.3-3.6,2.1-5.2,9.1-19.6,18.2-39.2,27.3-58.8,8.1-17.5,16.1-34.9,24.2-52.4,8.3-17.9,16.5-35.9,24.8-53.8,4.7-10.1,9.3-20.3,13.9-30.4.6-1.4,1.3-2.7,2-4.2h14.2c31.2,68,62.6,136.2,94.1,204.8h-15.2c-10-21.7-20-43.7-30.1-65.6ZM1859.3,513.3c-3.3-9.7-47.5-105.6-50.2-108.8-5.6,12.2-11.2,24.3-16.7,36.3-5.5,12-11,23.9-16.4,35.9-5.4,12-11.3,23.9-16.4,36.5h99.7Z"/>
  <path class="cls-1" d="M358,474v-19.3h13.6v137.5h-13.6v-18.3c-2.7,2.3-4.8,4-6.8,5.7-10.2,8.3-21.7,13.3-34.8,15.2-16,2.3-31.5.8-45.8-6.8-20.3-10.7-33.2-27.6-37.6-50.1-4.3-22.2.6-42.7,14.9-60.4,10.1-12.4,23.1-20.5,38.9-24.3,8.5-2.1,17.1-2.7,25.7-1.7,16.5,1.9,31.2,8.3,43.1,20.3.5.5,1,.9,2.5,2.1ZM358,491.8c-1.1-1.6-2-3.1-3-4.4-15.6-18.6-35.4-26.7-59.4-22.9-16.7,2.6-30.3,11.2-39.7,25.6-9.2,13.9-12.2,29.2-8.9,45.5,3.1,15.4,11,27.9,23.9,36.9,8.7,6.1,18.3,9.7,29.1,10.5,6.2.5,12.1,0,18.1-.9,8.5-1.1,16.1-4.9,23.2-9.6,6.9-4.5,12.5-10.3,16.8-17.3v-63.5Z"/>
  <path class="cls-1" d="M967.5,527.7h-122.9c0,2.8-.4,5.4,0,7.8,2.1,10.2,5.9,19.6,12.4,27.9,7.3,9.2,16.7,15.1,27.9,18.2,7.1,1.9,14.3,2.6,21.6,1.9,10-.9,19.7-3.4,28-9.3,4.4-3.2,8.1-7.2,10.8-12,.3-.6.7-1.1,1.1-1.8h14.8c-.8,1.9-1.2,3.8-2.2,5.4-4.9,8.2-10.9,15.3-19.5,20.1-6.7,3.8-13.6,6.9-21.1,8.2-9.8,1.7-19.7,2.2-29.7.6-7.1-1.1-13.9-2.9-20.2-6.1-18.7-9.7-30.9-24.6-36.2-45.2-1.8-6.9-2.7-14-2.7-21,0-14.5,3.9-28,11.9-40.1,11.1-16.9,26.7-26.8,46.6-30,13.1-2.1,25.9-1,38.3,3.8,13.8,5.3,24.1,14.8,31.4,27.5,5.3,9.2,8.3,19.1,8.8,29.8.1,2.3.6,4.7.8,7,.1,2.2,0,4.4,0,7.3ZM953.9,517.3c-.8-5.3-1.2-10.1-2.4-14.6-2.6-10.3-7.2-19.7-15.5-26.7-15.8-13.2-34.1-16.1-53.2-10.1-22.3,7-33.9,24-38.2,46.3-.3,1.6,0,3.3,0,5.1h109.4Z"/>
  <path class="cls-1" d="M1164.4,387.4h15.7c-28.6,43.4-57,86.6-85.5,129.8v75.1h-14.5v-74.9c-28.4-43-57-86.3-85.8-129.9h16c25.3,38.3,50.7,77,76.1,115.5.4,0,.6.2.8.1.2,0,.3-.1.4-.2.5-.5.9-1,1.3-1.5,25.1-37.9,50.2-75.8,75.5-113.9Z"/>
  <path class="cls-1" d="M661.6,555.9v-101.1h13.5v137.7h-13.4c0-6.4-.2-12.6-.3-18.9-4.8,3.8-9,7.5-13.6,10.6-8.7,5.8-18.4,9-28.7,10.6-5.6.9-11.1,1.1-16.7.9-12.3-.4-23.6-4.1-33.3-11.7-8.9-6.9-14.5-16.4-17.5-27.3-2.2-7.8-3-15.9-3-24,0-24.3,0-48.5,0-72.8,0-1.7,0-3.3,0-5.2h13.8c0,1.8,0,3.5,0,5.1,0,26.5-.2,52.9.2,79.4.2,11.2,3.7,21.5,11.4,30.1,5.8,6.4,12.8,10.4,21.1,12.3,19.5,4.5,37-.2,53-11.6,5.3-3.8,9.6-8.5,13.6-14.1Z"/>
  <path class="cls-1" d="M510.4,578.7c.7,4.4,1.3,8.6,2,13.1-12.7,3.7-25.1,5-37.9,3.1-6.9-1-13-3.3-18.6-7.3-5.6-4-9-9.5-11.4-15.8-2.8-7.3-4.1-14.9-4.1-22.8,0-25.3,0-50.6,0-75.8,0-1.8,0-3.7,0-4.9-1.6-2.3-3.5-1.8-5.1-1.8-9.7,0-19.3,0-29,0s-3.3,0-5.3,0v-11.9h39.3v-50.9h13.9v50.9c17.5,0,34.6,0,51.9,0v11.8c-4.1,0-8.3,0-12.5.1-4.4,0-8.8,0-13.2,0h-12.7c-4.2,0-8.4,0-12.9,0-.2,1.3-.6,2.2-.6,3.2,0,27.5,0,55,.2,82.5,0,6.9,1.7,13.6,5.7,19.7,4.6,7,11.4,9.9,19.1,11,10.5,1.5,20.8-.2,31.1-4Z"/>
  <path class="cls-1" d="M744.7,592.3h-12.9v-137.5h12.6c.9,8.6-.4,17.3.8,27,5.4-6.2,9.6-12.1,15.5-16.4,5.8-4.2,11.8-7.9,18.5-10.4,6.8-2.6,13.8-3.9,21.4-3.6v11.8c-1.4.3-2.8.9-4.2,1-13.3.9-24.7,6.5-34.6,15.2-5.9,5.2-10.9,11.1-14.8,17.9-1.6,2.9-2.3,5.8-2.3,9.2,0,26.6,0,53.2,0,79.9v5.9Z"/>
  <path class="cls-1" d="M1712.4,726.8v-52.5c8.4,0,16.7,0,24.9,0,3.5,0,6.6,1,9.6,2.6,3.2,1.7,5.1,4.1,5.8,7.8.8,4.7-.1,8.6-3.7,11.9-1,.9-2.1,1.6-3.4,2.7.8.6,1.6,1.2,2.4,1.6,6.7,3.5,8.8,7.9,7.5,15.4-.8,4.6-5.9,8.6-11.8,9.6-5.9,1.1-11.8.9-17.7.9-4.4,0-8.8,0-13.7,0ZM1716.9,723c7.8,0,15.1.2,22.3-.1,2.4,0,4.9-1.2,7.2-2.1,2.8-1.1,4.1-3.3,4.5-6.2,1-6.3-1.6-10.5-7.8-12-3.1-.7-6.3-.9-9.5-1-5.4-.2-10.7,0-16.6,0-.1,7.2,0,13.9,0,21.4ZM1716.9,697.3c.9.5,1.4,1,1.8,1,7.2.8,14.4,0,21.6-.8,1.1-.1,2.2-.9,3.2-1.4,3.7-1.7,5.1-5,5-8.6-.1-3.7-1.9-6.9-5.7-8.2-2-.7-4.2-1.2-6.4-1.3-5.6-.2-11.1,0-16.7,0-.8,0-1.6.2-2.5.3-.1.9-.3,1.5-.3,2.2,0,5.6,0,11.1,0,16.8Z"/>
  <path class="cls-1" d="M1609.3,694v-6.2h4.3c.1.4.4.9.4,1.4,0,10.9.2,21.7,0,32.6,0,3.5-1,7-1.9,10.4-1,3.6-3.6,6.4-7,7.6-9.9,3.6-19.4,2.7-28.6-3.3.7-1.2,1.2-2.1,1.8-3.3,4.4,2.4,8.6,4.3,13.4,4.8,4.7.4,9-.3,13-2.8,3-1.9,3.9-5.1,4.4-8.2.5-2.8.1-5.7.1-9.5-5.7,6.4-12.2,8.6-19.7,7.5-4.6-.7-8.7-2.7-11.8-6.4-6.1-7.3-5.5-20.1,1.6-26.3,4.5-3.9,9.5-4.8,15-4.7,5.9,0,10.4,2.6,14.9,6.6ZM1594.3,691.2c-9.7-.7-16.2,5.5-16.3,14.6,0,10.6,7.1,15.2,15.1,15.4,9.4.2,16-6,16.3-14.8.3-8-6.4-16-15.2-15.2Z"/>
  <path class="cls-1" d="M407.1,727c-10.1-.3-18.4-3.9-23.8-12.8-7.3-12.1-3.5-28.1,7.4-35.5,11.6-7.9,29.8-6.6,38.9,6,4.2,5.8,5.7,12.3,4.6,19.6-1.3,8.3-5.1,14.6-12.2,18.9-4.6,2.8-9.6,3.9-15,3.9ZM407.1,678c-12.4-.8-23.1,9.7-23,22.4,0,12.3,9.4,22.9,23.4,22.7,12.8-.2,22.6-9.4,22.6-22.4,0-14.2-10.8-23.5-23-22.8Z"/>
  <path class="cls-1" d="M585.9,718.9c-.2,2.8-.3,5.1-.4,7.7h-4.2v-54.7c.1-.1.3-.5.6-.5,1.1,0,2.3,0,3.9,0v23.5c1.1-.9,1.7-1.2,2.1-1.7,5.9-6.7,13.3-7,20.9-4.4,7,2.3,11,7.7,11.6,15.1.4,5,.3,9.9-2.6,14.6-6.3,10.3-23.1,11.7-30.5,2-.3-.4-.6-.7-1.4-1.6ZM585.7,706.9c-.3,13.6,11.9,18.1,19.9,15.7,10.8-3.1,14.4-17.5,7.5-26.1-4.6-5.7-10.7-6.3-17.5-4.7-4.5,1-10.5,7.7-9.9,15.1Z"/>
  <path class="cls-1" d="M1287.8,674.3c7.9,0,15.4-.3,22.8,0,6.9.3,13,2.7,16.1,9.5,4.2,9.3,1.3,21-10.2,24.4-2.6.7-5.3,1.2-7.9,1.3-5.2.2-10.4,0-15.9,0-1,5.8-.1,11.2-.6,16.9-1.3,0-2.7.1-4.4.2v-52.5ZM1292.6,705.9c5,0,9.4.1,13.8,0,2.7-.1,5.4-.4,8-1,3.8-.9,6.9-3.4,8.4-6.8,3.4-8.1.4-16.2-8-18.7-7.2-2.2-14.6-.8-22.2-1.1v27.7Z"/>
  <path class="cls-1" d="M296.1,694.9c1.3-4.3.5-8.2.6-12,.1-3.7,0-7.4,0-11.4,1.4,0,2.5-.1,3.8-.2v55.3h-3.5c-.1-2.6-.2-4.9-.4-8.1-4,4.2-7.6,7.9-13,8.4-3.8.3-7.5.1-10.9-1.4-2.4-1.1-4.8-2.6-6.6-4.6-7.5-8.4-5.8-22.1.6-28.3,4.3-4.2,9.5-5.4,15.3-5.2,5.8.2,10.1,3.1,14.1,7.5ZM280.8,691.2c-7.7-.5-15,4.6-15.3,15.8-.2,9.4,6.8,16.3,15.7,16.3,8.5,0,16-7.5,15.4-16.1-.7-10.7-6.8-16.4-15.8-15.9Z"/>
  <path class="cls-1" d="M762.8,695.3v-23.6c1.4-.2,2.5-.3,3.9-.5v55.4c-.9,0-2,.2-3.5.3v-7.9c-3.9,2.4-6,6.1-10.2,7.1-4.3,1.1-8.3,1-12.4-.1-4.1-1.1-7.1-3.5-9.7-6.9-5.4-7.1-4.5-21.1,2.9-27.4,6.1-5.2,19.6-7.3,29,3.6ZM747.5,691.2c-7.3-.6-15,3.8-15.7,15.4-.6,9,6.7,16.5,15.4,16.6,8.7,0,16-6.8,15.7-15.7-.2-9.6-5.6-16.5-15.4-16.3Z"/>
  <path class="cls-1" d="M930.9,702.7c0,3.6-1.1,9-3.9,14-3.7,6.8-9.3,10.1-16.8,10.2-7.8.1-13.7-3.5-17.3-10.3-2.2-4-3.4-8.4-3.5-13.1,0-4.7-.3-9.5,1.2-14.1,1.6-4.8,3.8-9.3,8.4-12.3,9.8-6.6,22.3-3.7,28.2,6.9,2.9,5.1,3.7,10.8,3.7,18.6ZM894.2,700.5c0,2-.2,4.1,0,6.1.5,5.4,2.7,10.3,7,13.5,7.4,5.6,16.4,2.8,20.4-3.2,5.1-7.6,5.1-15.8,3.7-24.3-.5-3.3-2-6.4-4-9.2-4.8-6.7-16.6-7.6-21.4-1.5-1.4,1.7-2.7,3.4-3.8,5.3-2.3,4.1-2.4,8.7-2.1,13.3Z"/>
  <path class="cls-1" d="M76.7,699.5c.2,7.4-1.1,13.9-5.1,19.7-8.1,11.5-26.2,10-32.3-1.9-5.3-10.1-5.3-20.5-1.5-30.8,3-7.9,9.3-12.6,17.8-12.8,6-.1,11.5,2.2,15.4,7.3,4.2,5.7,6.1,12,5.7,18.5ZM71.9,700.4c.4-5.1-.2-10.1-3-14.6-2.7-4.3-6-7.5-11.6-7.8-8-.5-13.3,3.8-15.5,10.4-3.1,9.3-3.1,18.6,1.7,27.4,5.1,9.2,18,10,24.1,1.4,3.6-5,4.7-10.7,4.3-16.8Z"/>
  <path class="cls-1" d="M1097.2,674.6c.9-.2,1.3-.3,1.6-.3.5,0,1,0,1.6,0,.2.4.6.9.6,1.3,0,10.7.3,21.4,0,32-.5,13.4-10.5,19.2-19.9,19.3-6.7,0-12.7-1.3-17.4-6.4-2.9-3.1-4.8-6.8-4.9-10.9-.3-11.6-.1-23.3-.1-35.2h4.2c.1.5.4,1,.4,1.4,0,10.5,0,21,.1,31.5,0,4.2,1.2,8,4.2,11.1,4.3,4.4,9.8,5.3,15.5,4.4,8.7-1.4,13.1-6.8,13.3-15.8.3-10,.5-19.9.7-29.9,0-.8,0-1.6.2-2.7Z"/>
  <path class="cls-1" d="M195.2,720.7c.8-1.3,1.4-2.3,2-3.3,13.2,8.3,23.5,7.8,30.4-1.5v-8c-3.9-6.8-10.3-7.4-16.8-7.4-1.1-2.3-.5-4,1-5.7,3.3-3.9,6.5-7.8,9.6-11.8,1-1.3,1.9-2.7,3.3-4.8-4.9,0-9.2,0-13.6-.1-4.4,0-8.8,0-13.5,0-.1-1.2-.2-2.2-.3-3.5h32.7c1,1.8.4,3.2-.7,4.6-3.8,4.7-7.6,9.5-11.3,14.3-.6.8-1.2,1.6-1.7,2.3,1,2.1,2.9,1.8,4.5,2.1,4.3.9,8.1,2.6,10.2,6.7,3.8,7.4,2.1,18.3-9,21.4-9.5,2.6-18.3,1-26.7-5.2Z"/>
  <path class="cls-1" d="M816.6,708.4h-32.6c0,6.3,3.1,10.3,8,12.8,7.2,3.7,14.1,2.5,20.7-3.2.6.8,1.1,1.6,1.7,2.5,0,.1,0,.5-.2.7-9.4,10-29.7,6.8-33.8-8-2.3-8.2-.8-15.8,5.9-21.7,1.7-1.5,3.9-2.7,6.1-3.3,4.4-1.3,9.1-1.5,13.4.3,8.2,3.4,11.9,10.2,10.9,19.9ZM812.8,704.2c0-8.2-6.3-13.3-14.5-13.5-8.1-.1-13.5,5.7-14,13.8,6.6.8,25.1.6,28.6-.4Z"/>
  <path class="cls-1" d="M317.7,708.5c1.4,14.3,15.5,18.9,28.5,9.9.7.7,1.3,1.4,2,2.1-5.4,7.9-20.1,8.4-28.1,2.1-10.4-8.2-8.6-24.9-.2-31.3,1.8-1.4,4-2.7,6.2-3.3,10.9-2.6,20.5,1.3,23.8,12.2.7,2.4.7,5,1,8.1-6,0-11.5,0-17.1,0-5.4,0-10.8,0-16.2,0ZM346.5,704.2c-.1-8.2-6.3-13.3-14.5-13.5-8.1-.1-13.6,5.7-14,13.8,6.6.8,25.1.6,28.6-.4Z"/>
  <path class="cls-1" d="M851.7,722.9h29c.2,1.4.3,2.4.4,3.7h-35.9c-.9-1.7-.5-3.1.9-4.5,5.8-5.5,11.5-11,17.2-16.6,3-3,5.9-6.1,8.5-9.4,1.9-2.4,2.7-5.4,2.5-8.6-.3-4.5-3.5-8.8-7.9-9.3-7-.8-14-.9-19.6,5.1-1-.9-2-1.7-3.1-2.6,3.5-4,7.8-5.6,12.5-6.5,4.5-.9,8.9-.4,13.4.7,6.5,1.6,10.9,8.2,8.9,16.4-.9,3.6-2.7,6.9-5.4,9.6-6.1,5.9-12,12-18,18-.9.9-1.7,2-3.4,3.9Z"/>
  <path class="cls-1" d="M946,722.3c3.6,1.3,6.8.6,9.9.7,3.2.1,6.4,0,9.7,0h9.8v3.5h-36v-3.6c6-5.8,11.9-11.6,17.8-17.4,1.8-1.8,3.6-3.6,5.4-5.4,4.3-4.4,6.5-9.4,5-15.9-5.6-8.6-15.9-9.1-27.2-1.1-.9-.7-1.9-1.5-3-2.4,3.9-3.6,8-5.9,13.1-6.6,3.4-.4,6.6-.6,10,0,10.6,1.9,14,8.9,11.7,18.5-1.2,4.8-4.7,8.2-8,11.6-4.8,5-10,9.6-15,14.5-1,1-1.9,2.2-3.2,3.6Z"/>
  <path class="cls-1" d="M1768.3,695c-.4-.9-.9-1.8-1.4-2.7,2.3-2.5,5.2-3.6,8.1-4.2,5.7-1.1,11.4-1.6,16.8,1.3,2.7,1.4,4.4,3.8,5.2,6.6.7,2.2,1.1,4.6,1.2,7,.1,7.8,0,15.6,0,23.6h-4.3c-.2-1.7-.4-3.5-.6-5.7-1.3,1.2-2.3,2.1-3.3,3-5.8,4.7-16.3,4.1-21.6-.8-5.5-5.1-3.4-14.9,4.2-17,2.4-.7,5-.9,7.5-1,4.2-.2,8.5,0,12.6,0,2.4-7.3-1.6-13.3-8.8-13.7-6.3-.3-7.1-.2-15.5,3.8ZM1793.2,707.9c-1.6,0-2.9-.2-4.2-.2-3.4,0-6.8-.3-10.1.1-3.4.5-7.1,1.2-9,5.1v5c3,6.4,10.3,6.6,16,4.7,5.8-1.9,8.1-6.6,7.3-14.8Z"/>
  <path class="cls-1" d="M1510.1,726.7h-4.3c-.2-1.9-.5-3.6-.7-5.9-1.3,1.2-2.3,2.2-3.3,3-5.8,4.6-16.4,4.1-21.6-.9-5.4-5.1-3.3-14.9,4.3-17,2.4-.7,5-.9,7.5-1,3.9-.2,7.8,0,11.7,0,.3,0,.6-.2,1-.3,2.2-7.2-1.8-12.9-9-13.4-5.4-.4-10.4.7-15.1,4.1-.6-1.1-1.1-2-1.7-3,2.3-2.5,5.2-3.7,8.1-4.2,5.8-1,11.7-1.7,17.2,1.7,2.7,1.6,4.2,4,4.9,6.8.7,2.7,1,5.7,1,8.5.1,7.1,0,14.2,0,21.6ZM1485.4,722.7c6.2,1.2,11,1.6,15.4-1.6,4.5-3.3,5.7-7.7,4.2-13.3-4.9,0-9.8-.4-14.7.1-3.3.3-6.8,1.2-8.4,5v6.3c1.1,1.1,2.5,2.5,3.5,3.4Z"/>
  <path class="cls-1" d="M1914.7,726.7h-2.8c-.3-1.9-.6-3.7-1-6.1-1,.7-1.6,1-2,1.4-5.2,5.4-11.5,5.9-18.2,3.9-5.7-1.7-7.8-4.9-7.7-10.9,0-1.2.2-2.4.3-3.5,3.1-4.8,7.5-6.7,12.9-6.7,4.6,0,9.1,0,13.6,0,2.4-7.7-1.6-13.4-9.3-13.7-6.4-.2-6.5-.2-15,3.9-.5-.9-1-1.7-1.5-2.7,2-2.3,4.5-3,7.1-3.9,4.8-1.7,9.8-1.4,14.5-.6,5.8,1,9.4,5.9,9.6,12.7.3,8.5,0,16.9,0,25.4,0,.3-.4.5-.6.8ZM1910.6,707.7c-6.4.1-12.2-.6-18,.9-3.1.8-5.1,2.7-5.6,5.9-.4,2.9.7,5.4,3.1,7.1,2.7,1.9,5.8,2.4,9.1,2,5.2-.6,9.3-2.9,11.4-8v-7.9Z"/>
  <path class="cls-1" d="M133.4,704.9c1.6-8.9-2.2-13.4-10.4-13.8-5.2-.2-9.6,1.4-13.9,4.1-.6-1-1-1.8-1.6-2.9,3.1-3,6.8-4.3,10.9-4.8,2.2-.2,4.4,0,6.6-.1,7.1-.2,13.4,3.8,13.8,13.5.3,8.4,0,16.9,0,25.6h-3.6c-.2-1.9-.5-3.6-.8-6.1-1.4,1.1-2.3,1.8-3,2.6-4.3,4.5-14.4,5.3-20.4,1.6-2.9-1.8-4.7-4.4-4.6-8,0-1.7,0-3.4,0-4.6,3.2-5.3,7.7-7.1,13.1-7.2,4.7,0,9.4,0,14,0ZM133.8,707.8c-6.4,0-12.1-.6-17.8.8-3.1.8-5.1,2.6-5.7,5.8-.5,2.9,1,6.2,3.9,7.7,2.7,1.3,5.5,2,8.7,1.5,5.1-.8,8.9-3,10.9-7.6v-8.2Z"/>
  <path class="cls-1" d="M558.6,319.4c-1.2.2-1.5.3-1.8.3-.3,0-.6-.1-1.3-.3-.3-.5-.7-1.2-1-2-4.3-10.9-17.8-16.3-29.2-12.6-11.3,3.6-17.2,11.7-18.6,23-1.1,8.2,3.4,20,13.3,25,9.5,4.9,18.7,4.7,27.6-1.3,4.1-2.8,6.3-7,7.9-11.7h3.3c-2.8,10-9.2,16-18.7,18.5-9.8,2.6-18.8.5-26.5-6.1-5.8-5-9.3-11.4-9.9-19.3-.6-7.9,1.1-15.2,6.3-21.3,7.2-8.5,16.5-11.9,27.6-10.3,3.6.5,6.8,1.8,9.9,3.5,5.7,3.2,9.2,8.1,11.3,14.7Z"/>
  <path class="cls-1" d="M1392.5,695.4c-.9-1.3-1.5-2.1-2.2-3,2.3-2.5,5.2-3.7,8.1-4.2,5.5-1,11.1-1.7,16.4.8,4.3,2.1,6.7,5.8,6.8,10.5.2,8.9,0,17.9,0,27.1-1.1,0-2.1.2-3.4.2-.3-1.9-.6-3.8-1-6.3-4.6,5.3-10.1,7-16.2,6.3-2.3-.2-4.6-1-6.7-2-4.1-2.1-5.8-6-5-11.2.7-4.1,3.3-6.6,7.2-7.6,2.6-.7,5.3-.9,8-1.1,3.9-.2,7.8,0,11.7-.1.3,0,.6-.3,1.2-.6.1-2.5-.3-5.1-1.2-7.6-1.2-3.3-3.9-5.1-7.3-5.4-5.8-.5-11.5-.4-16.5,4.1ZM1416.6,707.8c-5.7,0-11.2-.7-16.7.7-3.9,1-6.5,3.8-6.6,7.2,0,3.1,2.5,6.2,6.1,7.3,3.3,1,6.6.9,9.8-.2,6.8-2.3,9.9-8.2,7.4-15.1Z"/>
  <path class="cls-1" d="M1017.6,726.7h-4.9v-13.7c-5.3-.5-10.4-.2-15.4-.3-4.9,0-9.8,0-14.6,0-.8-1.8-.6-3.1.5-4.5,7.1-8.8,14.2-17.6,21.3-26.5,1.9-2.4,3.8-4.7,5.8-7.2h4.7c-8.8,11.1-17.5,22.2-26.4,33.4,1,.5,1.4.8,1.9.8,7.1,0,14.2,0,21.5,0,1.5-3.9.2-7.9,1-12,1.3,0,2.5-.1,4.3-.2v12.2h10.1v3.8h-9.8v14Z"/>
  <path class="cls-1" d="M1849.3,726.6h-3.8c0-7.1.1-14.1,0-21,0-2.5-.4-5.1-1.2-7.4-1.6-4.3-4.8-6.9-9.6-6.9-2.4,0-4.8,0-7,.5-4.8,1.3-7.7,4.8-8.7,9.6-.6,2.6-.8,5.3-.9,8-.1,5.6,0,11.2,0,17-1.2.1-2.3.2-3.7.3v-55.4c1.1,0,2.1-.1,3.7-.2v22.9c1.6-1.2,2.6-1.7,3.4-2.4,3-2.8,6.4-4.3,10.5-4.3,4,0,8-.3,11.7,2.4,3.5,2.6,5.7,5.9,5.8,10.1.2,8.8,0,17.6,0,26.6Z"/>
  <path class="cls-1" d="M1198.7,726.7h-3.4c-.2-1.7-.4-3.5-.7-5.7-1.1.9-2,1.5-2.8,2.2-5.5,4.7-15.3,5.1-21.2.8-3.6-2.6-4.7-6.2-4-10.2.7-3.9,3-6.8,7-7.8,2.6-.6,5.3-1,8-1.1,4.2-.2,8.4,0,12.5,0,1.9-8-2.2-13.4-9.8-13.7-5.2-.2-10.1.5-14.5,4.1-.7-1-1.3-1.9-2.1-3,3.3-3,7.3-4.2,11.4-4.7,2.7-.3,5.4-.2,8.1,0,5.8.3,11.4,5.2,11.5,11.4.2,9.1,0,18.2,0,27.8ZM1171.2,713.1c0,.3,0,1-.1,1.7-.6,4.8,2.4,8.1,7.2,8.5.8,0,1.7.4,2.5.4,9.5.4,16.8-7.1,13.3-15.9-4.5,0-9.3-.3-13.9.1-3.2.3-6.8.8-8.9,5.2Z"/>
  <path class="cls-1" d="M1219.7,694c1.5-1.3,2.7-2.2,3.7-3.2,4.7-4.7,19-5,23.6,1.4,2,2.7,3.4,5.5,3.5,8.8.2,8.4,0,16.9,0,25.6h-3.9c0-5.7,0-11.3,0-16.8,0-3.2-.3-6.4-.8-9.5-.9-5.4-4.6-8.7-10.1-8.9-2.5,0-5.1,0-7.5.7-6.9,2.1-8.9,7.8-9.1,14.3-.2,6.6,0,13.2,0,20.1-1.2.1-2.2.3-3.1.4-1.1-.8-1.4-42.6-.7-55.2,1-.1,2.1-.3,3.8-.5,0,4-.1,7.7,0,11.4.1,3.6-.6,7.3.6,11.5Z"/>
  <path class="cls-1" d="M1658.9,726.6h-3.5c-.2-1.7-.3-3.5-.5-5.2-2.7,1.6-5.2,3.4-7.9,4.5-4.6,2-9.3,1.2-13.8-.3-4.3-1.4-6.8-5.9-6.6-10.4.3-4.9,2.9-8.2,7.8-9.3,2.4-.6,5-.9,7.5-1,4.2-.2,8.4,0,12.7,0,1-4.2-.2-7.5-2.3-10.4-1.9-2.7-4.9-3.2-8.1-3.3-5.2-.2-10.1.7-14.4,4.1-.7-1.1-1.3-2-2-3.1,6.8-5.1,14.4-5.8,22.1-4,5.2,1.2,8.6,5.1,8.8,10.5.4,9.3.1,18.5.1,28ZM1631.4,713c0,.6-.1,1.3-.1,2,0,5.4,1.9,7.5,7.4,8.3,2.2.4,4.3.3,6.4,0,7.7-1.3,11.5-7.6,9.1-15.5-4.3,0-8.7-.2-13,0-3.7.3-7.5.7-9.7,5.2Z"/>
  <path class="cls-1" d="M1122.3,726.7h-4.5v-38.9h4.2c.1,2,.2,4,.4,6.7,1.1-1.2,1.8-1.9,2.5-2.6,5.7-6,19.3-5.8,24.3-.7,2.9,3,4.4,6.6,4.5,10.4.3,8.3,0,16.5,0,25.1h-4.6c0-2.2,0-4.3,0-6.5,0-5.8,0-11.5,0-17.3,0-7-5.1-11.5-11.8-11.7-10.4-.3-15,7.1-15.1,14.6,0,6.8,0,13.6,0,20.9Z"/>
  <path class="cls-1" d="M679.8,687.4c12,0,18.9,7.6,19.2,19.9.3,11.4-8.7,19.6-19.8,19.6-9.2,0-20-6.7-19.7-20.5.2-11.5,8.6-19.7,20.3-19.1ZM679.5,691.2c-9.3-.9-15.4,7.5-15.6,15.5-.2,8.8,6.2,16.5,15.4,16.5,9.1,0,15.3-6.3,15.5-15.8.3-9.8-6.5-16.8-15.4-16.2Z"/>
  <path class="cls-1" d="M478.2,687.7h4.4v39c-1.2,0-2.5.1-4.1.2-.2-2.3-.4-4.4-.6-7-1,.9-1.6,1.3-2.2,1.9-5.6,6-12.5,6.5-19.6,3.9-4.7-1.8-7.9-5.4-8.7-10.9-1.3-8.9-.4-17.8-.8-27h4.7c0,7.1-.1,14,0,20.9,0,2.5.5,5.1,1.2,7.4.7,2.3,2.2,4,4.5,5.3,9.4,5.2,20.5-.7,21-11.5.3-5.8,0-11.5,0-17.3,0-1.5,0-3,0-4.9Z"/>
  <path class="cls-1" d="M565.1,726.6h-4.4v-7c-1.6,1.4-2.5,2.2-3.4,3-7.3,6.8-19.8,5.6-25.5-2.5-2.2-3.1-2.2-6.8-2.5-10.2-.4-7.2-.1-14.5-.1-22.2,1.5,0,2.7-.2,4.3-.2.1,1.3.3,2.5.3,3.6,0,6.1,0,12.2,0,18.3,0,12.2,9.5,16,18.6,12.6,5.6-2.1,7.7-6.8,8.1-12.4.2-4.1,0-8.1,0-12.2,0-3,0-6.1,0-9.4.9-.2,1.7-.3,2.4-.4.6,0,1.3,0,2,.1v38.9Z"/>
  <path class="cls-1" d="M291.2,358.2c-.9,0-1.4-.1-2.2-.2v-58.3h2.5c0,4.3,0,8.5,0,12.7.1,4.1-.6,8.3.6,12.9,4.3-2.7,8-5.7,13.1-5.4,3.2.2,6.4-.3,9.4,1.3,2.7,1.4,5.3,2.9,7.3,5.3,6.1,7.2,5.8,17.6,1,24.4-3.7,5.2-8.9,7.8-15.1,8.1-5.8.3-11.1-1.7-15.9-6-.4,2.1-.6,3.5-.9,5.3ZM291.6,347.5c5,7.5,12.4,10.5,20.4,7.9,6.6-2.1,11-8.1,11.5-15.2.5-7.4-4.2-14.9-11.7-16.9-7.2-2-14.7-.9-20.2,7.6v16.6Z"/>
  <path class="cls-1" d="M15.7,358.1c-1,0-1.7.1-2.6.2v-56.2c1,0,2.1-.3,3.3-.3,5.4,0,10.8,0,16.3,0,4.8.1,9.3,1.5,13.3,4.3,3.9,2.8,5.9,6.8,6.4,11.6,1.4,13-8,19.6-18.1,20.3-4.2.3-8.5,0-12.7.1-1.7,0-3.3,0-5.6,0,0,3.6-.1,7-.2,10.3,0,3.2,0,6.4,0,9.7ZM15.9,335.2c6.6,0,12.7.4,18.7-.1,6.1-.6,11.2-3.5,13.7-9.6,3.8-9.1-2.4-18-10.6-20.1-6.2-1.6-12.4-.8-18.6-1-1.1,0-2.2.3-3.3.5v30.2Z"/>
  <path class="cls-1" d="M1561.2,726.6h-3.8c0-7.2,0-14.1,0-21,0-2.9-.5-5.7-1.7-8.3-1.8-3.6-4.6-5.8-8.8-5.9-2.5,0-5.1,0-7.5.5-4.9,1.3-7.7,4.8-8.7,9.7-.5,2.6-.8,5.3-.9,8-.1,5.6,0,11.2,0,17-1.3,0-2.4.2-3.7.3v-39h3.3c.2,2,.4,4.1.6,6.7,1-.9,1.8-1.4,2.5-2.1,3.3-3.6,7.4-5.2,12.3-5,3.7.1,7.3,0,10.6,2.5,3.4,2.5,5.6,5.7,5.7,9.7.3,8.9.1,17.9.1,27Z"/>
  <path class="cls-1" d="M826.6,325.5c.4-1.9.7-3,1-4.4.6,0,1.2-.2,2.2-.3v37.2c-.7,0-1.3,0-2.2.1-.2-1.5-.4-3-.6-4.5-.7,0-1.3,0-1.6.1-3.3,2.5-6.7,4.1-10.9,4.8-6.6,1.1-12.1-.9-16.7-5.1-10.9-10-6.4-29,7.9-33,6.4-1.8,12.7-.8,18.3,3.1.7.5,1.3.9,2.6,1.9ZM827.2,331c-6.2-10.2-20.1-10.7-27.2-3.9-6.9,6.6-6.1,19.2.7,25,6.9,5.9,20.1,5.9,26.3-4.5,0-.4.1-.9.1-1.4,0-5.1,0-10.2,0-15.2Z"/>
  <path class="cls-1" d="M462,325.4c.5-1.8.8-3,1.1-4.2.6,0,1.1-.1,1.5-.2,1.1.7,1.5,22.8.7,37-.5.1-1.2.2-2.1.4-.3-1.7-.7-3.2-1-5-2.7,1.5-5,3.2-7.6,4-2.8.9-5.9,1.7-8.8,1.5-2.7-.1-5.5-1.3-8.1-2.4-2.7-1.1-4.7-3-6.4-5.5-6.6-9.3-4-19.1,1.7-25.4,5.7-6.3,18.1-8.6,29.1-.2ZM462.5,330.8c-5.1-8.3-14.7-9.6-21.4-7.1-7.1,2.6-10.6,8.5-10.3,17.3.2,6.6,4.9,12.7,11.4,14.5,7.2,2,16-.2,20.4-8.2,0-4.9,0-10,0-15.1,0-.5-.1-1-.2-1.4Z"/>
  <path class="cls-1" d="M268.9,325.3c.4-1.7.7-2.9,1-4.2.6,0,1.1,0,1.5,0,1.1.9,1.5,27.1.5,37-.6,0-1.2.2-2,.3-.3-1.7-.7-3.2-1.1-5.3-5.7,5.1-11.9,6.8-18.9,5.5-4.5-.9-8.2-3.1-11-6.7-6-7.5-5.6-19.3.9-26.1,7.1-7.4,18.4-7.8,29.2-.4ZM269.4,330.8c-4.3-6.9-12-10.1-19.4-7.8-6.7,2-12,7.7-12.4,15.6-.3,6.3,3.4,14,10.9,16.6,7.3,2.5,16.1.5,20.9-7v-17.4Z"/>
  <path class="cls-1" d="M608.8,358.1c-.6,0-1.2,0-2.1.1-.2-1.6-.4-3-.5-4.5-3.7,1.6-7,3.5-10.5,4.6-3.9,1.2-7.9.6-11.8-.8-3.9-1.3-6.7-3.9-9-7.1-5.4-7.9-3.9-19.1,2.3-25.2,7.2-7,17.7-7.2,28.6-.1.4-1.4.9-2.7,1.3-4.1h1.5c1,1.2,1.2,29.7.3,37.1ZM606.4,330.8c-4.3-6.8-11.9-10.1-19.4-7.9-6.7,2-12.1,7.7-12.4,15.6-.3,7.3,4.4,14.6,10.9,16.7,7.3,2.4,16.1.5,20.9-7v-17.4Z"/>
  <path class="cls-1" d="M726.7,340.2c-.3,6.7,3.3,12.6,9,14.8,6.3,2.5,13.6,2,19.6-5.3.9,0,1.8,0,2.9-.1,0,.4,0,.7,0,.9-2.3,4.6-6.3,6.8-11.2,7.9-5.9,1.3-11.2.3-16.3-3.1-3.4-2.3-5.6-5.5-6.8-9.2-2.4-7.9-1.2-15.3,5.1-21.3,6-5.7,13-6,20.3-3.7,6.4,2,11.1,9.7,10.6,16.3,0,.7,0,1.3-.1,2.5-10.9.4-21.9-.1-33.2.3ZM757,338c.2-5.6-1.7-10-5.9-12.9-5.6-3.9-11.7-4-17.6-.3-4.7,3-7.2,7.2-7.2,13.2h30.6Z"/>
  <path class="cls-1" d="M342.8,340.2c-.3,6.7,3.3,12.6,9.1,14.8,6.3,2.5,13.6,2.1,19.6-5.3.9,0,1.8,0,2.9-.1,0,.4,0,.7,0,.9-2.3,4.6-6.3,6.8-11.2,7.8-5.9,1.3-11.2.3-16.3-3.1-3.4-2.3-5.6-5.6-6.7-9.2-2.4-7.9-1.2-15.3,5.1-21.3,6-5.7,13-6,20.3-3.7,6.4,2,11.1,9.7,10.6,16.3,0,.7,0,1.3-.1,2.5-11,.6-21.9-.1-33.2.4ZM342.8,337.8c7.4.8,26.6.6,30.1-.3.6-8.4-5.6-15.2-14.3-15.6-8.4-.3-16,7.1-15.8,15.9Z"/>
  <path class="cls-1" d="M1468.4,694.3c-.9.7-1.6,1.4-2.6,2.2-3.1-2.2-5.6-5.5-9.9-5.3-3.2.1-6.6-.4-9.4,1.3-2,1.2-4,2.7-5.4,4.5-4.3,5.6-5.1,15.3,1.4,21.8,6.1,6.1,15,5.7,22.9-.9.5.3,1.1.5,1.7.8.4.2.8.6,1.3,1-2.6,4.4-6.8,6.3-11.3,6.9-10.1,1.3-18.6-2.6-22.2-11.9-4-10.3,0-19.9,7.7-24.9,5.9-3.9,20.7-4.1,25.7,4.4Z"/>
  <path class="cls-1" d="M499.3,691.3h-6.4c-.1-1.2-.2-2.2-.3-3.6,2.3-.1,4.3-.2,6.3-.3,1.5-2.8.1-5.8,1.1-8.7h4.2v8.1c4.1,1.5,8,.2,12.1,1.1,0,.9.1,1.8.3,3.3h-11.8c-.2,1.6-.4,2.7-.4,3.8,0,6.4,0,12.9,0,19.3,0,8.3,5.4,11.3,13,7.3.5,1,.9,2,1.3,2.9-6.1,3.7-12.4,3.3-16.3-1-2.1-2.2-2.7-5-2.7-7.9,0-6.6,0-13.2,0-19.8,0-1.4-.2-2.9-.3-4.4Z"/>
  <path class="cls-1" d="M82.7,319.9c10.5-.9,19.8,8.5,19.7,19.1,0,11.3-7.4,19.9-19.5,20-12.1,0-19.8-8.3-20.2-19.5-.3-8.9,7.7-20.5,20-19.6ZM82.7,356.6c1.4-.3,2.5-.7,3.7-.9,9.4-1.7,15.4-11,12.5-20.8-3.1-11-11.7-14.2-21.8-11.5-6.7,1.8-11.2,8.2-11.1,15.3,0,6.6,2.3,12.4,9.7,15.8,2.3,1,4.8,1.5,7,2.1Z"/>
  <path class="cls-1" d="M663.3,321.5c-8.7,18.8-17.3,37.4-25.9,56.1h-3.3c2.6-5.8,5.2-11.3,7.8-17.1-6.4-12.9-12.9-25.9-19.3-38.8,1.6-1.2,2.6-.8,3.4.3.7,1,1.1,2.1,1.6,3.2,4.4,9,8.7,18,13.1,26.9.7,1.5,1.6,2.9,2.7,5,2.2-4.5,4-8.3,5.8-12.1,3.4-7.2,6.7-14.4,10-21.6.8-1.7,1.6-3,4.1-1.8Z"/>
  <path class="cls-1" d="M673.8,321.1h3.5c0,3.3,0,6.5,0,9.7,0,4.6,0,9.2,0,13.7.3,7.5,7.3,12.9,14.7,11.4,6.9-1.4,8.7-2.4,13.3-7.7v-27.3h2c1,3.5,1.3,29.1.4,37-.6,0-1.2.1-2.1.2-.2-1.6-.4-3-.6-5-1.6,1-2.7,1.9-4,2.6-6.6,3.7-13.3,4.5-20.1.7-3.4-1.8-5.1-4.9-6.1-8.4-.6-2.1-.9-4.3-1-6.5-.1-6.8,0-13.5,0-20.6Z"/>
  <path class="cls-1" d="M189.1,347.8c.8-.1,1.4-.2,2.3-.3,2.4,6.5,7.5,8.8,13.9,9.1,5.3.2,10.1-1,13.2-6v-4.2c-2.6-5.1-7.4-5.4-11.8-6.3-2.5-.5-5-.6-7.5-1.3-3.1-.8-6-2.3-7.8-5.3,0-.3-.2-.6-.3-.9-1.3-7,1.5-11.8,11.3-12.6,3.8-.3,7.8-.6,11.5,1.2,3.5,1.7,6,4.2,7.4,8-1.5,1.2-2.7.9-3.3-.5-1.8-4-5.1-5.7-9.1-6.5-4.5-1-8.8-.3-12.5,2.4-3.6,2.7-3.5,7.1,0,9.9,2.5,2,5.6,2.2,8.5,2.8,3.3.7,6.7,1.1,9.9,2.1,4.6,1.4,6.4,3.8,6.6,7.9.2,4.5-1.8,8.2-5.7,9.9-6,2.4-12.1,2.6-18.2.4-4.5-1.6-7.1-4.9-8.3-9.7Z"/>
  <path class="cls-1" d="M184.5,726.6h-4.6v-48.4h-11.8c-.2-1.3-.3-2.4-.4-3.7,5.7,0,11,0,16.3,0,.9,4.2,1.2,30.9.5,52.1Z"/>
  <path class="cls-1" d="M16.9,678.2H4.9c-.1-1.2-.2-2.2-.3-3.3,2.9-1.1,5.7-.4,8.5-.6,2.7-.1,5.4,0,8.3,0v52.2h-4.4v-48.4Z"/>
  <path class="cls-1" d="M637.6,726.7h-4.4v-38.9c1,0,2-.1,3.3-.2.2,2.4.4,4.5.6,7.1,2.4-2,4.2-3.9,6.3-5.4,2.3-1.6,4.9-2.1,8.1-1.7.1,1,.3,2,.4,3-.5.3-.8.6-1.1.6-9,1.1-13.1,5.7-13.2,14.8,0,6.8,0,13.5,0,20.7Z"/>
  <path class="cls-1" d="M1365.6,687.6c.2,2.7.3,4.7.5,7.1,2.5-2.1,4.5-4.1,6.8-5.6,2.3-1.5,4.9-2.1,7.9-1.2v3c-.5.2-.9.4-1.4.5-8.4,1.1-12.6,5.8-12.8,14.2,0,6.9,0,13.9,0,21.1-1.5,0-2.8.1-3.9.2-1-.9-1.3-26.8-.6-39,1,0,2.1-.2,3.5-.3Z"/>
  <path class="cls-1" d="M120.3,333.1v25c-1.1,0-2,.1-3.2.2v-37c.8,0,1.7-.2,2.9-.4.2,2.3.4,4.4.7,7.1,4.1-4.6,8.3-8.4,14.5-8,.3.6.4.9.5,1.2,0,.3,0,.6-.2,1.2-7,.5-11.7,4.4-15.2,10.7Z"/>
  <path class="cls-1" d="M393.1,358.2h-2.1v-58.4c.6,0,1.2-.1,1.8-.2.9,3.8,1.1,50.9.3,58.5Z"/>
  <path class="cls-1" d="M775.1,299.7h1.5c1,3.6,1.3,47.4.5,58.3-.6.1-1.2.2-1.7.3-1.1-1-1.2-53.4-.2-58.6Z"/>
  <path class="cls-1" d="M412.4,358.2h-1.8c-.9-1-1.1-49.3-.3-58.4.6,0,1.2-.1,1.8-.2.9,3.7,1.2,49.9.4,58.6Z"/>
  <path class="cls-1" d="M170.9,301.9c.8,0,1.4,0,2-.1.9,4.1,1.1,44.6.4,56.2-.7,0-1.5.1-2.4.2v-56.3Z"/>
  <path class="cls-1" d="M1341.7,687.8h3.5v38.8c-1.1,0-2.2.1-3.5.2v-39Z"/>
  <path class="cls-1" d="M1869.4,726.6h-2.9c-.9-.8-1.1-31.4-.2-38.8h2.8c.9,3.6,1.1,32.1.3,38.8Z"/>
</svg>