<svg width="40" height="40" viewBox="0 0 40 40" fill="none" xmlns="http://www.w3.org/2000/svg">
<path fill-rule="evenodd" clip-rule="evenodd" d="M30.5461 19.4641C30.4046 13.9029 25.8242 9.44385 20.1922 9.44385C14.5603 9.44385 10.081 13.8018 9.83833 19.2821C9.83833 19.4337 9.83833 19.5854 9.83833 19.7371C9.83833 21.6784 10.3843 23.4984 11.3247 25.0455L9.4541 30.5662L15.1973 28.7462C16.6836 29.5652 18.3924 30.0303 20.2023 30.0303C25.9253 30.0303 30.5663 25.4297 30.5663 19.7472C30.5663 19.6562 30.5663 19.5753 30.5663 19.4843L30.5461 19.4641ZM20.1922 28.3721C18.4228 28.3721 16.7746 27.8463 15.3995 26.9363L12.0527 28.0081L13.1346 24.7927C12.0931 23.367 11.4763 21.6178 11.4763 19.727C11.4763 19.4438 11.4865 19.1607 11.5168 18.8877C11.9415 14.5096 15.6725 11.0819 20.1821 11.0819C24.6917 11.0819 28.5138 14.6006 28.8676 19.0495C28.8879 19.272 28.898 19.4944 28.898 19.727C28.898 24.4995 24.9849 28.3721 20.1821 28.3721H20.1922Z" fill="#EFEFEF"/>
<path fill-rule="evenodd" clip-rule="evenodd" d="M24.9443 21.81C24.6915 21.6887 23.4377 21.0719 23.2052 20.991C22.9726 20.9 22.8007 20.8697 22.6288 21.1123C22.457 21.3651 21.9716 21.9314 21.82 22.0931C21.6683 22.265 21.5267 22.2852 21.2638 22.1538C21.0111 22.0325 20.192 21.7696 19.2214 20.9C18.4731 20.2327 17.9575 19.4137 17.8058 19.1609C17.6642 18.9081 17.7957 18.7767 17.917 18.6452C18.0282 18.534 18.1698 18.352 18.3012 18.2003C18.3316 18.1599 18.3619 18.1194 18.3922 18.079C18.4529 17.988 18.4934 17.897 18.554 17.7756C18.645 17.6038 18.5945 17.4622 18.5338 17.3307C18.4731 17.2094 17.9575 15.9657 17.7451 15.4602C17.5328 14.9546 17.3205 15.0456 17.1688 15.0456C17.0171 15.0456 16.8553 15.0254 16.6835 15.0254C16.5116 15.0254 16.2386 15.0861 16.006 15.3388C15.7734 15.5916 15.1162 16.1983 15.1162 17.442C15.1162 17.7352 15.1668 18.0284 15.2477 18.3014C15.5004 19.1912 16.0566 19.9192 16.1577 20.0507C16.279 20.2124 17.917 22.8414 20.4954 23.8626C23.0839 24.8636 23.0839 24.5299 23.549 24.4895C24.0141 24.4491 25.0555 23.8828 25.2578 23.2863C25.4701 22.6998 25.4701 22.1942 25.4094 22.083C25.3488 21.9819 25.1769 21.9212 24.9241 21.7898L24.9443 21.81Z" fill="#EFEFEF"/>
</svg>
