<svg width="5534" height="1427" viewBox="0 0 5534 1427" fill="none" xmlns="http://www.w3.org/2000/svg">
<path d="M3621.35 12.876C3462.23 30.0357 3326.51 132.994 3269.83 280.151C3243.31 347.75 3237.07 386.23 3237.59 469.948C3237.59 533.387 3239.67 553.147 3251.11 595.266C3304.15 796.503 3468.99 922.86 3676.99 922.34C3806.98 921.82 3930.74 887.501 3986.9 836.542L4008.74 817.302V767.903V718.504L3985.34 747.103C3953.1 786.623 3885.5 839.662 3835.06 865.141C3727.95 918.7 3622.39 920.26 3519.95 869.301C3423.23 821.982 3344.19 713.304 3316.63 590.066C3293.23 484.508 3306.23 341.51 3347.83 248.952C3379.03 179.793 3438.83 110.114 3495.51 75.7949C3583.39 22.7558 3707.15 12.356 3798.15 50.3153C3839.22 67.4751 3885.5 98.6745 3911.5 126.234C3934.9 151.194 3961.94 197.473 3961.94 212.033C3961.94 231.272 3987.94 227.632 3997.3 206.833C4012.9 173.553 3997.82 125.714 3961.94 93.4746C3896.94 34.7156 3747.19 -0.643779 3621.35 12.876Z" fill="#123939" stroke="#123939" stroke-width="20" stroke-linejoin="round"/>
<path d="M10 30.0359C10 31.5958 78.119 130.394 161.838 249.992C255.956 384.67 317.316 477.228 323.035 493.348C330.835 516.228 331.875 542.227 332.395 712.784V906.741H365.675H399.474L401.034 704.984C402.594 504.268 402.594 503.748 415.074 480.348C421.834 467.348 493.593 361.79 574.712 245.832C655.831 129.354 722.39 32.6358 722.39 31.0758C722.39 29.5159 706.79 27.9559 687.55 27.9559H652.191L530.512 241.672C463.433 358.67 404.154 457.469 398.954 460.068C391.154 464.228 386.475 463.708 379.195 456.949C373.475 451.749 304.316 353.47 224.757 238.032L80.199 27.9559H45.3595C25.5998 27.9559 10 28.9959 10 30.0359Z" fill="#123939" stroke="#123939" stroke-width="20" stroke-linejoin="round"/>
<path d="M4117.94 467.348V906.741H4151.74H4185.54V467.348V27.9559H4151.74H4117.94V467.348Z" fill="#123939" stroke="#123939" stroke-width="20" stroke-linejoin="round"/>
<path d="M4975.93 467.868V907.261L5143.89 905.701C5305.6 904.141 5312.36 903.621 5342.52 891.661C5386.72 873.981 5406.48 860.462 5439.76 824.062C5498 761.663 5524 685.745 5524 581.746C5524 477.228 5499.04 405.469 5443.92 350.35C5391.92 298.351 5336.8 279.631 5246.84 283.791C5181.85 286.911 5147.01 298.351 5102.29 331.631C5060.69 361.79 5059.65 362.31 5051.33 355.55C5044.57 350.35 5043.53 322.791 5043.53 188.633V27.9558H5009.73H4975.93V467.868ZM5316.52 318.111C5377.36 347.23 5427.8 416.909 5446.52 498.548C5451.72 519.867 5454.84 556.787 5454.84 589.546C5454.32 750.223 5371.64 865.141 5241.12 885.421C5194.85 893.221 5087.21 892.701 5073.17 884.901C5048.73 872.421 5049.25 873.981 5048.73 646.225V430.429L5062.25 403.389C5077.85 372.19 5106.97 345.15 5146.49 325.911C5182.37 308.231 5199 304.591 5246.32 304.071C5279.08 303.551 5290.52 306.151 5316.52 318.111Z" fill="#123939" stroke="#123939" stroke-width="20" stroke-linejoin="round"/>
<path d="M3084.2 84.635C3075.36 113.234 3059.24 131.434 3031.68 143.394L3008.28 153.274L3036.36 167.314C3063.92 181.353 3080.04 201.633 3090.44 236.472C3094.08 247.912 3095.12 246.352 3103.43 222.953C3114.87 191.233 3133.59 171.474 3162.19 161.594L3184.55 153.794L3168.95 148.074C3136.19 136.114 3126.83 127.794 3111.75 96.5948C3103.43 78.9151 3094.6 64.3553 3093.04 64.3553C3091.48 64.3553 3087.32 73.1952 3084.2 84.635Z" fill="#123939" stroke="#123939" stroke-width="20" stroke-linejoin="round"/>
<path d="M1000.59 292.631C901.787 321.231 831.588 395.59 802.469 501.668C789.989 547.427 789.469 651.945 801.949 698.744C815.988 752.303 844.588 805.342 877.348 838.622C930.907 892.701 985.506 916.101 1068.7 920.78C1183.1 927.02 1270.46 887.501 1328.18 803.783C1399.94 697.704 1404.62 528.187 1338.06 414.309C1304.26 355.55 1229.38 302.511 1160.22 288.471C1118.62 279.632 1036.99 281.711 1000.59 292.631ZM1176.34 318.111C1236.14 347.75 1279.82 407.549 1302.7 490.748C1315.7 537.547 1315.7 660.265 1303.22 711.224C1282.42 793.383 1236.66 857.342 1175.82 886.981C1143.58 903.101 1137.34 904.141 1088.98 904.141C1043.23 904.141 1033.35 902.581 1006.83 890.101C947.027 862.022 903.347 806.902 878.388 727.344C862.268 676.385 858.108 571.867 870.068 511.028C885.667 431.989 934.547 353.47 984.986 325.391C1023.47 304.071 1046.87 298.351 1094.7 299.911C1135.78 300.951 1146.18 303.551 1176.34 318.111Z" fill="#123939" stroke="#123939" stroke-width="20" stroke-linejoin="round"/>
<path d="M2329.69 291.071C2235.05 316.551 2169.53 380.51 2188.25 429.389C2195.53 448.628 2216.33 453.828 2234.53 440.309C2242.33 434.589 2258.45 412.749 2270.41 391.429C2314.61 316.031 2354.13 294.711 2442 299.391C2482.56 301.471 2495.56 304.591 2524.16 318.631C2563.16 337.87 2586.56 363.35 2596.96 399.229C2619.32 474.628 2599.56 491.268 2448.76 524.027C2261.57 565.106 2193.97 600.466 2156.53 676.905C2140.93 708.624 2139.37 715.384 2139.37 761.143C2139.37 801.702 2141.45 814.182 2150.81 831.342C2166.93 862.021 2203.33 893.221 2238.69 906.741C2276.13 921.3 2341.13 925.98 2383.25 917.14C2423.29 908.821 2494 872.421 2544.44 833.942C2567.32 816.782 2588.64 802.742 2592.28 802.742C2602.16 802.742 2604.76 815.742 2604.76 863.061V906.741H2638.56H2672.88L2671.32 673.785L2669.76 441.349L2654.68 410.149C2625.56 351.39 2566.8 307.711 2494.52 290.551C2453.44 280.671 2366.61 281.191 2329.69 291.071ZM2594.36 521.947C2604.24 531.827 2604.76 539.107 2604.76 627.505C2604.76 746.063 2600.6 761.663 2557.44 803.262C2497.12 860.461 2434.2 888.021 2362.97 888.541C2299.53 888.541 2254.81 864.101 2228.81 815.742C2219.45 799.102 2217.37 786.103 2217.37 748.143C2217.37 707.584 2219.45 697.184 2231.41 672.745C2264.69 604.626 2331.77 561.466 2433.16 542.227C2465.92 535.987 2510.64 527.147 2531.96 521.947C2582.92 509.987 2582.4 509.987 2594.36 521.947Z" fill="#123939" stroke="#123939" stroke-width="20" stroke-linejoin="round"/>
<path d="M1770.17 301.471C1682.3 319.671 1624.06 348.27 1572.58 399.749C1423.34 548.987 1455.58 818.862 1632.38 903.621C1664.62 918.701 1669.3 919.741 1728.57 919.741C1807.09 919.741 1848.17 908.301 1904.85 869.821C1926.17 855.262 1947.49 844.342 1951.13 845.902C1961.53 850.062 1965.17 886.461 1959.97 945.74C1949.57 1077.82 1897.57 1174.54 1815.41 1214.58C1783.69 1230.18 1776.93 1231.74 1733.77 1231.22C1677.1 1230.18 1633.42 1216.66 1588.7 1187.02C1569.98 1174.54 1554.38 1167.78 1549.7 1169.34C1542.94 1171.94 1545.02 1175.58 1559.58 1188.06C1602.22 1223.94 1678.66 1249.93 1741.57 1249.93C1878.33 1249.93 1974.01 1168.82 2013.01 1020.1C2023.93 978.5 2024.45 966.54 2026.01 637.385L2028.09 298.351L1904.33 298.871C1836.21 299.391 1775.89 300.431 1770.17 301.471ZM1944.89 329.031C1954.25 340.471 1954.77 352.43 1954.77 556.267C1954.77 793.903 1955.29 789.743 1921.49 830.822C1867.93 895.821 1748.33 921.301 1672.42 884.381C1634.98 865.662 1599.1 826.662 1577.78 780.383C1554.9 730.464 1548.14 694.064 1548.66 624.386C1549.18 487.108 1600.66 388.83 1696.34 343.07C1745.21 319.151 1774.33 314.471 1862.73 315.511C1931.89 316.551 1935.53 317.071 1944.89 329.031Z" fill="#123939" stroke="#123939" stroke-width="20" stroke-linejoin="round"/>
<path d="M3057.16 602.546V906.741H3093.56H3129.95V602.546V298.351H3093.56H3057.16V602.546Z" fill="#123939" stroke="#123939" stroke-width="20" stroke-linejoin="round"/>
<path d="M4330.1 306.671C4316.58 310.831 4302.02 319.151 4297.34 325.391C4285.9 342.03 4287.46 364.39 4299.94 371.15C4313.46 378.43 4318.14 375.31 4334.26 349.31C4351.94 321.751 4372.22 313.951 4429.94 313.951C4473.62 313.951 4476.74 314.471 4476.74 324.351C4476.74 330.071 4459.06 354.51 4437.74 378.95C4354.54 472.028 4319.18 530.267 4302.54 600.986C4281.22 691.984 4306.7 792.343 4367.54 854.742C4416.94 905.701 4473.62 925.46 4554.73 920.78C4628.57 916.621 4674.85 896.341 4736.73 840.702C4772.61 808.462 4778.33 812.102 4778.33 865.141V906.741H4814.73H4851.13V602.546V298.351H4814.73H4778.85L4777.29 515.707L4775.73 733.064L4756.49 772.063C4733.61 818.342 4694.09 859.942 4653.53 879.701C4630.65 890.621 4616.09 894.261 4580.73 895.301C4517.81 897.901 4485.57 884.901 4439.82 839.662C4384.7 784.023 4360.26 719.544 4361.3 628.545C4361.82 542.227 4388.34 475.148 4456.46 389.35C4498.05 336.31 4510.01 316.551 4505.85 305.631C4501.69 295.231 4364.42 295.751 4330.1 306.671Z" fill="#123939" stroke="#123939" stroke-width="20" stroke-linejoin="round"/>
<path d="M2198.91 1035.18C2196.83 1036.74 2195.27 1098.62 2195.27 1172.46V1306.61L2208.79 1317.01C2228.55 1332.61 2270.67 1339.89 2303.43 1332.61C2353.87 1322.21 2375.71 1284.77 2371.03 1218.22C2367.91 1175.06 2355.95 1154.26 2326.31 1139.7C2308.63 1131.38 2297.71 1129.82 2276.91 1131.9C2261.83 1133.46 2245.71 1136.06 2241.03 1138.14C2232.19 1141.78 2231.67 1137.1 2231.67 1086.66V1031.54H2217.11C2208.79 1031.54 2200.47 1033.1 2198.91 1035.18ZM2309.15 1164.14C2328.91 1174.02 2338.27 1198.98 2337.75 1237.98C2337.23 1275.93 2327.35 1294.13 2300.83 1305.57C2285.75 1311.81 2277.95 1311.81 2257.15 1307.13L2231.67 1300.89V1236.42V1171.42L2248.83 1164.14C2270.67 1154.78 2290.95 1154.26 2309.15 1164.14Z" fill="#123939"/>
<path d="M2767.26 1086.66C2767.26 1141.78 2767.26 1141.78 2755.82 1138.14C2749.06 1136.06 2730.86 1133.46 2715.26 1132.42C2664.3 1127.74 2631.02 1156.34 2624.26 1210.94C2617.5 1264.49 2632.58 1304.01 2667.42 1324.29C2692.38 1338.85 2746.98 1338.33 2776.62 1323.25L2798.46 1312.33V1171.94V1031.54H2782.86H2767.26V1086.66ZM2756.86 1169.34C2766.22 1177.66 2767.26 1185.46 2767.26 1237.46C2767.26 1274.89 2765.18 1297.25 2761.54 1299.85C2747.5 1308.17 2716.82 1311.81 2698.1 1306.61C2667.42 1298.29 2657.02 1278.01 2659.1 1227.58C2660.66 1188.58 2661.7 1185.98 2678.34 1170.9C2693.94 1156.86 2698.62 1155.3 2721.5 1157.38C2735.54 1158.94 2751.14 1164.14 2756.86 1169.34Z" fill="#123939"/>
<path d="M3816.08 1035.18C3814 1036.74 3812.44 1045.06 3812.44 1052.86C3812.44 1064.3 3815.56 1068.46 3825.44 1071.06C3841.56 1075.22 3854.04 1065.86 3854.04 1049.74C3854.04 1034.66 3827 1024.26 3816.08 1035.18Z" fill="#123939"/>
<path d="M4244.04 1086.66C4244.04 1141.78 4244.04 1141.78 4232.6 1138.14C4225.84 1136.06 4207.64 1133.46 4192.04 1132.42C4141.08 1127.74 4107.8 1156.34 4101.04 1210.94C4094.28 1264.49 4109.36 1304.01 4144.2 1324.29C4169.16 1338.85 4223.76 1338.33 4253.4 1323.25L4275.24 1312.33V1171.94V1031.54H4259.64H4244.04V1086.66ZM4233.64 1169.34C4243 1177.66 4244.04 1185.46 4244.04 1237.46C4244.04 1274.89 4241.96 1297.25 4238.32 1299.85C4224.28 1308.17 4193.6 1311.81 4174.88 1306.61C4144.2 1298.29 4133.8 1278.01 4135.88 1227.58C4137.44 1188.58 4138.48 1185.98 4155.12 1170.9C4170.72 1156.86 4175.4 1155.3 4198.28 1157.38C4212.32 1158.94 4227.92 1164.14 4233.64 1169.34Z" fill="#123939"/>
<path d="M5420.26 1183.38L5421.82 1335.73H5434.82H5447.82L5449.38 1183.38L5450.42 1031.54H5434.82H5419.22L5420.26 1183.38Z" fill="#123939"/>
<path d="M2451.62 1140.22C2420.43 1154.78 2406.91 1182.34 2406.91 1235.38C2406.91 1265.53 2409.51 1279.57 2417.31 1292.57C2437.06 1326.37 2476.58 1341.97 2521.3 1333.65C2566.54 1324.81 2585.26 1300.37 2589.42 1244.21C2594.62 1169.34 2561.86 1130.34 2494.26 1130.34C2482.82 1130.34 2463.58 1135.02 2451.62 1140.22ZM2527.54 1164.14C2561.86 1181.82 2568.62 1259.29 2538.46 1293.09C2527.02 1306.09 2520.78 1308.69 2500.5 1308.69C2455.26 1308.69 2436.54 1282.17 2440.7 1221.34C2442.26 1197.94 2445.9 1184.94 2452.66 1176.62C2471.9 1155.82 2502.06 1150.62 2527.54 1164.14Z" fill="#123939"/>
<path d="M2824.46 1134.5C2824.46 1145.94 2888.94 1321.17 2895.7 1328.97C2902.98 1337.29 2902.46 1340.93 2892.06 1366.93C2879.58 1398.13 2865.02 1406.97 2842.66 1396.57C2834.34 1392.93 2829.14 1392.93 2824.98 1397.09C2815.1 1406.97 2818.74 1415.29 2835.38 1421.01C2871.26 1433.49 2902.46 1424.65 2914.94 1398.65C2922.74 1381.49 3004.38 1154.26 3007.5 1140.74C3009.58 1130.86 2984.1 1127.22 2976.82 1136.58C2973.7 1140.22 2960.18 1177.14 2946.66 1218.74C2933.14 1260.33 2920.14 1295.69 2918.58 1298.29C2916.5 1300.37 2901.94 1263.97 2885.82 1217.7C2857.22 1133.46 2856.7 1132.94 2840.58 1131.38C2831.74 1130.34 2824.46 1131.9 2824.46 1134.5Z" fill="#123939"/>
<path d="M3537.89 1141.26L3516.05 1152.18L3517.09 1244.22L3518.65 1335.73H3531.65H3544.65L3546.21 1252.53C3547.25 1181.82 3548.81 1168.3 3556.09 1162.58C3569.09 1153.22 3596.13 1154.78 3610.17 1166.22C3622.13 1175.58 3622.65 1179.74 3625.25 1256.17L3627.85 1335.73H3640.85H3653.85L3655.41 1250.97L3656.45 1166.22L3669.97 1161.54C3688.69 1154.26 3710.01 1155.3 3721.97 1163.62C3730.81 1170.38 3732.37 1179.74 3734.45 1253.57L3737.05 1335.73H3750.05H3763.05L3764.61 1250.97C3765.65 1196.38 3764.09 1162.58 3759.93 1155.82C3747.45 1131.9 3699.09 1123.58 3661.65 1138.66C3645.01 1145.42 3639.29 1145.94 3633.05 1140.74C3628.89 1137.1 3610.69 1133.46 3593.01 1131.9C3566.49 1130.34 3556.09 1131.9 3537.89 1141.26Z" fill="#123939"/>
<path d="M3816.08 1133.46C3814 1135.54 3812.44 1181.3 3812.44 1234.86C3812.44 1320.13 3813.48 1332.61 3820.76 1335.21C3825.44 1337.29 3833.76 1337.29 3839.48 1335.21C3848.32 1332.61 3848.84 1326.37 3847.8 1232.78L3846.24 1132.94L3833.24 1131.38C3825.96 1130.34 3818.16 1131.38 3816.08 1133.46Z" fill="#123939"/>
<path d="M3930.48 1137.62C3894.6 1150.62 3895.12 1148.02 3896.68 1246.81L3898.24 1335.73H3911.24H3924.24L3925.8 1251.49L3926.84 1167.78L3943.48 1162.06C3971.56 1152.18 3998.6 1154.78 4012.64 1169.34C4025.12 1181.3 4025.64 1183.9 4025.64 1257.21C4025.64 1327.93 4026.16 1332.61 4036.04 1335.73C4041.76 1337.29 4048.52 1337.29 4051.64 1335.73C4054.76 1333.65 4056.84 1299.85 4056.84 1250.45C4056.84 1175.58 4055.8 1166.74 4046.44 1154.78C4027.72 1131.38 3971.56 1123.06 3930.48 1137.62Z" fill="#123939"/>
<path d="M4828.51 1137.62C4806.67 1147.5 4795.23 1164.66 4795.23 1189.1C4795.23 1215.1 4816.55 1237.46 4845.15 1242.13C4890.91 1249.93 4904.95 1255.65 4910.67 1268.13C4918.47 1285.81 4904.95 1305.57 4881.55 1309.73C4866.47 1312.85 4852.95 1310.25 4800.43 1296.21C4795.75 1295.17 4792.11 1298.29 4791.07 1305.57C4788.47 1322.21 4819.15 1333.65 4865.43 1334.69C4922.11 1335.21 4946.03 1318.57 4946.03 1278.53C4946.03 1242.65 4927.83 1227.58 4878.43 1220.82C4832.67 1214.58 4813.43 1184.42 4840.99 1162.58C4852.43 1153.74 4885.19 1154.78 4908.07 1164.14C4924.71 1171.42 4927.83 1171.42 4935.11 1164.66C4957.99 1141.26 4871.15 1119.42 4828.51 1137.62Z" fill="#123939"/>
<path d="M5032.35 1135.54C4995.95 1146.98 4980.35 1176.1 4980.35 1231.74C4979.83 1305.57 5005.31 1334.69 5070.83 1334.69C5135.83 1334.69 5161.83 1305.57 5161.83 1231.74C5161.83 1185.98 5152.99 1163.62 5127.51 1144.38C5111.91 1132.94 5056.79 1127.74 5032.35 1135.54ZM5102.03 1164.14C5121.79 1174.02 5129.59 1200.02 5126.99 1244.73C5124.91 1285.81 5116.59 1298.81 5085.91 1307.65C5069.79 1312.85 5063.55 1312.33 5046.91 1304.01C5020.91 1291.53 5013.63 1275.93 5013.63 1235.38C5013.63 1197.94 5024.03 1170.9 5041.19 1162.58C5057.83 1154.78 5084.87 1155.3 5102.03 1164.14Z" fill="#123939"/>
<path d="M5206.02 1213.02C5206.02 1294.13 5206.54 1296.21 5219.02 1311.29C5242.42 1339.37 5303.26 1344.05 5347.98 1321.69L5367.22 1312.33V1221.34V1130.34H5351.62H5336.02V1213.02C5336.02 1268.65 5333.94 1297.25 5330.3 1299.85C5316.78 1308.17 5285.58 1311.81 5267.9 1307.13C5240.86 1299.85 5237.22 1286.85 5237.22 1203.14V1130.34H5221.62H5206.02V1213.02Z" fill="#123939"/>
<path d="M3231.09 1189.1C3224.85 1195.86 3219.65 1207.82 3219.65 1215.62C3219.65 1233.3 3240.97 1255.13 3258.65 1255.13C3275.81 1255.13 3297.65 1233.3 3297.65 1216.14C3297.65 1197.94 3275.81 1177.14 3257.09 1177.14C3248.25 1177.14 3237.85 1181.82 3231.09 1189.1Z" fill="#123939"/>
<path d="M4541.99 1183.38C4506.63 1200.54 4521.19 1255.13 4561.23 1255.13C4575.79 1255.13 4597.63 1232.26 4597.63 1217.18C4597.63 1190.66 4565.91 1171.42 4541.99 1183.38Z" fill="#123939"/>
</svg>
