<svg width="202" height="52" viewBox="0 0 202 52" fill="none" xmlns="http://www.w3.org/2000/svg">
<g id="yoga_iclub 1" clip-path="url(#clip0_537_104)">
<path id="Vector" d="M132.131 0.60447C126.331 1.2278 121.384 4.9678 119.318 10.3134C118.352 12.7689 118.124 14.1667 118.143 17.2077C118.143 19.5122 118.219 20.2301 118.636 21.7601C120.569 29.0701 126.577 33.6601 134.159 33.6411C138.897 33.6222 143.408 32.3756 145.455 30.5244L146.251 29.8256V28.0311V26.2367L145.398 27.2756C144.223 28.7111 141.759 30.6377 139.921 31.5634C136.016 33.5089 132.169 33.5656 128.435 31.7144C124.91 29.9956 122.029 26.0477 121.024 21.5711C120.171 17.7367 120.645 12.5422 122.161 9.18003C123.299 6.6678 125.478 4.1367 127.544 2.89003C130.747 0.963359 135.258 0.585582 138.575 1.96446C140.072 2.5878 141.759 3.72113 142.707 4.72225C143.56 5.62891 144.545 7.31003 144.545 7.83891C144.545 8.53781 145.493 8.40558 145.834 7.65003C146.403 6.44113 145.853 4.70336 144.545 3.53225C142.176 1.3978 136.718 0.113359 132.131 0.60447Z" fill="#123939"/>
<path id="Vector_2" d="M0.499969 1.22778C0.499969 1.28444 2.98286 4.87333 6.03434 9.21778C9.4649 14.11 11.7014 17.4722 11.9099 18.0577C12.1942 18.8889 12.2321 19.8334 12.251 26.0289V33.0745H13.464H14.696L14.7529 25.7455C14.8098 18.4544 14.8098 18.4355 15.2647 17.5855C15.511 17.1134 18.1266 13.2789 21.0833 9.06666C24.04 4.83556 26.4661 1.32222 26.4661 1.26556C26.4661 1.20889 25.8975 1.15222 25.1961 1.15222H23.9074L19.4723 8.91556C17.0273 13.1656 14.8666 16.7544 14.6771 16.8489C14.3928 17 14.2222 16.981 13.9568 16.7355C13.7483 16.5467 11.2276 12.9767 8.3277 8.78333L3.05867 1.15222H1.7888C1.06857 1.15222 0.499969 1.19 0.499969 1.22778Z" fill="#123939"/>
<path id="Vector_3" d="M150.231 17.1134V33.0745H151.463H152.696V17.1134V1.15222H151.463H150.231V17.1134Z" fill="#123939"/>
<path id="Vector_4" d="M181.504 17.1322V33.0934L187.626 33.0367C193.521 32.98 193.767 32.961 194.866 32.5267C196.478 31.8844 197.197 31.3934 198.411 30.071C200.533 27.8044 201.481 25.0467 201.481 21.2689C201.481 17.4722 200.572 14.8655 198.562 12.8633C196.667 10.9745 194.658 10.2945 191.379 10.4456C189.009 10.5589 187.74 10.9745 186.109 12.1833C184.594 13.2789 184.556 13.2978 184.253 13.0522C184.006 12.8633 183.969 11.8622 183.969 6.98889V1.15222H182.736H181.504V17.1322ZM193.919 11.6922C196.137 12.75 197.975 15.281 198.657 18.2467C198.846 19.021 198.96 20.3622 198.96 21.5522C198.941 27.3889 195.928 31.5634 191.17 32.3C189.484 32.5834 185.561 32.5644 185.049 32.281C184.158 31.8277 184.176 31.8844 184.158 23.611V15.7722L184.651 14.79C185.22 13.6567 186.28 12.6744 187.721 11.9756C189.029 11.3333 189.635 11.2011 191.36 11.1822C192.554 11.1633 192.971 11.2578 193.919 11.6922Z" fill="#123939"/>
<path id="Vector_5" d="M112.552 3.21115C112.23 4.25004 111.642 4.91115 110.638 5.3456L109.785 5.70449L110.808 6.21449C111.813 6.72449 112.4 7.46115 112.78 8.7267C112.912 9.14227 112.95 9.0856 113.253 8.2356C113.67 7.08337 114.353 6.3656 115.395 6.0067L116.21 5.72337L115.641 5.5156C114.447 5.08115 114.106 4.77894 113.557 3.6456C113.253 3.00337 112.931 2.47449 112.874 2.47449C112.817 2.47449 112.666 2.7956 112.552 3.21115Z" fill="#123939"/>
<path id="Vector_6" d="M36.6061 10.7667C33.005 11.8056 30.4463 14.5067 29.3848 18.36C28.93 20.0222 28.9111 23.8189 29.3659 25.5189C29.8777 27.4644 30.9201 29.3911 32.1141 30.6C34.0663 32.5644 36.0564 33.4144 39.089 33.5844C43.2587 33.8111 46.4428 32.3755 48.5467 29.3344C51.1622 25.4811 51.3328 19.3234 48.9067 15.1867C47.6749 13.0522 44.9456 11.1256 42.4247 10.6156C40.9085 10.2945 37.9327 10.37 36.6061 10.7667ZM43.0123 11.6922C45.1919 12.7689 46.784 14.9411 47.618 17.9634C48.0918 19.6634 48.0918 24.1211 47.6369 25.9722C46.8788 28.9567 45.2108 31.28 42.9933 32.3567C41.8183 32.9422 41.5908 32.98 39.8282 32.98C38.1602 32.98 37.8001 32.9234 36.8335 32.47C34.6539 31.45 33.0618 29.4477 32.1521 26.5577C31.5644 24.7067 31.4129 20.91 31.8487 18.7C32.4173 15.8289 34.199 12.9767 36.0375 11.9567C37.4401 11.1822 38.293 10.9745 40.0366 11.0311C41.534 11.0689 41.9129 11.1633 43.0123 11.6922Z" fill="#123939"/>
<path id="Vector_7" d="M85.0507 10.7101C81.6012 11.6356 79.2131 13.959 79.8954 15.7345C80.1608 16.4334 80.9189 16.6223 81.5823 16.1311C81.8666 15.9234 82.4541 15.1301 82.8901 14.3556C84.501 11.6167 85.9416 10.8423 89.1447 11.0123C90.623 11.0878 91.0968 11.2012 92.1393 11.7112C93.5608 12.4101 94.4137 13.3356 94.7927 14.639C95.6078 17.3778 94.8875 17.9823 89.391 19.1723C82.5678 20.6645 80.1039 21.9489 78.7393 24.7256C78.1707 25.8778 78.1138 26.1234 78.1138 27.7856C78.1138 29.2589 78.1896 29.7123 78.5308 30.3356C79.1184 31.4501 80.4451 32.5834 81.734 33.0745C83.0986 33.6034 85.4677 33.7734 87.0029 33.4523C88.4623 33.1501 91.04 31.8278 92.8785 30.4301C93.7124 29.8068 94.4895 29.2968 94.6221 29.2968C94.9823 29.2968 95.077 29.7689 95.077 31.4878V33.0745H96.309H97.5599L97.5031 24.6123L97.4462 16.1689L96.8965 15.0356C95.8352 12.9012 93.6935 11.3145 91.059 10.6912C89.5616 10.3323 86.3965 10.3512 85.0507 10.7101ZM94.698 19.0968C95.0581 19.4556 95.077 19.7201 95.077 22.9311C95.077 27.2378 94.9255 27.8045 93.3523 29.3156C91.1537 31.3934 88.8604 32.3945 86.2637 32.4134C83.9515 32.4134 82.3215 31.5256 81.3738 29.7689C81.0326 29.1645 80.9568 28.6923 80.9568 27.3134C80.9568 25.8401 81.0326 25.4623 81.4686 24.5745C82.6815 22.1001 85.1265 20.5323 88.8224 19.8334C90.0165 19.6068 91.6465 19.2856 92.4236 19.0968C94.281 18.6623 94.2621 18.6623 94.698 19.0968Z" fill="#123939"/>
<path id="Vector_8" d="M64.6569 11.0878C61.4538 11.7489 59.3311 12.7878 57.4547 14.6578C52.0151 20.0789 53.1902 29.8822 59.6343 32.9611C60.8095 33.5089 60.9801 33.5467 63.1407 33.5467C66.0026 33.5467 67.4999 33.1311 69.5659 31.7334C70.3429 31.2044 71.12 30.8078 71.2527 30.8644C71.6318 31.0156 71.7644 32.3377 71.5749 34.4911C71.1958 39.2889 69.3005 42.8022 66.3059 44.2567C65.1497 44.8234 64.9034 44.8801 63.3302 44.8611C61.2644 44.8234 59.6723 44.3322 58.0422 43.2556C57.3599 42.8022 56.7913 42.5567 56.6207 42.6134C56.3744 42.7078 56.4502 42.8401 56.9808 43.2934C58.5351 44.5967 61.3212 45.5412 63.6145 45.5412C68.5993 45.5412 72.0867 42.5944 73.5082 37.1922C73.9062 35.6811 73.9251 35.2467 73.9819 23.2901L74.0579 10.9745L69.5469 10.9934C67.0641 11.0123 64.8654 11.05 64.6569 11.0878ZM71.0252 12.0889C71.3664 12.5045 71.3854 12.9389 71.3854 20.3434C71.3854 28.9756 71.4043 28.8244 70.1723 30.3167C68.2202 32.6777 63.8609 33.6034 61.0938 32.2622C59.7291 31.5822 58.4214 30.1656 57.6442 28.4844C56.8102 26.6711 56.5639 25.3489 56.5828 22.8177C56.6018 17.8311 58.4782 14.2612 61.9656 12.5989C63.7471 11.73 64.8086 11.56 68.0307 11.5978C70.5514 11.6356 70.6841 11.6545 71.0252 12.0889Z" fill="#123939"/>
<path id="Vector_9" d="M111.566 22.0244V33.0746H112.893H114.22V22.0244V10.9745H112.893H111.566V22.0244Z" fill="#123939"/>
<path id="Vector_10" d="M157.964 11.2767C157.472 11.4278 156.94 11.7301 156.77 11.9567C156.353 12.5612 156.41 13.3734 156.865 13.619C157.358 13.8834 157.529 13.7701 158.116 12.8256C158.76 11.8245 159.499 11.5412 161.603 11.5412C163.195 11.5412 163.309 11.5601 163.309 11.919C163.309 12.1267 162.665 13.0145 161.887 13.9023C158.855 17.2834 157.566 19.3989 156.96 21.9678C156.183 25.2734 157.111 28.9189 159.328 31.1856C161.129 33.0368 163.195 33.7544 166.152 33.5844C168.844 33.4334 170.53 32.6968 172.786 30.6756C174.093 29.5044 174.302 29.6368 174.302 31.5634V33.0744H175.629H176.955V22.0244V10.9745H175.629H174.321L174.264 18.8701L174.207 26.7656L173.506 28.1823C172.672 29.8634 171.232 31.3744 169.754 32.0923C168.919 32.4889 168.389 32.6211 167.1 32.6589C164.807 32.7534 163.631 32.2811 161.964 30.6378C159.954 28.6168 159.064 26.2744 159.101 22.9689C159.121 19.8334 160.087 17.3968 162.569 14.2801C164.086 12.3534 164.523 11.6356 164.37 11.239C164.218 10.8612 159.215 10.8801 157.964 11.2767Z" fill="#123939"/>
<path id="Vector_11" d="M79.8576 37.1733C79.7817 37.23 79.7248 39.4777 79.7248 42.16V47.0333L80.2177 47.411C80.9379 47.9777 82.4732 48.2422 83.6672 47.9777C85.5056 47.6 86.3017 46.24 86.1311 43.8222C86.0174 42.2543 85.5814 41.4988 84.5011 40.97C83.8567 40.6677 83.4587 40.611 82.7006 40.6867C82.1509 40.7433 81.5634 40.8377 81.3928 40.9133C81.0706 41.0455 81.0516 40.8755 81.0516 39.0433V37.041H80.5209C80.2177 37.041 79.9145 37.0977 79.8576 37.1733ZM83.8756 41.8577C84.5959 42.2167 84.937 43.1233 84.9181 44.54C84.8991 45.9188 84.539 46.58 83.5724 46.9955C83.0227 47.2222 82.7384 47.2222 81.9803 47.0522L81.0516 46.8255V44.4833V42.1222L81.6771 41.8577C82.4732 41.5177 83.2123 41.4988 83.8756 41.8577Z" fill="#123939"/>
<path id="Vector_12" d="M100.574 39.0433C100.574 41.0455 100.574 41.0455 100.157 40.9133C99.9101 40.8377 99.2468 40.7433 98.6782 40.7055C96.8207 40.5355 95.6078 41.5743 95.3613 43.5577C95.1149 45.5033 95.6646 46.9388 96.9345 47.6755C97.8442 48.2043 99.8343 48.1855 100.915 47.6377L101.711 47.241V42.141V37.041H101.142H100.574V39.0433ZM100.194 42.0467C100.536 42.3488 100.574 42.6322 100.574 44.521C100.574 45.881 100.498 46.6933 100.365 46.7877C99.8532 47.09 98.7351 47.2222 98.0528 47.0333C96.9345 46.731 96.5554 45.9943 96.6313 44.1622C96.6881 42.7455 96.7259 42.651 97.3325 42.1033C97.9011 41.5933 98.0717 41.5367 98.9057 41.6122C99.4174 41.6688 99.986 41.8577 100.194 42.0467Z" fill="#123939"/>
<path id="Vector_13" d="M138.802 37.1734C138.727 37.23 138.67 37.5322 138.67 37.8155C138.67 38.2312 138.783 38.3822 139.143 38.4767C139.731 38.6279 140.186 38.2878 140.186 37.7022C140.186 37.1545 139.2 36.7767 138.802 37.1734Z" fill="#123939"/>
<path id="Vector_14" d="M154.401 39.0433C154.401 41.0455 154.401 41.0455 153.984 40.9133C153.738 40.8377 153.074 40.7433 152.505 40.7055C150.649 40.5355 149.435 41.5743 149.189 43.5577C148.943 45.5033 149.492 46.9388 150.762 47.6755C151.672 48.2043 153.662 48.1855 154.743 47.6377L155.539 47.241V42.141V37.041H154.97H154.401V39.0433ZM154.022 42.0467C154.363 42.3488 154.401 42.6322 154.401 44.521C154.401 45.881 154.325 46.6933 154.192 46.7877C153.681 47.09 152.562 47.2222 151.88 47.0333C150.762 46.731 150.383 45.9943 150.458 44.1622C150.515 42.7455 150.553 42.651 151.16 42.1033C151.729 41.5933 151.9 41.5367 152.733 41.6122C153.244 41.6688 153.813 41.8577 154.022 42.0467Z" fill="#123939"/>
<path id="Vector_15" d="M197.274 42.5567L197.331 48.0912H197.804H198.277L198.334 42.5567L198.373 37.041H197.804H197.235L197.274 42.5567Z" fill="#123939"/>
<path id="Vector_16" d="M89.0689 40.9888C87.9317 41.5177 87.4389 42.5188 87.4389 44.4455C87.4389 45.541 87.5337 46.051 87.818 46.5233C88.5381 47.751 89.9787 48.3177 91.6086 48.0155C93.2575 47.6944 93.9398 46.8067 94.0915 44.7667C94.281 42.0467 93.0869 40.63 90.623 40.63C90.2061 40.63 89.5047 40.8 89.0689 40.9888ZM91.836 41.8577C93.0869 42.5 93.3334 45.3144 92.234 46.5422C91.8171 47.0144 91.5897 47.1088 90.8505 47.1088C89.2015 47.1088 88.5192 46.1455 88.6709 43.9355C88.7278 43.0855 88.8604 42.6133 89.1067 42.311C89.8081 41.5555 90.9073 41.3667 91.836 41.8577Z" fill="#123939"/>
<path id="Vector_17" d="M102.658 40.7811C102.658 41.1968 105.009 47.5623 105.255 47.8456C105.52 48.1478 105.501 48.2801 105.122 49.2245C104.667 50.3578 104.137 50.6789 103.322 50.3011C103.019 50.1689 102.829 50.169 102.677 50.3201C102.317 50.679 102.45 50.9811 103.056 51.1889C104.364 51.6423 105.501 51.3211 105.956 50.3768C106.241 49.7534 109.216 41.499 109.33 41.0078C109.406 40.649 108.477 40.5168 108.212 40.8568C108.098 40.989 107.605 42.3301 107.112 43.8411C106.62 45.3523 106.146 46.6368 106.089 46.7311C106.013 46.8068 105.482 45.4845 104.895 43.8034C103.853 40.7434 103.833 40.7245 103.246 40.6678C102.924 40.6301 102.658 40.6868 102.658 40.7811Z" fill="#123939"/>
<path id="Vector_18" d="M128.662 41.0267L127.866 41.4234L127.904 44.7667L127.961 48.0912H128.435H128.909L128.966 45.0689C129.003 42.5 129.06 42.0089 129.326 41.8011C129.8 41.4611 130.785 41.5177 131.297 41.9334C131.733 42.2734 131.752 42.4244 131.847 45.2011L131.941 48.0912H132.415H132.889L132.946 45.0122L132.984 41.9334L133.477 41.7634C134.159 41.4989 134.936 41.5367 135.372 41.8389C135.694 42.0844 135.751 42.4244 135.827 45.1067L135.922 48.0912H136.395H136.869L136.926 45.0122C136.964 43.0289 136.907 41.8011 136.755 41.5555C136.3 40.6867 134.538 40.3844 133.173 40.9322C132.567 41.1777 132.358 41.1967 132.131 41.0077C131.979 40.8755 131.316 40.7434 130.671 40.6867C129.705 40.63 129.326 40.6867 128.662 41.0267Z" fill="#123939"/>
<path id="Vector_19" d="M138.802 40.7434C138.727 40.8189 138.67 42.4811 138.67 44.4267C138.67 47.5244 138.708 47.9777 138.973 48.0722C139.143 48.1477 139.447 48.1477 139.655 48.0722C139.977 47.9777 139.996 47.7511 139.959 44.3511L139.902 40.7244L139.428 40.6677C139.163 40.63 138.878 40.6677 138.802 40.7434Z" fill="#123939"/>
<path id="Vector_20" d="M142.973 40.8944C141.664 41.3668 141.683 41.2723 141.74 44.8611L141.797 48.0911H142.271H142.745L142.802 45.0311L142.839 41.9901L143.446 41.7823C144.469 41.4234 145.455 41.5178 145.966 42.0468C146.421 42.4811 146.441 42.5756 146.441 45.2389C146.441 47.8078 146.46 47.9778 146.819 48.0911C147.028 48.1478 147.274 48.1478 147.388 48.0911C147.501 48.0156 147.578 46.7878 147.578 44.9934C147.578 42.2734 147.54 41.9523 147.199 41.5178C146.516 40.6678 144.469 40.3656 142.973 40.8944Z" fill="#123939"/>
<path id="Vector_21" d="M175.704 40.8944C174.908 41.2534 174.492 41.8767 174.492 42.7644C174.492 43.7089 175.269 44.5211 176.311 44.6911C177.978 44.9744 178.49 45.1822 178.699 45.6355C178.983 46.2777 178.49 46.9955 177.637 47.1467C177.089 47.26 176.595 47.1655 174.681 46.6555C174.51 46.6177 174.378 46.7311 174.339 46.9955C174.246 47.6 175.363 48.0155 177.05 48.0534C179.116 48.0722 179.988 47.4677 179.988 46.0134C179.988 44.71 179.325 44.1622 177.524 43.9167C175.856 43.69 175.155 42.5944 176.159 41.8011C176.577 41.48 177.771 41.5177 178.604 41.8577C179.211 42.1222 179.325 42.1222 179.59 41.8767C180.423 41.0267 177.259 40.2334 175.704 40.8944Z" fill="#123939"/>
<path id="Vector_22" d="M183.134 40.8189C181.808 41.2344 181.239 42.2922 181.239 44.3134C181.219 46.9956 182.149 48.0534 184.537 48.0534C186.905 48.0534 187.854 46.9956 187.854 44.3134C187.854 42.6511 187.531 41.8389 186.603 41.1401C186.034 40.7244 184.025 40.5356 183.134 40.8189ZM185.674 41.8577C186.394 42.2167 186.678 43.1611 186.584 44.7856C186.507 46.2777 186.205 46.7501 185.086 47.0711C184.499 47.2601 184.271 47.2411 183.664 46.9389C182.718 46.4856 182.452 45.9189 182.452 44.4456C182.452 43.0856 182.831 42.1034 183.457 41.8011C184.062 41.5177 185.049 41.5367 185.674 41.8577Z" fill="#123939"/>
<path id="Vector_23" d="M189.464 43.6333C189.464 46.58 189.484 46.6555 189.939 47.2033C190.792 48.2233 193.009 48.3933 194.638 47.5812L195.341 47.2412V43.9355V40.63H194.772H194.203V43.6333C194.203 45.6545 194.127 46.6933 193.994 46.7878C193.501 47.09 192.364 47.2222 191.72 47.0522C190.735 46.7878 190.601 46.3155 190.601 43.2745V40.63H190.033H189.464V43.6333Z" fill="#123939"/>
<path id="Vector_24" d="M117.48 42.7644C117.252 43.0101 117.063 43.4444 117.063 43.7278C117.063 44.3701 117.84 45.1634 118.484 45.1634C119.11 45.1634 119.906 44.3701 119.906 43.7467C119.906 43.0856 119.11 42.3301 118.428 42.3301C118.105 42.3301 117.726 42.5001 117.48 42.7644Z" fill="#123939"/>
<path id="Vector_25" d="M165.262 42.5568C163.972 43.1801 164.503 45.1634 165.962 45.1634C166.493 45.1634 167.289 44.3323 167.289 43.7845C167.289 42.8211 166.133 42.1223 165.262 42.5568Z" fill="#123939"/>
</g>
<defs>
<clipPath id="clip0_537_104">
<rect width="201" height="51" fill="white" transform="translate(0.499969 0.5)"/>
</clipPath>
</defs>
</svg>
