<svg width="201" height="52" viewBox="0 0 201 52" fill="none" xmlns="http://www.w3.org/2000/svg">
<g clip-path="url(#clip0_1224_295)">
<path d="M131.631 0.60447C125.831 1.2278 120.884 4.9678 118.818 10.3134C117.852 12.7689 117.624 14.1667 117.643 17.2077C117.643 19.5122 117.719 20.2301 118.136 21.7601C120.069 29.0701 126.077 33.6601 133.659 33.6411C138.397 33.6222 142.907 32.3756 144.954 30.5244L145.75 29.8256V28.0311V26.2367L144.898 27.2756C143.723 28.7111 141.259 30.6377 139.421 31.5634C135.516 33.5089 131.669 33.5656 127.935 31.7144C124.409 29.9956 121.529 26.0477 120.524 21.5711C119.671 17.7367 120.145 12.5422 121.661 9.18003C122.799 6.6678 124.978 4.1367 127.044 2.89003C130.247 0.963359 134.758 0.585582 138.075 1.96446C139.572 2.5878 141.259 3.72113 142.207 4.72225C143.06 5.62891 144.045 7.31003 144.045 7.83891C144.045 8.53781 144.993 8.40558 145.334 7.65003C145.903 6.44113 145.352 4.70336 144.045 3.53225C141.676 1.3978 136.217 0.113359 131.631 0.60447Z" fill="#EFEFEF"/>
<path d="M0 1.2279C0 1.28457 2.48289 4.87345 5.53437 9.2179C8.96493 14.1101 11.2014 17.4723 11.4099 18.0578C11.6942 18.889 11.7321 19.8335 11.7511 26.029V33.0746H12.9641H14.196L14.2529 25.7457C14.3098 18.4545 14.3098 18.4357 14.7647 17.5857C15.011 17.1135 17.6266 13.279 20.5833 9.06678C23.54 4.83568 25.9661 1.32234 25.9661 1.26568C25.9661 1.20901 25.3975 1.15234 24.6961 1.15234H23.4074L18.9723 8.91568C16.5273 13.1657 14.3667 16.7545 14.1771 16.849C13.8928 17.0001 13.7222 16.9812 13.4569 16.7357C13.2484 16.5468 10.7276 12.9768 7.82773 8.78345L2.5587 1.15234H1.28883C0.5686 1.15234 0 1.19012 0 1.2279Z" fill="#EFEFEF"/>
<path d="M149.731 17.1135V33.0746H150.963H152.196V17.1135V1.15234H150.963H149.731V17.1135Z" fill="#EFEFEF"/>
<path d="M181.004 17.1323V33.0935L187.126 33.0368C193.021 32.9802 193.267 32.9612 194.366 32.5268C195.978 31.8845 196.697 31.3935 197.911 30.0712C200.034 27.8045 200.982 25.0468 200.982 21.269C200.982 17.4723 200.072 14.8657 198.062 12.8635C196.167 10.9746 194.158 10.2946 190.879 10.4457C188.509 10.559 187.24 10.9746 185.61 12.1835C184.094 13.279 184.056 13.2979 183.753 13.0523C183.506 12.8635 183.469 11.8623 183.469 6.98901V1.15234H182.236H181.004V17.1323ZM193.419 11.6923C195.637 12.7501 197.475 15.2812 198.157 18.2468C198.346 19.0212 198.46 20.3623 198.46 21.5523C198.441 27.389 195.428 31.5635 190.67 32.3001C188.984 32.5835 185.061 32.5645 184.549 32.2812C183.658 31.8278 183.676 31.8845 183.658 23.6112V15.7723L184.151 14.7902C184.72 13.6568 185.78 12.6746 187.222 11.9757C188.529 11.3335 189.135 11.2012 190.861 11.1823C192.055 11.1635 192.471 11.2579 193.419 11.6923Z" fill="#EFEFEF"/>
<path d="M112.052 3.21128C111.73 4.25016 111.142 4.91128 110.138 5.34573L109.285 5.70461L110.308 6.21461C111.313 6.72461 111.9 7.46128 112.279 8.72683C112.412 9.14239 112.45 9.08572 112.753 8.23572C113.17 7.08349 113.852 6.36572 114.895 6.00683L115.71 5.72349L115.141 5.51573C113.947 5.08128 113.606 4.77906 113.056 3.64573C112.753 3.00349 112.431 2.47461 112.374 2.47461C112.317 2.47461 112.166 2.79573 112.052 3.21128Z" fill="#EFEFEF"/>
<path d="M36.1062 10.7669C32.5051 11.8058 29.9464 14.5069 28.8849 18.3603C28.4301 20.0225 28.4112 23.8191 28.866 25.5191C29.3778 27.4646 30.4202 29.3913 31.6142 30.6003C33.5664 32.5646 35.5565 33.4146 38.5891 33.5846C42.7588 33.8113 45.9429 32.3758 48.0467 29.3346C50.6623 25.4813 50.8329 19.3236 48.4068 15.187C47.1749 13.0525 44.4457 11.1258 41.9248 10.6158C40.4086 10.2947 37.4328 10.3703 36.1062 10.7669ZM42.5124 11.6925C44.692 12.7691 46.2841 14.9413 47.1181 17.9636C47.5919 19.6636 47.5919 24.1213 47.137 25.9725C46.3789 28.957 44.7109 31.2803 42.4934 32.357C41.3184 32.9425 41.0909 32.9803 39.3283 32.9803C37.6603 32.9803 37.3002 32.9236 36.3336 32.4703C34.154 31.4503 32.5619 29.448 31.6522 26.558C31.0645 24.707 30.913 20.9103 31.3488 18.7003C31.9174 15.8291 33.6991 12.9769 35.5376 11.9569C36.9401 11.1825 37.793 10.9747 39.5367 11.0314C41.0341 11.0691 41.413 11.1636 42.5124 11.6925Z" fill="#EFEFEF"/>
<path d="M84.5507 10.71C81.1011 11.6355 78.713 13.9588 79.3953 15.7343C79.6607 16.4333 80.4188 16.6222 81.0822 16.131C81.3665 15.9233 81.954 15.13 82.39 14.3555C84.001 11.6166 85.4415 10.8422 88.6446 11.0122C90.123 11.0877 90.5967 11.2011 91.6393 11.7111C93.0608 12.41 93.9137 13.3355 94.2926 14.6388C95.1077 17.3777 94.3875 17.9822 88.891 19.1722C82.0678 20.6643 79.6039 21.9488 78.2392 24.7255C77.6706 25.8777 77.6138 26.1233 77.6138 27.7855C77.6138 29.2588 77.6895 29.7122 78.0307 30.3355C78.6183 31.45 79.945 32.5833 81.2339 33.0743C82.5985 33.6033 84.9676 33.7733 86.5028 33.4522C87.9623 33.15 90.5399 31.8277 92.3785 30.43C93.2123 29.8067 93.9894 29.2967 94.1221 29.2967C94.4823 29.2967 94.5769 29.7688 94.5769 31.4877V33.0743H95.809H97.0599L97.003 24.6122L96.9462 16.1688L96.3965 15.0355C95.3352 12.9011 93.1934 11.3144 90.5589 10.6911C89.0615 10.3322 85.8964 10.3511 84.5507 10.71ZM94.198 19.0967C94.558 19.4555 94.5769 19.72 94.5769 22.931C94.5769 27.2377 94.4254 27.8043 92.8522 29.3155C90.6536 31.3933 88.3603 32.3943 85.7637 32.4133C83.4514 32.4133 81.8214 31.5255 80.8737 29.7688C80.5325 29.1643 80.4568 28.6922 80.4568 27.3133C80.4568 25.84 80.5325 25.4622 80.9685 24.5743C82.1815 22.1 84.6265 20.5322 88.3224 19.8333C89.5164 19.6066 91.1464 19.2855 91.9236 19.0967C93.7809 18.6622 93.762 18.6622 94.198 19.0967Z" fill="#EFEFEF"/>
<path d="M64.1571 11.0879C60.954 11.7491 58.8313 12.7879 56.9549 14.6579C51.5153 20.079 52.6904 29.8824 59.1345 32.9612C60.3097 33.509 60.4802 33.5469 62.6409 33.5469C65.5028 33.5469 67.0001 33.1312 69.0661 31.7335C69.8431 31.2045 70.6202 30.8079 70.7528 30.8645C71.132 31.0157 71.2646 32.3379 71.0751 34.4912C70.696 39.289 68.8007 42.8024 65.806 44.2569C64.6499 44.8235 64.4036 44.8802 62.8304 44.8612C60.7645 44.8235 59.1725 44.3324 57.5424 43.2557C56.8601 42.8024 56.2915 42.5569 56.1209 42.6135C55.8746 42.7079 55.9504 42.8402 56.481 43.2935C58.0353 44.5969 60.8214 45.5413 63.1147 45.5413C68.0995 45.5413 71.5868 42.5945 73.0083 37.1924C73.4064 35.6812 73.4253 35.2469 73.4821 23.2902L73.558 10.9746L69.0471 10.9935C66.5643 11.0124 64.3656 11.0502 64.1571 11.0879ZM70.5254 12.0891C70.8666 12.5046 70.8856 12.9391 70.8856 20.3435C70.8856 28.9757 70.9045 28.8245 69.6725 30.3169C67.7204 32.6779 63.3611 33.6035 60.594 32.2624C59.2293 31.5824 57.9215 30.1657 57.1444 28.4845C56.3104 26.6712 56.0641 25.349 56.083 22.8179C56.102 17.8312 57.9784 14.2613 61.4658 12.5991C63.2473 11.7302 64.3088 11.5602 67.5309 11.5979C70.0516 11.6357 70.1842 11.6546 70.5254 12.0891Z" fill="#EFEFEF"/>
<path d="M111.066 22.0245V33.0747H112.393H113.72V22.0245V10.9746H112.393H111.066V22.0245Z" fill="#EFEFEF"/>
<path d="M157.464 11.2765C156.972 11.4276 156.44 11.7298 156.27 11.9565C155.853 12.5609 155.91 13.3732 156.365 13.6187C156.858 13.8832 157.029 13.7698 157.616 12.8254C158.26 11.8243 158.999 11.5409 161.103 11.5409C162.695 11.5409 162.809 11.5598 162.809 11.9187C162.809 12.1265 162.165 13.0143 161.387 13.902C158.355 17.2832 157.066 19.3987 156.46 21.9675C155.683 25.2732 156.611 28.9187 158.829 31.1854C160.63 33.0365 162.695 33.7542 165.652 33.5842C168.344 33.4332 170.03 32.6965 172.286 30.6754C173.594 29.5042 173.803 29.6365 173.803 31.5632V33.0742H175.129H176.455V22.0242V10.9743H175.129H173.821L173.764 18.8699L173.707 26.7654L173.007 28.182C172.172 29.8632 170.732 31.3742 169.254 32.092C168.419 32.4887 167.889 32.6209 166.6 32.6587C164.307 32.7532 163.131 32.2809 161.464 30.6375C159.454 28.6165 158.564 26.2742 158.601 22.9687C158.621 19.8332 159.588 17.3965 162.07 14.2798C163.586 12.3532 164.023 11.6354 163.871 11.2387C163.719 10.8609 158.715 10.8798 157.464 11.2765Z" fill="#EFEFEF"/>
<path d="M79.3574 37.1733C79.2815 37.23 79.2246 39.4777 79.2246 42.16V47.0333L79.7174 47.411C80.4377 47.9777 81.9729 48.2422 83.167 47.9777C85.0054 47.6 85.8015 46.24 85.6309 43.8222C85.5172 42.2543 85.0812 41.4988 84.0008 40.97C83.3565 40.6677 82.9585 40.611 82.2004 40.6867C81.6507 40.7433 81.0632 40.8377 80.8926 40.9133C80.5703 41.0455 80.5514 40.8755 80.5514 39.0433V37.041H80.0206C79.7174 37.041 79.4142 37.0977 79.3574 37.1733ZM83.3754 41.8577C84.0957 42.2167 84.4368 43.1233 84.4179 44.54C84.3989 45.9188 84.0388 46.58 83.0722 46.9955C82.5225 47.2222 82.2382 47.2222 81.4801 47.0522L80.5514 46.8255V44.4833V42.1222L81.1769 41.8577C81.9729 41.5177 82.7121 41.4988 83.3754 41.8577Z" fill="#EFEFEF"/>
<path d="M100.073 39.0433C100.073 41.0455 100.073 41.0455 99.6565 40.9133C99.41 40.8377 98.7467 40.7433 98.1781 40.7055C96.3206 40.5355 95.1077 41.5743 94.8612 43.5577C94.6148 45.5033 95.1645 46.9388 96.4343 47.6755C97.3441 48.2043 99.3342 48.1855 100.415 47.6377L101.211 47.241V42.141V37.041H100.642H100.073V39.0433ZM99.6943 42.0467C100.035 42.3488 100.073 42.6322 100.073 44.521C100.073 45.881 99.9976 46.6933 99.8649 46.7877C99.3531 47.09 98.235 47.2222 97.5526 47.0333C96.4343 46.731 96.0552 45.9943 96.1311 44.1622C96.188 42.7455 96.2258 42.651 96.8324 42.1033C97.401 41.5933 97.5715 41.5367 98.4055 41.6122C98.9173 41.6688 99.4859 41.8577 99.6943 42.0467Z" fill="#EFEFEF"/>
<path d="M138.303 37.1732C138.227 37.2299 138.17 37.5321 138.17 37.8154C138.17 38.2311 138.284 38.3821 138.644 38.4766C139.231 38.6277 139.686 38.2877 139.686 37.7021C139.686 37.1544 138.701 36.7766 138.303 37.1732Z" fill="#EFEFEF"/>
<path d="M153.901 39.0433C153.901 41.0455 153.901 41.0455 153.483 40.9133C153.237 40.8377 152.574 40.7433 152.005 40.7055C150.149 40.5355 148.935 41.5743 148.689 43.5577C148.443 45.5033 148.991 46.9388 150.262 47.6755C151.172 48.2043 153.162 48.1855 154.242 47.6377L155.039 47.241V42.141V37.041H154.47H153.901V39.0433ZM153.522 42.0467C153.863 42.3488 153.901 42.6322 153.901 44.521C153.901 45.881 153.825 46.6933 153.692 46.7877C153.181 47.09 152.062 47.2222 151.38 47.0333C150.262 46.731 149.883 45.9943 149.958 44.1622C150.015 42.7455 150.053 42.651 150.66 42.1033C151.229 41.5933 151.4 41.5367 152.233 41.6122C152.744 41.6688 153.313 41.8577 153.522 42.0467Z" fill="#EFEFEF"/>
<path d="M196.774 42.5567L196.831 48.0912H197.304H197.777L197.834 42.5567L197.873 37.041H197.304H196.735L196.774 42.5567Z" fill="#EFEFEF"/>
<path d="M88.569 40.9887C87.4318 41.5176 86.939 42.5187 86.939 44.4454C86.939 45.5409 87.0338 46.0509 87.3181 46.5232C88.0382 47.7509 89.4788 48.3176 91.1086 48.0154C92.7576 47.6942 93.4399 46.8066 93.5916 44.7666C93.7811 42.0466 92.587 40.6299 90.1231 40.6299C89.7062 40.6299 89.0048 40.7999 88.569 40.9887ZM91.3361 41.8576C92.587 42.4999 92.8335 45.3142 91.7341 46.5421C91.3172 47.0142 91.0897 47.1087 90.3506 47.1087C88.7016 47.1087 88.0193 46.1454 88.171 43.9354C88.2278 43.0854 88.3605 42.6132 88.6068 42.3109C89.3082 41.5554 90.4074 41.3666 91.3361 41.8576Z" fill="#EFEFEF"/>
<path d="M102.158 40.7809C102.158 41.1965 104.509 47.562 104.755 47.8454C105.02 48.1476 105.001 48.2799 104.622 49.2242C104.167 50.3576 103.637 50.6787 102.822 50.3009C102.518 50.1687 102.329 50.1687 102.177 50.3199C101.817 50.6787 101.95 50.9809 102.556 51.1887C103.864 51.642 105.001 51.3209 105.456 50.3765C105.741 49.7532 108.716 41.4987 108.83 41.0076C108.906 40.6487 107.977 40.5165 107.712 40.8565C107.598 40.9887 107.105 42.3299 106.612 43.8409C106.12 45.352 105.646 46.6365 105.589 46.7309C105.513 46.8065 104.982 45.4842 104.395 43.8032C103.352 40.7432 103.333 40.7242 102.746 40.6675C102.424 40.6299 102.158 40.6865 102.158 40.7809Z" fill="#EFEFEF"/>
<path d="M128.162 41.0268L127.366 41.4235L127.404 44.7668L127.461 48.0913H127.935H128.409L128.465 45.069C128.503 42.5002 128.56 42.009 128.826 41.8012C129.299 41.4612 130.285 41.5178 130.797 41.9335C131.233 42.2735 131.252 42.4245 131.346 45.2012L131.441 48.0913H131.915H132.389L132.446 45.0123L132.484 41.9335L132.976 41.7635C133.659 41.499 134.436 41.5368 134.872 41.839C135.194 42.0845 135.251 42.4245 135.327 45.1068L135.421 48.0913H135.895H136.369L136.426 45.0123C136.464 43.029 136.407 41.8012 136.255 41.5557C135.8 40.6868 134.038 40.3845 132.673 40.9323C132.067 41.1778 131.858 41.1968 131.631 41.0078C131.479 40.8757 130.816 40.7435 130.171 40.6868C129.205 40.6302 128.826 40.6868 128.162 41.0268Z" fill="#EFEFEF"/>
<path d="M138.303 40.7433C138.227 40.8188 138.17 42.4809 138.17 44.4266C138.17 47.5243 138.208 47.9776 138.473 48.0721C138.644 48.1476 138.947 48.1476 139.155 48.0721C139.478 47.9776 139.497 47.7509 139.459 44.3509L139.402 40.7243L138.928 40.6676C138.663 40.6299 138.378 40.6676 138.303 40.7433Z" fill="#EFEFEF"/>
<path d="M142.473 40.8942C141.164 41.3665 141.183 41.272 141.24 44.8609L141.297 48.0909H141.771H142.245L142.302 45.0309L142.339 41.9899L142.946 41.782C143.969 41.4232 144.955 41.5175 145.466 42.0465C145.921 42.4809 145.941 42.5754 145.941 45.2387C145.941 47.8075 145.96 47.9775 146.319 48.0909C146.528 48.1475 146.774 48.1475 146.888 48.0909C147.002 48.0154 147.078 46.7875 147.078 44.9932C147.078 42.2732 147.04 41.952 146.699 41.5175C146.016 40.6675 143.969 40.3654 142.473 40.8942Z" fill="#EFEFEF"/>
<path d="M175.204 40.8946C174.408 41.2536 173.992 41.8769 173.992 42.7646C173.992 43.7091 174.769 44.5213 175.811 44.6913C177.479 44.9746 177.99 45.1825 178.199 45.6358C178.484 46.278 177.99 46.9958 177.137 47.1469C176.589 47.2603 176.095 47.1658 174.181 46.6558C174.01 46.618 173.878 46.7313 173.839 46.9958C173.746 47.6003 174.863 48.0158 176.55 48.0536C178.616 48.0725 179.489 47.468 179.489 46.0136C179.489 44.7103 178.825 44.1625 177.024 43.9169C175.356 43.6903 174.655 42.5946 175.659 41.8013C176.077 41.4803 177.271 41.518 178.104 41.858C178.711 42.1225 178.825 42.1225 179.09 41.877C179.923 41.027 176.759 40.2336 175.204 40.8946Z" fill="#EFEFEF"/>
<path d="M182.634 40.8187C181.308 41.2342 180.74 42.292 180.74 44.3131C180.72 46.9953 181.649 48.0531 184.037 48.0531C186.406 48.0531 187.354 46.9953 187.354 44.3131C187.354 42.6508 187.031 41.8387 186.103 41.1398C185.534 40.7242 183.526 40.5353 182.634 40.8187ZM185.175 41.8575C185.894 42.2165 186.178 43.1608 186.084 44.7853C186.008 46.2775 185.705 46.7498 184.586 47.0708C183.999 47.2598 183.772 47.2408 183.165 46.9387C182.218 46.4853 181.952 45.9187 181.952 44.4453C181.952 43.0853 182.332 42.1031 182.957 41.8008C183.563 41.5175 184.549 41.5365 185.175 41.8575Z" fill="#EFEFEF"/>
<path d="M188.964 43.6332C188.964 46.5799 188.984 46.6554 189.439 47.2032C190.292 48.2232 192.51 48.3932 194.139 47.581L194.841 47.241V43.9354V40.6299H194.272H193.704V43.6332C193.704 45.6544 193.627 46.6932 193.495 46.7877C193.001 47.0899 191.864 47.2221 191.22 47.0521C190.235 46.7877 190.102 46.3154 190.102 43.2744V40.6299H189.533H188.964V43.6332Z" fill="#EFEFEF"/>
<path d="M116.98 42.7644C116.752 43.0101 116.563 43.4444 116.563 43.7278C116.563 44.3701 117.34 45.1634 117.984 45.1634C118.61 45.1634 119.406 44.3701 119.406 43.7467C119.406 43.0856 118.61 42.3301 117.928 42.3301C117.605 42.3301 117.226 42.5001 116.98 42.7644Z" fill="#EFEFEF"/>
<path d="M164.762 42.5566C163.472 43.18 164.003 45.1633 165.463 45.1633C165.993 45.1633 166.789 44.3322 166.789 43.7843C166.789 42.821 165.633 42.1222 164.762 42.5566Z" fill="#EFEFEF"/>
</g>
<defs>
<clipPath id="clip0_1224_295">
<rect width="201" height="51" fill="white" transform="translate(0 0.5)"/>
</clipPath>
</defs>
</svg>
