<svg width="40" height="40" viewBox="0 0 40 40" fill="none" xmlns="http://www.w3.org/2000/svg">
<path d="M29.1608 11.5166C27.3105 11.0212 20.7483 11.001 20.0001 11.001C19.2518 11.001 12.6896 11.0111 10.8393 11.5166C9.52483 11.8705 8.49349 12.912 8.13959 14.2265C7.63403 16.1173 7.63403 19.8382 7.63403 20C7.63403 20.1617 7.63403 23.8827 8.13959 25.7735C8.49349 27.0879 9.52483 28.1294 10.8393 28.4833C12.6896 28.9787 19.2518 28.999 20.0001 28.999C20.7483 28.999 27.3105 28.9888 29.1608 28.4833C30.4753 28.1294 31.5066 27.0879 31.8605 25.7735C32.3661 23.8827 32.3661 20.1617 32.3661 20C32.3661 19.8382 32.3661 16.1173 31.8605 14.2265C31.5066 12.912 30.4753 11.8705 29.1608 11.5166ZM30.0001 25.278C29.8282 25.9353 29.3125 26.4509 28.6654 26.6228C27.452 26.9464 22.8211 27.0677 20.0102 27.0677C17.1993 27.0677 12.5683 26.9464 11.355 26.6228C10.7078 26.4509 10.1922 25.9353 10.0203 25.278C9.65628 23.913 9.57539 21.001 9.57539 20C9.57539 18.999 9.65628 16.0869 10.0203 14.7219C10.1922 14.0647 10.7078 13.549 11.355 13.3771C12.5683 13.0536 17.1993 12.9322 20.0102 12.9322C22.8211 12.9322 27.452 13.0536 28.6654 13.3771C29.3125 13.549 29.8282 14.0647 30.0001 14.7219C30.3641 16.0869 30.445 18.999 30.445 20C30.445 21.001 30.3641 23.913 30.0001 25.278Z" fill="#EFEFEF"/>
<path d="M23.4176 19.6459L18.0788 16.6126C18.0182 16.5721 17.9474 16.562 17.8766 16.562C17.8058 16.562 17.7351 16.5822 17.6744 16.6227C17.5531 16.6935 17.4722 16.8249 17.4722 16.9766V23.0534C17.4722 23.195 17.5531 23.3264 17.6744 23.4073C17.7957 23.4781 17.9575 23.4781 18.0788 23.4073L23.4176 20.3739C23.549 20.3032 23.6198 20.1616 23.6198 20.0201C23.6198 19.8785 23.5389 19.7369 23.4176 19.6662V19.6459Z" fill="#EFEFEF"/>
</svg>
