<svg width="40" height="40" viewBox="0 0 40 40" fill="none" xmlns="http://www.w3.org/2000/svg">
<g id="YOUTUBE">
<path id="Vector" d="M29.1608 11.5166C27.3104 11.0212 20.7482 11.001 20 11.001C19.2518 11.001 12.6896 11.0111 10.8392 11.5166C9.52477 11.8705 8.49343 12.912 8.13953 14.2265C7.63397 16.1173 7.63397 19.8382 7.63397 20C7.63397 20.1617 7.63397 23.8827 8.13953 25.7735C8.49343 27.0879 9.52477 28.1294 10.8392 28.4833C12.6896 28.9787 19.2518 28.999 20 28.999C20.7482 28.999 27.3104 28.9888 29.1608 28.4833C30.4752 28.1294 31.5066 27.0879 31.8605 25.7735C32.366 23.8827 32.366 20.1617 32.366 20C32.366 19.8382 32.366 16.1173 31.8605 14.2265C31.5066 12.912 30.4752 11.8705 29.1608 11.5166ZM30 25.278C29.8281 25.9353 29.3124 26.4509 28.6653 26.6228C27.452 26.9464 22.821 27.0677 20.0101 27.0677C17.1992 27.0677 12.5682 26.9464 11.3549 26.6228C10.7078 26.4509 10.1921 25.9353 10.0202 25.278C9.65622 23.913 9.57533 21.001 9.57533 20C9.57533 18.999 9.65622 16.0869 10.0202 14.7219C10.1921 14.0647 10.7078 13.549 11.3549 13.3771C12.5682 13.0536 17.1992 12.9322 20.0101 12.9322C22.821 12.9322 27.452 13.0536 28.6653 13.3771C29.3124 13.549 29.8281 14.0647 30 14.7219C30.364 16.0869 30.4449 18.999 30.4449 20C30.4449 21.001 30.364 23.913 30 25.278Z" fill="#123939"/>
<path id="Vector_2" d="M23.4176 19.6459L18.0788 16.6126C18.0182 16.5721 17.9474 16.562 17.8766 16.562C17.8058 16.562 17.7351 16.5822 17.6744 16.6227C17.5531 16.6935 17.4722 16.8249 17.4722 16.9766V23.0534C17.4722 23.195 17.5531 23.3264 17.6744 23.4073C17.7957 23.4781 17.9575 23.4781 18.0788 23.4073L23.4176 20.3739C23.549 20.3032 23.6198 20.1616 23.6198 20.0201C23.6198 19.8785 23.5389 19.7369 23.4176 19.6662V19.6459Z" fill="#123939"/>
</g>
</svg>
