<svg width="120" height="105" viewBox="0 0 120 105" fill="#123939" xmlns="http://www.w3.org/2000/svg">
<path d="M54.4407 0.531069C44.8569 1.22093 36.0577 4.5008 28.4172 10.2254C26.329 11.7988 24.7116 13.227 22.5752 15.4176C15.5262 22.643 10.8791 31.7685 9.24963 41.6081C8.80303 44.2949 8.6944 45.7715 8.6944 49.0635C8.6944 53.4689 9.00822 56.7246 9.79279 60.2465C10.179 61.9651 10.167 62.3645 9.78072 62.4855C9.52724 62.5702 9.35826 62.8244 9.141 63.4417C9.06857 63.6595 8.98408 65.4991 8.94787 67.7987L8.87545 71.7805L5.61648 72.8819C2.04368 74.0922 1.34361 74.4189 1.04185 75.0604C0.691813 75.8108 0.740094 76.1738 2.24888 83.3629C2.82825 86.0619 3.28692 88.3977 3.28692 88.5672C3.27485 88.7366 2.94895 90.5883 2.53856 92.6821C0.933218 100.997 0.703883 102.582 1.01771 103.175C1.27119 103.684 2.14024 104.398 2.58684 104.494C2.86446 104.543 3.87836 104.277 6.32862 103.514C11.6275 101.88 15.8641 100.452 16.3107 100.15C17.1074 99.6292 17.2039 99.2298 17.2401 96.3372C17.2643 94.9332 17.3005 93.7714 17.3246 93.7714C17.3367 93.7714 20.1974 92.9847 23.6736 92.0165C27.1498 91.0482 30.0708 90.2616 30.1553 90.2616C30.2519 90.2616 30.9882 90.6367 31.7969 91.0966C35.768 93.3478 38.7252 94.7396 41.6462 95.7078C45.0259 96.8334 48.0555 97.5233 51.6645 97.9711C53.8492 98.2373 60.6086 98.2736 62.7088 98.0316C67.1024 97.5112 70.7718 96.5913 74.8998 94.9696C83.5783 91.5566 91.3274 85.6625 96.7711 78.316C98.0747 76.5611 99.1731 74.8062 100.477 72.4099C102.215 69.2268 102.335 69.2147 102.468 72.3251C102.553 74.1406 102.601 74.4552 102.855 74.9757C103.011 75.3024 103.325 75.6776 103.567 75.835C104.339 76.3675 104.931 76.2344 111.014 74.189C116.349 72.3978 117.87 71.8168 118.329 71.4053C118.461 71.2964 118.691 70.9817 118.848 70.7034L119.137 70.2071L117.761 63.8047L116.385 57.4023L117.266 52.9485C118.461 46.9334 118.956 43.8471 118.848 43.2662C118.751 42.7579 118.196 42.0559 117.677 41.7776C117.001 41.4387 116.192 41.5718 113.03 42.5642C111.968 42.9031 111.014 43.2057 110.905 43.242C110.736 43.3146 110.712 42.9394 110.664 40.0105C110.604 36.3434 110.567 36.186 109.795 35.4357C109.348 35.0121 109.348 35.0121 108.238 35.0121C107.345 35.0242 106.874 35.0968 105.824 35.4115C105.112 35.6293 104.484 35.7988 104.424 35.7988C104.363 35.7988 104.074 35.0484 103.772 34.1286C100.549 24.2042 93.5845 15.0303 84.6163 8.94254C82.3592 7.40548 80.9953 6.6188 78.6295 5.45693C73.5479 2.95164 68.4543 1.46299 62.5881 0.74892C61.0914 0.57948 55.8529 0.434246 54.4407 0.531069ZM61.5018 5.23907C63.9762 5.48113 65.8471 5.79581 68.2611 6.38884C79.3899 9.12409 88.6237 15.8049 94.7916 25.6082C96.8194 28.8275 99.7042 35.3752 99.7042 36.767C99.7042 36.9485 99.5593 37.0938 99.161 37.2632C98.3644 37.6142 98.1833 37.5174 97.8816 36.4886C96.6745 32.4221 93.3311 26.3222 90.1807 22.4856C80.7418 10.9516 65.9919 5.22697 51.2421 7.36918C46.8485 7.99852 43.0222 9.1725 39.0149 11.1211C34.561 13.2754 31.1089 15.7322 27.5723 19.2663C19.7628 27.1089 15.4537 36.9969 15.0192 48.0831C14.8985 51.3267 15.2123 54.7639 16.009 58.7821C16.3469 60.4644 16.3228 60.5249 15.5503 60.7306C14.8864 60.9122 14.633 60.8032 14.4881 60.2344C14.4278 59.9802 14.3071 59.5324 14.2346 59.2541C14.1622 58.9636 13.9691 58.0801 13.8001 57.2813C13.4984 55.8774 13.4863 55.6353 13.438 50.3222C13.3777 44.2586 13.438 43.1936 14.0174 40.4583C16.3228 29.4932 22.2372 20.1377 30.964 13.6384C37.2647 8.94254 45.557 5.85632 53.6561 5.19066C54.5252 5.11805 55.4184 5.03333 55.6477 5.00912C56.3719 4.9244 59.4861 5.04543 61.5018 5.23907ZM60.7776 8.68838C66.8851 9.07568 73.0892 11.0605 78.6416 14.413C84.2422 17.7776 89.8186 23.6717 93.2224 29.8078C93.9949 31.1997 94.6829 32.7367 95.6365 35.1331C96.3969 37.0696 96.6383 37.8199 96.5297 37.941C96.3848 38.0741 58.786 48.652 28.2482 57.1482C17.7592 60.065 18.3385 59.9197 18.1092 59.7019C17.7954 59.4235 17.4212 57.8985 17.0591 55.5506C16.6849 53.0574 16.5401 48.2163 16.7694 45.7594C17.4574 38.4372 19.9801 31.5628 24.1685 25.5961C25.3514 23.9259 26.0152 23.1513 27.9344 21.1664C29.8777 19.1816 32.1228 17.1725 33.5109 16.1679C38.4597 12.6218 44.5672 10.0681 50.5661 9.05147C53.1975 8.60367 57.2048 8.45843 60.7776 8.68838ZM105.981 52.0408C105.981 58.5884 105.932 64.0105 105.884 64.0831C105.824 64.1678 104.182 64.7003 102.227 65.2571C96.5297 66.891 74.4049 73.1239 58.7256 77.5052C50.7593 79.7321 37.3613 83.4961 28.9604 85.8561C20.5595 88.2041 13.6432 90.1405 13.5949 90.1405C13.5587 90.1405 13.5225 84.7306 13.5225 78.1224V66.1043L13.9087 65.959C14.8382 65.6323 26.7756 62.2677 60.7776 52.7427C82.6851 46.6066 91.1584 44.2344 98.9196 42.0438C102.577 41.0151 105.655 40.1679 105.776 40.1679C105.969 40.1558 105.981 40.7972 105.981 52.0408ZM113.706 47.4417C113.706 47.5264 113.271 49.8259 112.752 52.537L111.811 57.4871L112.752 61.9772C113.283 64.4583 113.778 66.8789 113.875 67.363L114.044 68.2344L113.476 68.4885C112.716 68.8395 108.962 70.2192 108.105 70.4613C107.719 70.5823 107.321 70.6428 107.236 70.6065C107.115 70.5581 107.067 70.2919 107.067 69.5899V68.6338L108.359 68.2344C109.771 67.8108 110.109 67.5566 110.326 66.8304C110.567 65.959 110.688 62.304 110.688 55.1391V48.0347L111.811 47.6716C113.006 47.2844 113.706 47.1996 113.706 47.4417ZM95.2502 72.4462C94.9243 73.0755 93.0897 75.6897 91.9671 77.13C84.8336 86.2676 74.0066 92.2222 62.2984 93.4688C60.1861 93.6988 55.4063 93.7351 53.2337 93.5293C47.802 93.0452 43.2757 91.7744 38.0855 89.2933L36.5163 88.5429L37.2406 88.2525C38.4234 87.7926 38.9666 87.8531 41.0789 88.6761C44.3137 89.9348 48.0434 90.9877 50.711 91.3992C54.7424 92.0165 61.2121 91.9681 64.7608 91.2782C70.8683 90.1042 76.3844 87.8289 81.3574 84.4401C84.6405 82.2011 89.8548 77.1179 92.0033 74.0316C92.8 72.894 93.2707 72.5309 94.357 72.1799C94.8761 72.0226 95.3347 71.9136 95.383 71.9499C95.4434 71.9742 95.3709 72.2041 95.2502 72.4462ZM90.2894 73.5475C90.2894 74.0558 86.1855 78.5218 83.9525 80.4461C79.0882 84.6337 73.222 87.6352 66.7644 89.2207C63.3968 90.0558 63.2158 90.0679 57.6393 90.08C54.0424 90.08 52.268 90.0316 51.5438 89.9227C48.4418 89.4386 42.7567 87.8531 42.1411 87.2964C42.0083 87.1632 42.117 87.0906 42.6843 86.8728C43.9999 86.3886 48.4056 85.0936 58.2428 82.3342C71.7736 78.5339 86.5597 74.3826 88.2978 73.8743C89.8186 73.4386 90.2894 73.366 90.2894 73.5475ZM8.82717 80.1194C8.83924 82.0679 8.87545 86.0135 8.92373 88.8939L8.99615 94.1224L9.34619 94.4854C9.55139 94.6912 9.93763 94.9696 10.2273 95.1148C10.686 95.3326 10.867 95.3568 11.7844 95.2842L12.8104 95.1995L12.7741 95.962L12.7379 96.7245L10.9274 97.3054C9.24963 97.85 6.32862 98.7335 6.20792 98.7335C6.03894 98.7335 6.35277 96.7729 7.3546 91.605L7.93397 88.5308L7.46323 86.3402C6.5821 82.2616 5.79753 78.3403 5.79753 78.0256C5.79753 77.7714 5.8941 77.6504 6.24413 77.4931C6.66659 77.2873 8.53748 76.6095 8.73061 76.5974C8.77889 76.5853 8.82717 78.1829 8.82717 80.1194Z" fill="#123939"/>
<path d="M63.9763 14.8249C62.1416 15.1517 56.3961 16.6525 55.865 16.9429C55.5029 17.1366 55.2736 17.3786 55.0805 17.7659C54.6942 18.5647 53.6079 23.5632 53.2941 25.9475C53.2216 26.48 53.2458 26.601 53.4872 26.8915C53.6924 27.1214 53.9338 27.2425 54.2718 27.2909C54.8994 27.3756 55.5391 27.0488 56.8548 25.9838C57.3497 25.5844 58.1705 25.0639 58.6533 24.8098C59.4137 24.4346 59.7034 24.3499 60.5 24.3136C61.707 24.2652 61.9364 24.3257 62.552 24.8824C63.1917 25.4633 63.3727 25.9111 63.3727 26.9399C63.3727 29.2878 62.5157 30.7886 60.7052 31.66C59.6792 32.1562 58.7981 32.253 57.917 31.9989C57.241 31.8052 57.0841 31.6721 55.8409 30.3166C55.4667 29.9051 55.3822 29.8688 54.7908 29.8688C53.8734 29.8688 53.3544 30.1592 53.0165 30.8612C52.6664 31.5632 52.7268 32.132 53.2458 32.9429C53.9459 34.0685 55.3098 34.6252 57.2893 34.6131C59.7999 34.601 61.9243 33.899 63.8435 32.4346C65.0264 31.5269 65.9196 30.4255 66.6076 29.0337C67.0904 28.017 67.1628 27.775 67.2111 26.9036C67.2714 25.7296 67.0783 24.3257 66.7645 23.7205C66.4144 23.0549 65.5816 22.2924 64.785 21.9293C64.2177 21.6751 63.8314 21.6025 62.8416 21.5541C61.2846 21.4694 60.6811 21.6025 58.9188 22.4134C57.1083 23.2606 57.1566 23.2485 57.2048 22.7281C57.2773 21.8083 57.8446 19.3877 58.0135 19.2667C58.1101 19.1941 58.8585 18.952 59.6672 18.7463C64.9781 17.3665 65.8471 17.064 66.4507 16.4346C66.7524 16.1199 66.7766 16.0231 66.7162 15.5148C66.68 15.1517 66.5714 14.8734 66.4386 14.7765C66.161 14.5708 65.2798 14.595 63.9763 14.8249Z" fill="#123939"/>
<path d="M46.7036 18.7708C46.4743 18.916 45.8104 19.6422 45.231 20.3683C43.7947 22.1717 42.6601 23.2972 41.2358 24.3381C39.1838 25.8388 38.8579 26.1293 38.6648 26.565C38.5683 26.807 38.52 27.1338 38.5683 27.2912C38.6527 27.63 39.2804 28.0536 39.7149 28.0536C40.2581 28.0536 41.272 27.4243 43.0705 25.972C44.0361 25.1974 44.8569 24.5801 44.8931 24.6164C44.9293 24.6527 44.9896 27.4122 45.0258 30.7526C45.0741 35.2064 45.1345 36.9008 45.2431 37.0945C45.4242 37.4212 46.088 37.627 46.6191 37.506C47.6451 37.2639 48.3331 36.6103 48.49 35.7026C48.5383 35.388 48.5866 31.624 48.5866 27.3275C48.5866 18.9281 48.5866 18.916 47.971 18.6255C47.5244 18.4198 47.1623 18.4682 46.7036 18.7708Z" fill="#123939"/>
<path d="M61.0794 37.7225C59.9448 38.0735 59.0274 39.0781 59.0274 39.9737C59.0274 40.1189 59.124 40.3731 59.2447 40.5183C59.4378 40.7604 59.6551 40.8088 60.9345 40.9419C61.7432 41.0266 62.4916 41.1598 62.5881 41.2445C62.8899 41.4986 62.7933 41.8496 62.3226 42.2853C61.5863 42.9631 60.8138 42.9873 60.0655 42.3337C59.5706 41.898 59.3292 41.8738 59.0757 42.2611C58.605 42.9994 59.293 43.665 60.5362 43.665C62.1657 43.665 63.5658 42.842 63.9279 41.6681C64.3142 40.4578 63.8917 40.1189 61.8639 39.9737C61.2001 39.9374 60.5965 39.8405 60.5121 39.7679C60.4276 39.6953 60.3551 39.4896 60.3551 39.2959C60.3551 38.5213 61.7432 38.1825 62.5278 38.7634C63.0227 39.1265 63.252 39.1386 63.6262 38.836C63.8917 38.6182 63.9038 38.5818 63.7348 38.2793C63.6383 38.0856 63.3848 37.8678 63.1675 37.771C62.7451 37.6015 61.5742 37.5773 61.0794 37.7225Z" fill="#123939"/>
<path d="M57.555 38.9089C57.386 39.1026 56.9997 39.6472 56.6859 40.1313C56.3842 40.6154 56.0462 41.039 55.9376 41.0874C55.8048 41.1358 55.491 40.9059 54.9478 40.3613C54.0667 39.502 53.7166 39.3204 53.4873 39.5988C53.258 39.8771 53.5114 40.5186 54.2236 41.4384C54.9357 42.3703 55.1047 42.7697 55.2133 43.6653C55.3341 44.6457 55.5151 45.0209 55.8169 44.9724C56.1548 44.924 56.4324 44.2947 56.6135 43.1812C56.7946 42.0315 57.0239 41.4626 57.8688 40.0466C58.243 39.4172 58.5447 38.8242 58.5447 38.7395C58.5447 38.449 57.8809 38.5579 57.555 38.9089Z" fill="#123939"/>
<path d="M50.1678 40.301C49.6971 40.5794 47.3072 46.2193 47.5244 46.5582C47.79 46.9576 48.4297 46.5219 48.9125 45.6263C49.166 45.1421 49.6367 44.9122 50.6868 44.7306L51.5438 44.5854L52.1232 45.1542C52.437 45.4689 52.7629 45.7231 52.8353 45.7231C52.9078 45.7231 53.0888 45.5899 53.2095 45.4205C53.5233 45.0211 53.4751 44.8517 52.4491 42.8184C51.9542 41.8502 51.4352 41.003 51.1214 40.6883C50.5782 40.1195 50.5178 40.0953 50.1678 40.301ZM50.9282 42.6248C51.1334 43.121 51.3024 43.5809 51.3024 43.6414C51.3024 43.7019 51.0248 43.8108 50.6868 43.8834C50.0471 44.0408 49.4919 44.0771 49.4919 43.9682C49.4919 43.7382 50.3851 41.6202 50.4575 41.6686C50.5178 41.7049 50.723 42.1285 50.9282 42.6248Z" fill="#123939"/>
<path d="M43.4928 42.0328C42.1048 42.3838 41.9358 42.4806 41.8513 42.9406C41.7064 43.6304 41.6099 46.5109 41.6944 47.3339C41.803 48.3021 41.7789 48.29 43.4325 47.8422C44.9171 47.4307 45.5206 47.1523 46.0879 46.644C47.3795 45.47 47.5364 43.0979 46.4018 42.0934C46.0397 41.7787 45.8948 41.7303 45.2913 41.7303C44.9171 41.7424 44.1084 41.8755 43.4928 42.0328ZM45.243 42.8679C45.7017 43.0979 45.919 43.5699 45.9069 44.2477C45.8948 45.0101 45.5689 45.7605 45.0861 46.1962C44.6154 46.6077 43.7222 46.9708 43.3238 46.9103C43.0342 46.874 43.0342 46.8498 42.998 45.3369C42.9617 43.3278 43.0342 43.0495 43.6497 42.8558C44.3015 42.6622 44.8568 42.6622 45.243 42.8679Z" fill="#123939"/>
<path d="M89.2754 51.7616C89.0944 51.9552 88.8892 52.3183 88.8288 52.5725C88.7081 53.105 88.7081 59.7494 88.8288 60.9718L88.9012 61.7585L89.3961 61.7948C89.8789 61.8311 91.1704 61.5407 93.3672 60.9113C95.2381 60.3788 95.4554 60.2699 95.6002 59.81C95.6726 59.58 95.6968 59.2895 95.6606 59.1443C95.5761 58.9022 95.5157 58.8901 94.8881 58.9507C94.357 58.9991 92.1964 59.5437 90.8687 59.9552C90.6635 60.0157 90.6514 59.7979 90.6393 56.4696C90.6273 52.7177 90.5549 51.7011 90.2772 51.5195C89.9634 51.3259 89.6134 51.4106 89.2754 51.7616Z" fill="#123939"/>
<path d="M83.337 53.2269C82.9025 53.3964 82.6007 53.9047 81.9489 55.5628C81.0557 57.8502 79.1848 63.5023 79.1848 63.9501C79.1848 64.3616 79.3779 64.652 79.7159 64.7731C80.1022 64.9062 80.6815 64.1437 81.1161 62.9334C81.3213 62.3525 81.5264 61.8079 81.5747 61.7473C81.623 61.6747 81.9006 61.5537 82.2024 61.469C83.8439 61.0454 85.5338 60.6097 85.6062 60.6097C85.6424 60.6097 85.8476 60.9728 86.0649 61.4206C86.5356 62.4372 86.7408 62.6672 87.1512 62.6672C87.5978 62.6672 88.1168 62.1346 88.1168 61.6747C88.1168 61.2027 87.803 60.295 86.9098 58.1891C85.8355 55.6717 84.894 53.699 84.5923 53.3843C84.3267 53.0938 83.8198 53.0333 83.337 53.2269ZM84.1336 56.5794C84.7492 58.056 85.0872 59.0847 84.9906 59.1936C84.8578 59.3268 82.3352 59.944 82.2507 59.8472C82.0937 59.702 83.4335 55.6475 83.6387 55.6475C83.6991 55.6475 83.9164 56.0711 84.1336 56.5794Z" fill="#123939"/>
<path d="M77.4225 54.8601C76.6862 55.1627 76.7104 54.9812 76.6742 60.3911L76.6379 65.3291H77.1087C77.7363 65.3291 78.1467 64.9902 78.3398 64.3367C78.545 63.5863 78.6416 57.9101 78.4726 56.4335C78.2795 54.8117 78.1226 54.5576 77.4225 54.8601Z" fill="#123939"/>
<path d="M71.2183 56.6512C69.2026 57.1837 67.9956 57.6558 67.7662 58.0188C67.5007 58.4182 67.4283 60.984 67.5731 64.6996C67.6938 68.0158 67.7421 68.161 68.4422 67.8706C68.6474 67.7858 68.937 67.5438 69.0819 67.338C69.3233 66.9991 69.3474 66.7813 69.4078 64.9659L69.4681 62.9689L69.8302 62.8963C71.17 62.6058 71.5804 62.8358 72.9202 64.6149C73.5117 65.4016 74.1031 66.1035 74.2359 66.1762C74.4169 66.273 74.5618 66.2609 74.8273 66.1277C75.2256 65.9099 75.6843 65.3774 75.6843 65.1232C75.6843 64.5423 74.4049 62.7389 73.572 62.158L73.053 61.7828L73.741 61.3229C75.6481 60.04 76.0344 57.571 74.4894 56.5302C73.91 56.1429 73.0651 56.1792 71.2183 56.6512ZM73.2703 58.273C73.5841 58.6724 73.5599 59.3986 73.2099 59.919C72.8357 60.4878 69.8664 61.7102 69.5647 61.4076C69.5164 61.3592 69.444 60.7299 69.4319 60.0037L69.3836 58.6845L70.2165 58.4424C71.7253 58.0067 71.8822 57.9704 72.4495 57.9583C72.9202 57.9462 73.053 57.9946 73.2703 58.273Z" fill="#123939"/>
<path d="M65.6658 58.2145C64.7123 58.4202 62.0327 59.1706 60.717 59.5942C59.2927 60.0541 58.9065 60.3204 58.9065 60.865C58.9065 61.4338 59.2445 61.5065 60.5722 61.2402C61.3447 61.0708 61.7068 61.0466 61.7671 61.1313C61.8154 61.2039 61.8878 62.8499 61.9361 64.7863C62.0206 68.3688 62.1172 69.0949 62.5396 69.3612C62.8052 69.5306 63.3363 69.3733 63.4932 69.0707C63.6622 68.7682 63.8312 66.4686 63.9277 63.0314L64.0001 60.4172L65.183 60.0178C66.6435 59.5216 67.0781 59.2674 67.1867 58.8438C67.3557 58.1661 66.8246 57.9482 65.6658 58.2145Z" fill="#123939"/>
<path d="M53.8977 61.3483C49.999 62.4496 49.7455 62.5465 49.3954 63.2C49.2144 63.5389 49.1902 64.0472 49.2023 67.8112C49.2023 70.1349 49.2385 72.2045 49.2989 72.3982C49.3834 72.7371 49.3954 72.7371 49.999 72.6644C50.7594 72.5555 53.4148 71.8778 55.0202 71.3694C56.2755 70.97 56.6135 70.7159 56.6135 70.1592C56.6135 69.7719 56.4324 69.6145 56.0099 69.6629C55.684 69.7113 51.5802 70.728 51.2543 70.849C51.0853 70.9095 51.0611 70.7643 51.0611 69.3967V67.8838L51.7009 67.7023C52.0388 67.6055 52.932 67.3634 53.6683 67.1697C54.4046 66.9761 55.165 66.7219 55.3823 66.613C56.0703 66.2499 56.3479 65.5722 55.9013 65.3301C55.6116 65.1849 54.308 65.4148 52.5699 65.9353C51.0611 66.3831 51.037 66.371 51.0853 64.7976L51.1215 63.7083L53.0407 63.1758C54.1028 62.8853 55.3099 62.4981 55.7323 62.3044C56.541 61.9292 56.6255 61.7719 56.3479 61.1546C56.1669 60.7552 55.9617 60.7673 53.8977 61.3483Z" fill="#123939"/>
<path d="M45.6294 63.6351C44.2052 64.0102 41.4531 64.8938 41.2117 65.0632C40.9703 65.2205 40.922 65.7288 40.8013 68.8393C40.6806 72.1192 40.7772 74.5155 41.0548 74.8423C41.2842 75.1207 41.9842 74.9996 44.6638 74.225C48.0314 73.2447 48.4056 73.0632 48.4056 72.3975C48.4056 71.7924 47.8142 71.8166 45.0742 72.5306C43.9396 72.8332 42.9378 73.0753 42.8654 73.0753C42.6722 73.0753 42.6843 70.5216 42.8895 70.2553C42.974 70.1343 43.662 69.8801 44.5431 69.6381C46.5468 69.0934 47.3434 68.7788 47.6814 68.4157C47.9469 68.1373 47.9469 68.1131 47.7538 67.8105C47.4883 67.399 47.2469 67.4232 45.0863 67.9921C44.0965 68.2583 43.155 68.4762 43.0102 68.4762C42.7447 68.4762 42.7326 68.4399 42.7326 67.2175V65.9588L43.6137 65.7531C45.4001 65.3174 47.7417 64.5791 47.959 64.3854C48.1039 64.2523 48.1642 64.0587 48.1401 63.7682C48.1039 63.3446 48.0918 63.3325 47.5607 63.3083C47.2589 63.2841 46.4019 63.4414 45.6294 63.6351Z" fill="#123939"/>
<path d="M36.0336 66.2981C34.8024 66.5765 33.1488 67.109 32.5694 67.3995C31.8693 67.7505 31.8452 68.0167 31.8935 72.8821C31.9297 77.4206 31.9659 77.6748 32.5211 77.6748C32.9919 77.6748 33.4023 77.2512 33.5471 76.6219C33.6195 76.2951 33.7282 75.339 33.7885 74.4918C33.8489 73.6325 33.9454 72.8821 34.0178 72.8095C34.223 72.6037 35.0076 72.4827 35.4059 72.6037C35.9008 72.7489 36.4198 73.2573 37.4941 74.6733C38.4356 75.9199 38.7735 76.1377 39.2805 75.8594C39.6184 75.6778 39.9564 75.1332 39.9564 74.7459C39.9564 74.1166 38.4476 72.1317 37.6148 71.6839C37.4217 71.575 37.4699 71.5024 38.0734 71.103C39.1839 70.3647 39.715 69.3359 39.715 67.9562C39.715 67.0364 39.4374 66.4434 38.9184 66.2255C38.3752 65.9956 37.2044 66.0319 36.0336 66.2981ZM37.5182 67.9441C37.8683 68.1862 37.8924 69.0939 37.5424 69.6506C37.1802 70.2558 35.0076 71.2119 34.211 71.1151L33.8609 71.0788L33.8247 69.7353L33.7885 68.404L35.0921 68.0894C36.625 67.7142 37.144 67.6779 37.5182 67.9441Z" fill="#123939"/>
<path d="M28.9724 68.1853C27.3791 68.5968 26.0031 69.0567 25.3151 69.4077C24.3495 69.8918 24.3374 69.916 24.3374 74.7935C24.3495 78.5212 24.3736 79.0174 24.5547 79.2957C24.7961 79.683 25.4237 79.7193 25.8341 79.3926C26.0997 79.1868 26.1238 79.0295 26.2204 77.1414C26.2686 76.0159 26.3773 75.0113 26.4376 74.8903C26.51 74.7693 27.0291 74.5393 27.7895 74.2973C29.3948 73.8011 30.2518 73.4501 30.4208 73.2564C30.4932 73.1596 30.5415 72.9418 30.5174 72.7481C30.4691 72.2519 30.0587 72.2519 28.1637 72.7239C26.9084 73.0386 26.5342 73.0991 26.4135 72.9781C26.329 72.8933 26.2445 72.3608 26.2204 71.6952C26.1721 70.6664 26.1842 70.5575 26.3893 70.497C26.5221 70.4607 27.3188 70.2307 28.1878 69.9887C30.6139 69.3109 31.6278 68.6452 31.145 68.0522C30.9278 67.798 30.3001 67.8344 28.9724 68.1853Z" fill="#123939"/>
</svg>
