<svg width="40" height="40" viewBox="0 0 40 40" fill="none" xmlns="http://www.w3.org/2000/svg">
<g id="WHATSAPP">
<path id="Vector" fill-rule="evenodd" clip-rule="evenodd" d="M30.546 19.4641C30.4044 13.9029 25.824 9.44385 20.1921 9.44385C14.5601 9.44385 10.0809 13.8018 9.83821 19.2821C9.83821 19.4337 9.83821 19.5854 9.83821 19.7371C9.83821 21.6784 10.3842 23.4984 11.3246 25.0455L9.45398 30.5662L15.1972 28.7462C16.6835 29.5652 18.3923 30.0303 20.2022 30.0303C25.9252 30.0303 30.5662 25.4297 30.5662 19.7472C30.5662 19.6562 30.5662 19.5753 30.5662 19.4843L30.546 19.4641ZM20.1921 28.3721C18.4226 28.3721 16.7745 27.8463 15.3994 26.9363L12.0526 28.0081L13.1345 24.7927C12.093 23.367 11.4762 21.6178 11.4762 19.727C11.4762 19.4438 11.4863 19.1607 11.5167 18.8877C11.9413 14.5096 15.6724 11.0819 20.182 11.0819C24.6916 11.0819 28.5136 14.6006 28.8675 19.0495C28.8877 19.272 28.8979 19.4944 28.8979 19.727C28.8979 24.4995 24.9848 28.3721 20.182 28.3721H20.1921Z" fill="#123939"/>
<path id="Vector_2" fill-rule="evenodd" clip-rule="evenodd" d="M24.9444 21.81C24.6916 21.6887 23.4378 21.0719 23.2053 20.991C22.9727 20.9 22.8008 20.8697 22.6289 21.1123C22.457 21.3651 21.9717 21.9314 21.82 22.0931C21.6683 22.265 21.5268 22.2852 21.2639 22.1538C21.0111 22.0325 20.1921 21.7696 19.2214 20.9C18.4732 20.2327 17.9575 19.4137 17.8059 19.1609C17.6643 18.9081 17.7957 18.7767 17.9171 18.6452C18.0283 18.534 18.1699 18.352 18.3013 18.2003C18.3316 18.1599 18.362 18.1194 18.3923 18.079C18.453 17.988 18.4934 17.897 18.5541 17.7756C18.6451 17.6038 18.5945 17.4622 18.5339 17.3307C18.4732 17.2094 17.9575 15.9657 17.7452 15.4602C17.5329 14.9546 17.3205 15.0456 17.1689 15.0456C17.0172 15.0456 16.8554 15.0254 16.6835 15.0254C16.5116 15.0254 16.2386 15.0861 16.0061 15.3388C15.7735 15.5916 15.1163 16.1983 15.1163 17.442C15.1163 17.7352 15.1668 18.0284 15.2477 18.3014C15.5005 19.1912 16.0566 19.9192 16.1577 20.0507C16.2791 20.2124 17.9171 22.8414 20.4954 23.8626C23.0839 24.8636 23.0839 24.5299 23.549 24.4895C24.0141 24.4491 25.0556 23.8828 25.2578 23.2863C25.4702 22.6998 25.4702 22.1942 25.4095 22.083C25.3488 21.9819 25.1769 21.9212 24.9242 21.7898L24.9444 21.81Z" fill="#123939"/>
</g>
</svg>
