<?xml version="1.0" encoding="utf-8"?>
<!-- Generator: Adobe Adobe Illustrator 24.2.0, SVG Export Plug-In . SVG Version: 6.00 Build 0)  -->
<svg version="1.1" id="Layer_1" xmlns="http://www.w3.org/2000/svg" xmlns:xlink="http://www.w3.org/1999/xlink" x="0px" y="0px"
	 width="810px" height="232px" viewBox="0 0 810 232" style="enable-background:new 0 0 810 232;" xml:space="preserve">
<style type="text/css">
	.st0{fill:#123939;}
</style>
<g>
	<path class="st0" d="M299.31,58.95c0-0.55-0.45-1-1-1c-2.99,0-5.93-0.01-8.85-0.02c-7.43-0.02-14.45-0.05-21.59,0.08
		c-3.37,0.06-7.04,0.53-10.92,1.38c-16.98,3.74-30.06,14.89-35.87,30.6c-5.82,15.72-3.4,32.93,6.47,46.04
		c6.76,8.98,15.32,13.68,25.44,13.96c12.11,0.33,21.96-2.62,30.1-9.02c0.89-0.7,1.93-1.26,2.95-1.81c0.25-0.13,0.5-0.27,0.74-0.4
		c1.09,1.32,1.12,2.63,1.16,4.12l0.01,0.29c0.2,7.22-0.47,13.81-2.04,20.14c-1.94,7.78-4.64,13.64-8.51,18.45
		c-5.62,6.98-11.78,10.39-18.85,10.43c-3.55,0-7.46-0.44-12.35-1.44c-5.98-1.23-10.86-4.75-14.84-8.02c-0.36-0.3-0.87-0.3-1.24-0.02
		c-0.13,0.1-0.25,0.19-0.36,0.27c-0.27,0.19-0.53,0.38-0.76,0.64c-0.23,0.26-0.39,0.54-0.55,0.83c-0.07,0.12-0.14,0.26-0.23,0.4
		c-0.25,0.42-0.17,0.96,0.21,1.28c8.61,7.34,18.03,11.01,28.17,11.01c5.55,0,11.31-1.1,17.26-3.31c9.74-3.61,16.7-11.28,21.27-23.45
		c2.87-7.63,4.17-16.02,4.2-27.18c0.03-10.47,0.02-20.93,0.02-31.53L299.31,58.95z M286.92,122.61c0.04,6.47-2.75,11.69-8.53,15.95
		c-7.32,5.4-15.39,7.38-23.97,5.92c-9.7-1.66-16.55-8-20.92-19.37c-4.91-15.14-4.28-29.14,1.92-42.79
		c5.11-11.24,14.25-17.73,27.15-19.27c5.6-0.67,11.42-0.62,17.04-0.57l0.78,0.01c4.88,0.04,6.46,1.64,6.48,6.57
		c0.03,8.08,0.02,16.15,0.02,24.23C286.87,102.89,286.86,112.83,286.92,122.61z"/>
	<path class="st0" d="M797.47,75.26c-4.47-9.86-12.22-16.27-22.41-18.54c-14.48-3.22-26.43-0.79-36.56,7.41l-0.51,0.42
		c-1.28,1.06-2.4,1.99-4.01,2.05c-0.9-1.52-0.89-3.29-0.88-5.16l0-0.63c-0.01-7.61-0.01-15.21-0.01-22.82c0-4.88,0-9.75,0-14.63
		c0-0.77-0.04-1.54-0.09-2.29c-0.02-0.32-0.04-0.63-0.05-0.93c-0.02-0.53-0.46-0.96-1-0.96h-8.92c-0.55,0-1,0.45-1,1v126.4
		c0,0.55,0.45,1,1,1h27.55h0c1.46,0,2.88,0,4.28,0.01c1.15,0,2.28,0.01,3.39,0.01c1.84,0,3.64-0.01,5.45-0.04
		c13.31-0.26,23.5-5.89,30.31-16.74C805.04,113.22,806.2,94.53,797.47,75.26z M740.6,143c-4.83-0.04-6.38-1.64-6.39-6.58
		c-0.01-6.48,0-12.97,0.01-19.45c0.02-11.18,0.04-22.73-0.08-34.1c-0.06-6.28,2.47-11.2,7.96-15.48c5.75-4.48,12.15-6.74,19.04-6.74
		c0.63,0,1.26,0.02,1.89,0.06c7.98,0.47,14.43,4.49,19.71,12.29c0.92,1.36,1.73,2.87,2.5,4.33c0.36,0.68,0.72,1.36,1.1,2.04
		c6.08,14.83,5.95,29.11-0.41,43.66c-5.21,11.92-14.45,18.53-27.47,19.63c-5.56,0.47-11.28,0.41-16.82,0.36L740.6,143z"/>
	<path class="st0" d="M527.38,149.66c3.02,0.22,5.96,0.32,8.84,0.32c12.52,0,23.77-2.05,34.15-6.22c4.06-1.63,8.7-3.81,12.33-7.68
		c0.93-0.99,2.17-2.48,2.26-4.04c0.18-2.9,0.15-5.85,0.12-8.98c-0.01-1.26-0.02-2.57-0.02-3.94c0-0.41-0.25-0.78-0.63-0.93
		c-0.38-0.15-0.82-0.05-1.1,0.25c-0.38,0.41-0.69,0.73-0.96,1.01c-0.47,0.49-0.8,0.84-1.11,1.23c-4.73,6.08-10.49,11.3-17.13,15.53
		c-10.36,6.6-20.17,9.61-30.02,9.27c-16.49-0.6-29.8-8.15-39.55-22.43c-6.22-9.11-9.76-19.6-10.83-32.08
		c-1.58-18.49,1.98-34.06,10.87-47.61c11.65-17.75,32.65-26.12,52.23-20.83c16.21,4.37,25.9,12.95,29.62,26.23
		c0.12,0.45,0.46,0.71,0.68,0.88c0.05,0.04,0.11,0.08,0.17,0.14c0.23,0.22,0.55,0.31,0.86,0.26c2.47-0.43,5.48-1.98,5.83-6.9
		c0.33-4.69-1.23-8.95-4.63-12.68c-3.29-3.6-7.47-6.35-12.77-8.39c-13.96-5.37-28.22-6.92-42.39-4.61
		c-18.71,3.05-33.12,12.66-42.85,28.55c-10.21,16.67-12.79,35.6-7.7,56.26c4.2,17.03,13.98,30.21,29.06,39.17
		c7.07,4.2,15.12,6.89,24.62,8.21C527.33,149.66,527.36,149.66,527.38,149.66z"/>
	<path class="st0" d="M391.94,147.41c0.55,0,1-0.45,1-1l0-14.84c0-13.19,0-26.38-0.01-39.58V91.5c0-2.07,0-4.2-0.15-6.31
		c-0.81-11.26-6.7-19.66-17.52-24.97c-11.86-5.81-24.67-6.37-38.09-1.66c-0.04,0.02-0.09,0.03-0.13,0.06
		c-0.88,0.46-1.76,0.89-2.62,1.32c-2.33,1.16-4.54,2.25-6.58,3.67c-4.28,2.98-6.69,6.4-7.34,10.48c-0.5,3.13,0.84,6.15,3.19,7.18
		c2.25,0.99,5.21,0.16,7.21-2.01c0.74-0.81,1.32-1.73,1.84-2.6c1.16-1.95,2.24-3.9,3.15-5.55c3.62-6.58,8.9-10.16,16.15-10.93
		c5.79-0.61,11.32,0.08,16.44,2.07c7.44,2.89,11.42,8.12,12.18,16c0.42,4.31-0.4,5.81-3.98,7.3c-3.93,1.64-8.19,2.76-12.31,3.85
		c-3.26,0.86-6.6,1.66-9.83,2.44c-5.59,1.34-11.37,2.74-16.96,4.48c-8.9,2.77-15.66,7.69-20.08,14.63
		c-4.65,7.29-5.56,15.78-2.5,23.29c3.02,7.42,9.49,12.77,17.74,14.7c3.22,0.75,6.4,1.12,9.53,1.12c7.06,0,13.88-1.9,20.39-5.68
		c3.4-1.97,6.63-4.31,9.76-6.57c1.38-1,2.76-2,4.16-2.97c0.24-0.17,0.47-0.34,0.71-0.52c0.93-0.71,1.76-1.33,3-1.33c0,0,0,0,0,0
		c0.71,2.29,0.63,4.7,0.55,7.24c-0.07,2.07-0.14,4.21,0.24,6.36c0.08,0.48,0.5,0.83,0.99,0.83H391.94z M329.13,133.51
		c-1.83-3.45-2.53-7.28-2.08-11.36c0.08-0.77,0.18-1.55,0.27-2.32l0.11-0.94c3.6-12.49,12.04-19.81,26.53-23.03
		c5.75-1.28,11.64-2.44,17.33-3.57l4.24-0.84c2.04-0.41,3.39-0.3,4.15,0.31c0.74,0.6,1.11,1.84,1.14,3.81
		c0.11,8.1,0.1,15.2-0.02,21.69c-0.09,5.21-1.93,9.45-5.62,12.97c-8.19,7.82-16.82,12.03-26.4,12.86
		C340.45,143.81,332.55,139.96,329.13,133.51z"/>
	<path class="st0" d="M693.3,141.15c-0.04,1.86-0.08,3.61,0.27,5.39c0.09,0.47,0.5,0.81,0.98,0.81h9.65c0.55,0,1-0.45,1-1V59.19
		c0-0.55-0.45-1-1-1h-9.75c-0.51,0-0.94,0.39-1,0.9l-0.05,0.45c-0.03,0.28-0.05,0.47-0.05,0.66c0,4.81-0.01,9.62-0.01,14.43
		c-0.01,12.34-0.03,25.09,0.02,37.64c0.03,8.2-2.5,15.42-7.53,21.44c-5.94,7.11-14.15,10.97-22.52,10.6
		c-8.11-0.36-15.35-4.56-20.37-11.8c-9.22-13.31-10.46-28.32-3.69-44.61c2.68-6.46,6.85-11.98,10.95-16.98l0.52-0.63
		c1.57-1.91,3.2-3.88,4.52-6.04c1.15-1.87,1.41-3.41,0.78-4.56c-0.63-1.14-2.04-1.73-4.19-1.75l-0.53,0
		c-5-0.05-10.17-0.09-15.25,0.15c-2.41,0.11-5.01,0.61-7.93,1.52c-2.88,0.9-4.68,2.73-5.19,5.31c-0.57,2.82,0.44,5.21,2.5,5.95
		c3.01,1.08,4.44-1.3,5.29-2.72c0.2-0.34,0.4-0.68,0.58-1.04c1.26-2.47,3.11-3.85,5.81-4.34l1.64-0.09
		c3.73-0.21,7.28-0.41,11.25,0.18c-0.23,0.33-0.45,0.65-0.66,0.95c-0.94,1.36-1.76,2.54-2.65,3.62c-1.57,1.92-3.22,3.83-4.81,5.69
		c-3.06,3.56-6.23,7.23-8.99,11.13c-8.98,12.69-11.53,26.09-7.58,39.83c3.01,10.48,9.08,18.01,18.02,22.4
		c5.01,2.46,10.34,3.68,15.94,3.68c4.92,0,10.06-0.95,15.38-2.85c6.11-2.18,10.94-6.38,15.36-10.49c0.66-0.61,1.47-1.14,2.41-1.74
		c0.14-0.09,0.29-0.19,0.44-0.29C693.39,136.99,693.34,139.09,693.3,141.15z"/>
	<path class="st0" d="M178.16,57.58c-6.36-2.06-13.22-2.67-20.4-1.8c-15.23,1.84-26.05,9.19-32.17,21.83
		c-8.61,17.79-8.05,35.78,1.69,53.47c0.01,0.02,0.02,0.04,0.03,0.06c5.29,8.26,12.47,13.77,21.95,16.84
		c4.4,1.43,9.08,2.14,13.97,2.14c2.11,0,4.26-0.13,6.45-0.4c14.79-1.81,25.48-8.95,31.78-21.22c8.2-15.98,8.55-32.65,1.02-49.55
		C197.82,68.5,189.64,61.31,178.16,57.58z M190.61,126.4c-5,11.89-13.67,18.33-25.76,19.13c-0.1,0-0.2,0-0.29,0
		c-18.2,0-25.44-13.18-27.72-18.88c-6.37-15.92-6.34-32.09,0.09-48.04c3.61-8.95,10.84-15.43,19.85-17.8
		c2.35-0.62,4.73-0.92,7.08-0.92c6.19,0,12.22,2.1,17.24,6.11c5.67,4.54,9.51,10.83,11.75,19.24
		C196.72,99.82,195.97,113.66,190.61,126.4z"/>
	<path class="st0" d="M110.63,19c-2.64-0.04-5.29-0.03-7.96-0.03l-1.79,0c-0.35,0-0.68,0.19-0.86,0.49l-0.85,1.44
		c-0.58,0.97-1.14,1.91-1.68,2.86l-8.04,14.08C81.8,51.2,74.17,64.57,66.49,77.91c-0.62,1.07-1.42,2.04-2.2,2.99
		c-0.21,0.26-0.42,0.51-0.62,0.76c-1.89-0.38-2.67-1.57-3.56-2.92c-0.15-0.22-0.29-0.45-0.44-0.67
		C51.13,65.68,42.6,53.29,34.07,40.9L21.49,22.63c-0.54-0.78-1.1-1.55-1.6-2.25l-0.6-0.84c-0.19-0.26-0.49-0.42-0.81-0.42H7.78
		c-0.37,0-0.71,0.21-0.89,0.54c-0.17,0.33-0.15,0.73,0.06,1.03l2.32,3.34c3.57,5.12,7.13,10.24,10.69,15.36
		c9.17,13.18,18.65,26.82,28.1,40.13c3.88,5.46,5.65,11.03,5.56,17.51c-0.15,11.21-0.12,22.6-0.09,33.62
		c0.01,4.15,0.02,8.3,0.03,12.45c0,0.77,0.05,1.54,0.1,2.29c0.02,0.35,0.05,0.7,0.07,1.05c0.03,0.53,0.47,0.95,1,0.95h10.1
		c0.55,0,1-0.45,1-1v-3.84c0-4.44,0.01-8.88,0.01-13.32c0.01-10.98,0.03-22.33-0.05-33.49c-0.04-5.55,1.53-10.5,4.79-15.13
		c10.34-14.69,20.81-29.73,30.93-44.28c3.44-4.94,6.88-9.89,10.34-14.85c0.13-0.19,0.19-0.41,0.18-0.64
		C111.96,19.75,111.39,19.01,110.63,19z"/>
	<path class="st0" d="M599.13,147.29h9.85c0.55,0,1-0.45,1-1V20.15c0-0.55-0.45-1-1-1h-9.85c-0.55,0-1,0.45-1,1v126.14
		C598.13,146.84,598.58,147.29,599.13,147.29z"/>
	<path class="st0" d="M456.43,58.14h-10.02c-0.55,0-1,0.45-1,1v55.96l0,31.25c0,0.55,0.45,1,1,1h10.02c0.55,0,1-0.45,1-1V59.14
		C457.43,58.59,456.99,58.14,456.43,58.14z"/>
	<path class="st0" d="M548.51,185.38c0-0.95,0.01-1.94-0.13-2.92c-0.65-4.44-3.41-6.98-8.23-7.57c-3.73-0.45-7.23,0.25-10.42,2.09
		c-4.94-2.72-10.17-2.95-15.56-0.7c-3.35,1.4-4.76,3.63-4.31,6.8c0.1,0.73,0.08,1.52,0.05,2.44c-0.02,0.48-0.03,0.99-0.03,1.53
		v18.22c0,0.55,0.45,1,1,1h5.15c0.55,0,1-0.45,1-1v-23.75c0.33-0.07,0.66-0.13,0.99-0.2c1.17-0.25,2.26-0.47,3.3-0.47
		c3.09,0.03,4.18,1.12,4.31,4.32c0.05,1.39,0.04,2.83,0.03,4.21c0,0.58-0.01,1.16-0.01,1.74l0,14.15c0,0.55,0.45,1,1,1h5.13
		c0.55,0,1-0.45,1-1V181.9c0.01-0.01,0.02-0.01,0.03-0.02c0.32-0.2,0.62-0.39,0.92-0.5c1.72-0.64,4.11-1.18,5.71-0.08
		c1.58,1.09,1.93,3.46,1.95,5.26c0,0.59,0,1.18,0,1.78l0,16.91c0,0.55,0.45,1,1,1h5.13c0.55,0,1-0.45,1-1l0-4.94
		c0-4.85,0-9.6-0.01-14.34L548.51,185.38z"/>
	<path class="st0" d="M335.92,174.9c-2.09-0.04-4.09,0.26-6.22,0.58c-0.61,0.09-1.22,0.18-1.84,0.27c-0.03-0.45-0.06-0.98-0.1-1.6
		v-12.36c0-0.55-0.45-1-1-1h-4.74c-0.55,0-1,0.45-1,1v40.07c0,0.32,0.15,0.62,0.41,0.8c3.52,2.59,7.53,3.92,11.78,3.92
		c1.34,0,2.71-0.13,4.1-0.4c5.22-1.01,8.62-4.15,10.09-9.33c1.16-4.08,1.16-8.37,0.01-12.75
		C345.89,178.36,341.71,175.01,335.92,174.9z M340.75,194.21c-0.67,4.86-3.17,6.72-8.33,6.23c-1.14-0.11-2.29-0.43-3.5-0.77
		c-0.34-0.09-0.68-0.19-1.03-0.28v-16.51c2.41-1.76,4.94-2.49,7.17-2.07c2.02,0.38,3.76,1.67,5.04,3.74
		c0.09,0.77,0.19,1.53,0.28,2.26C340.76,189.56,341.07,191.93,340.75,194.21z"/>
	<path class="st0" d="M620.47,160.74h-5.02c-0.55,0-1,0.45-1,1v14.27c-0.07-0.02-0.14-0.04-0.21-0.06
		c-0.93-0.29-1.73-0.54-2.57-0.71c-3.81-0.75-9.38-1.23-13.78,3.3c-5.17,5.32-5.1,18.56,0.13,24c0.55,0.58,1.18,1.11,1.86,1.58
		c2.42,1.68,5.6,2.48,8.87,2.48c4.56,0,9.31-1.57,12.43-4.53c0.2-0.19,0.31-0.45,0.31-0.72v-29.29c0,0,0,0,0,0l-0.03-10.32
		C621.47,161.18,621.02,160.74,620.47,160.74z M614.45,182.76v16.42c-2.17,1.35-4.75,1.7-8.09,1.09c-2.38-0.43-3.89-2.01-4.64-4.81
		c-0.99-3.71-0.86-7.29,0.38-10.65C605.18,180.22,609.22,179.55,614.45,182.76z"/>
	<path class="st0" d="M408.45,160.81h-5.16c-0.55,0-1,0.45-1,1v14.19c-0.08-0.03-0.16-0.05-0.24-0.08c-0.93-0.3-1.73-0.55-2.57-0.75
		c-7.24-1.74-13.86,1.29-16.09,7.35c-1.82,4.95-1.89,10.11-0.21,15.35c0.9,2.82,2.65,5.04,5.18,6.59c2.36,1.44,5.31,2.14,8.35,2.14
		c4.44,0,9.06-1.49,12.24-4.29c0.2-0.18,0.33-0.49,0.34-0.76c0.05-0.93,0.1-2.03,0.15-3.45c0-0.01,0-0.03,0-0.04v-36.25
		C409.45,161.26,409,160.81,408.45,160.81z M402.41,182.81v16.39c-0.11,0.05-0.21,0.11-0.32,0.16c-0.57,0.29-1.12,0.56-1.66,0.72
		c-3.33,0.95-6.1,0.75-8.01-0.57c-1.9-1.32-3.03-3.82-3.29-7.24c-0.1-1.32,0.07-2.67,0.25-4.11c0.08-0.62,0.15-1.25,0.21-1.87
		c1.23-2.87,2.94-4.65,5.07-5.29C396.88,180.35,399.55,180.98,402.41,182.81z"/>
	<path class="st0" d="M438.75,175.2l-0.55-0.11c-2.13-0.43-4.77-0.97-6.2,2.59c-0.01,0.02-0.01,0.03-0.02,0.05
		c-2.32,6.85-4.58,13.45-6.83,20.04l-7.67-22.04c-0.14-0.4-0.52-0.67-0.94-0.67h-4.63c-0.28,0-0.54,0.12-0.73,0.32
		s-0.28,0.48-0.26,0.76c0.02,0.28,0.03,0.53,0.03,0.77c0.01,0.53,0.03,1.03,0.2,1.54l0.09,0.26c2.76,7.89,5.61,16.04,8.52,24.03
		c0.34,0.94,0.94,1.73,1.56,2.56c0.19,0.25,0.38,0.5,0.57,0.77l-0.25,0.72c-0.35,1.02-0.76,2.17-1.2,3.3
		c-1.44,3.72-2.26,4.07-6.21,2.68c-0.31-0.11-0.63-0.19-1.04-0.3c-0.19-0.05-0.41-0.11-0.65-0.17c-0.47-0.13-0.96,0.1-1.17,0.54
		l-1.34,2.86c-0.21,0.46-0.05,1,0.38,1.27c2.8,1.75,5.38,2.63,7.71,2.63c0.96,0,1.87-0.15,2.74-0.45c2.79-0.97,4.92-3.42,6.32-7.3
		c3.69-10.21,7.31-20.31,11.59-32.33c0.23-0.65,0.38-1.32,0.53-2.03c0.07-0.33,0.15-0.69,0.24-1.06c0.06-0.27,0.02-0.55-0.13-0.78
		S439.02,175.25,438.75,175.2z"/>
	<path class="st0" d="M368.3,175.08c-2.25-0.3-4.73-0.18-8.04,0.38c-4.22,0.72-7.19,3.44-8.58,7.86c-1.55,4.91-1.53,9.92,0.04,14.91
		c0.9,2.86,2.68,5.05,5.27,6.51c2.58,1.46,5.33,2.19,8,2.19c2.05,0,4.06-0.43,5.91-1.31c4.32-2.03,7.34-6.23,8.29-11.51
		c0.01-0.06,0.02-0.12,0.02-0.18c0-0.79,0.01-1.55,0.02-2.3c0.03-1.8,0.06-3.5-0.15-5.21C378.31,180.03,374.38,175.89,368.3,175.08z
		 M369.38,199.41l-0.6,0.14c-2.02,0.47-3.62,0.84-5.19,0.84c0,0-0.01,0-0.01,0c-2.59,0-4.36-1.45-5.25-4.29
		c-1.09-3.47-1.1-7.11-0.02-10.81c0.77-2.62,2.56-4.12,5.33-4.44c0.58-0.07,1.13-0.1,1.64-0.1c2.47,0,4.17,0.81,5.4,2.52
		C373.58,187.33,372.9,195.51,369.38,199.41z"/>
	<path class="st0" d="M742.69,176.78c-4.46-2.71-9.58-3.08-14.05-1.02c-4.52,2.08-7.59,6.31-8.44,11.59
		c-0.01,0.06-0.01,0.11-0.01,0.17c0.01,0.76,0,1.5,0,2.22c-0.01,1.96-0.03,3.81,0.23,5.65c0.88,6.22,4.6,9.98,10.75,10.88
		c0.85,0.12,1.77,0.19,2.74,0.19c1.38,0,2.89-0.12,4.56-0.37c4.77-0.71,8.02-3.64,9.41-8.49c1.33-4.67,1.3-9.44-0.09-14.17
		C746.94,180.56,745.22,178.32,742.69,176.78z M741.2,195.72c-0.74,3.2-3.01,4.82-6.76,4.83c-0.01,0-0.03,0-0.04,0
		c-3.87,0-6.11-1.59-6.68-4.73c-0.58-3.21-0.42-6.65-0.26-8.95c0.24-3.32,1.91-5.3,4.97-5.89c0.86-0.16,1.65-0.25,2.38-0.25
		c2.51,0,4.31,0.98,5.66,3.04C741.97,187.56,742.21,191.36,741.2,195.72z"/>
	<path class="st0" d="M777.5,174.99c-0.32-0.03-0.61-0.05-0.88-0.08c-0.61-0.06-1.13-0.11-1.69-0.1c-0.48,0.01-0.92,0.1-1.49,0.21
		c-0.27,0.05-0.58,0.11-0.95,0.18c-0.48,0.08-0.83,0.5-0.83,0.99v23.3c-0.52,0.11-1.02,0.22-1.51,0.33
		c-1.5,0.34-2.79,0.63-4.07,0.66c-2.41,0.08-3.96-0.31-4.88-1.21c-0.93-0.9-1.38-2.45-1.41-4.9c-0.03-2.91-0.03-5.83-0.02-8.74
		c0-2.2,0.01-4.41,0-6.61c0-0.71-0.1-1.41-0.18-2.08c-0.04-0.3-0.08-0.61-0.11-0.93c-0.05-0.51-0.48-0.9-0.99-0.9h-4.68
		c-0.55,0-1,0.45-1,1c0,2.2-0.02,4.37-0.04,6.52c-0.04,5.2-0.08,10.1,0.12,15.1c0.17,4.24,2.92,7.28,7.34,8.14
		c2.01,0.39,4.04,0.39,6.19,0.39c0.8,0,1.61,0,2.44,0.02c0.01,0,0.02,0,0.03,0c0.06,0,0.12-0.01,0.18-0.02
		c3.25-0.59,6.63-1.39,9.08-3.96c0.18-0.19,0.28-0.43,0.28-0.69v-25.64C778.42,175.47,778.02,175.03,777.5,174.99z"/>
	<path class="st0" d="M583.71,175.61c-4.35-1.29-8.89-1.13-13.48,0.47c-4.97,1.72-5.66,2.69-5.66,7.92v21.27c0,0.55,0.45,1,1,1h5.14
		c0.55,0,1-0.45,1-1v-23.47c0.6-0.09,1.19-0.2,1.77-0.3c1.77-0.31,3.44-0.61,5.04-0.53c3.69,0.18,4.81,1.33,4.99,5.14
		c0.12,2.51,0.09,5.07,0.08,7.56c-0.01,1.08-0.02,2.17-0.01,3.25c0,1.88,0,3.76,0,5.73l0,2.68c0,0.55,0.45,1,1,1h4.87
		c0.55,0,1-0.45,1-1c0-2.23,0.02-4.43,0.04-6.62c0.04-5.4,0.08-10.5-0.13-15.69C590.2,179.51,587.78,176.81,583.71,175.61z"/>
	<path class="st0" d="M711.03,188.63c-1.14-0.32-2.3-0.51-3.43-0.7c-0.71-0.12-1.42-0.24-2.13-0.39l-0.17-0.04
		c-0.97-0.21-1.98-0.42-2.83-0.81c-1.46-0.67-1.69-2.01-1.61-3.01c0.08-1.05,0.48-2.34,1.99-2.5c2.28-0.24,4.25-0.23,6.02,0.03
		c1.12,0.16,2.21,0.57,3.48,1.05c0.6,0.23,1.23,0.46,1.89,0.68c0.49,0.16,1.03-0.08,1.24-0.56l1.33-3.12
		c0.19-0.45,0.03-0.98-0.39-1.24c-5.43-3.41-10.91-4.18-16.76-2.35c-4.12,1.29-6.23,4.62-5.8,9.16c0.41,4.33,2.27,6.58,6.42,7.75
		c1.59,0.45,3.23,0.8,4.81,1.13c1.18,0.25,2.39,0.51,3.57,0.8c1.45,0.37,2.08,1.25,2.06,2.87c-0.02,1.53-0.73,2.43-2.23,2.83
		c-1.42,0.38-2.65,0.49-3.65,0.34c-2.18-0.33-4.37-0.81-6.68-1.31c-0.99-0.22-2-0.44-3.05-0.66c-0.43-0.09-0.88,0.12-1.09,0.52
		l-1.33,2.56c-0.23,0.45-0.1,0.99,0.31,1.28c4.24,2.97,8.8,3.63,12.94,3.63c0.82,0,1.62-0.03,2.41-0.06c0.04,0,0.09-0.01,0.13-0.02
		l0.54-0.1c0.8-0.15,1.44-0.26,2.08-0.45c4.31-1.3,6.7-4.32,6.74-8.52C717.87,192.87,715.58,189.91,711.03,188.63z"/>
	<path class="st0" d="M790.04,160.77c-0.2-0.19-0.48-0.27-0.74-0.27l-4.78,0.26c-0.53,0.03-0.95,0.47-0.95,1v43.49
		c0,0.55,0.45,1,1,1h4.92c0.55,0,1-0.45,1-1v-35.45c0,0,0-0.01,0-0.02c-0.05-2.93-0.09-5.48-0.15-8.31
		C790.35,161.21,790.24,160.95,790.04,160.77z"/>
	<path class="st0" d="M463.97,37.5c-0.73-0.45-1.5-0.86-2.32-1.3c-1.84-0.98-3.75-2-5.09-3.46c-1.26-1.37-2.04-3.23-2.95-5.38
		c-0.43-1.03-0.88-2.09-1.41-3.17c-0.18-0.36-0.54-0.58-0.95-0.56c-0.4,0.02-0.75,0.28-0.88,0.66c-0.21,0.59-0.4,1.11-0.58,1.58
		c-0.33,0.89-0.62,1.67-0.86,2.45c-1.21,3.93-3.69,6.48-7.58,7.81c-0.78,0.27-1.51,0.6-2.42,1.09c-0.26,0.14-0.44,0.39-0.5,0.67
		c-0.06,0.29-0.07,0.68,0.19,0.82c0.74,0.41,1.47,0.46,2.48,0.87c4.36,1.79,6.88,4.92,8.07,9.55c0.18,0.69,0.48,1.32,0.79,1.99
		c0.15,0.32,0.31,0.66,0.47,1.03c0.15,0.36,0.5,0.59,0.89,0.6c0.01,0,0.02,0,0.02,0c0.38,0,0.73-0.22,0.9-0.56
		c0.5-1.03,0.92-2.05,1.33-3.04c0.85-2.06,1.66-4.01,2.93-5.38c1.35-1.44,3.28-2.41,5.14-3.34c0.82-0.41,1.59-0.8,2.3-1.22
		c0.3-0.18,0.49-0.5,0.49-0.85S464.27,37.68,463.97,37.5z"/>
	<path class="st0" d="M559.04,175.12h-4.68c-0.55,0-1,0.45-1,1v29.15c0,0.55,0.45,1,1,1h4.68c0.55,0,1-0.45,1-1v-29.15
		C560.04,175.57,559.6,175.12,559.04,175.12z"/>
	<path class="st0" d="M475,181.57c-0.12-0.03-0.24-0.04-0.36-0.03c-2.73,0.29-6.4,1.2-6.81,5.66c-0.32,3.45,1.32,6.16,4.37,7.23
		c0.68,0.24,1.38,0.35,2.09,0.35c2.34,0,4.65-1.26,5.88-3.39c1.05-1.81,1.24-3.76,0.52-5.49C479.84,183.85,477.82,182.3,475,181.57z
		"/>
	<path class="st0" d="M663.29,181.74c-2.42-0.55-4.56,0.19-6.52,2.25c-0.07,0.07-0.12,0.15-0.16,0.23
		c-0.12,0.23-0.24,0.44-0.35,0.65c-0.4,0.74-0.78,1.43-0.93,2.22c-0.61,3.37,1.74,6.84,5.13,7.57c0.42,0.09,0.85,0.13,1.28,0.13
		c1.29,0,2.59-0.39,3.71-1.14c1.51-1.01,2.56-2.56,2.87-4.27C668.95,185.94,666.69,182.51,663.29,181.74z"/>
	<path class="st0" d="M559.09,161.1h-5.34c-0.55,0-1,0.45-1,1v5.1c0,0.51,0.39,0.94,0.9,1c1.19,0.12,2.16,0.22,3.45,0.31
		c0.02,0,0.05,0,0.07,0c0.12,0,0.25-0.02,0.36-0.07c3.42-1.33,3.44-1.96,2.54-6.54C559.98,161.44,559.57,161.1,559.09,161.1z"/>
</g>
</svg>
